<?xml version="1.0" standalone="no"?>
<!DOCTYPE svg PUBLIC "-//W3C//DTD SVG 1.1//EN" "http://www.w3.org/Graphics/SVG/1.1/DTD/svg11.dtd" >
<svg xmlns="http://www.w3.org/2000/svg" xmlns:xlink="http://www.w3.org/1999/xlink" version="1.1">
<metadata></metadata>
<defs>
<font id="freighttextfreighttextproMdIt" horiz-adv-x="968" >
<font-face units-per-em="2048" ascent="1489" descent="-559" />
<missing-glyph horiz-adv-x="466" />
<glyph unicode="&#xfb01;" horiz-adv-x="987" d="M-334 -375q0 49 29 81t74 32q53 0 85 -41q31 -40 37 -103l113 48q36 82 92 387l142 782l-187 8l6 60l195 47q46 252 164 370q129 129 329 129q94 0 150 -46q57 -47 57 -107q0 -51 -29 -84q-30 -35 -75 -35q-53 0 -89 41q-34 39 -50 111l-217 -29q-61 -138 -89 -358h248 q51 32 86 32q32 0 92 -42t54 -64l-201 -735l59 -21l162 123l35 -37q-38 -75 -120 -140t-142 -65q-34 0 -87 43q-54 44 -50 64l192 737l-16 6h-330l-111 -586q-95 -511 -215 -639q-91 -98 -233 -98q-68 0 -114 36t-46 93z" />
<glyph unicode="&#xfb02;" horiz-adv-x="1021" d="M-334 -375q0 49 29 81t74 32q53 0 85 -41q31 -40 37 -103l119 48q51 102 96 387l123 782l-178 8l6 60l195 47q46 252 164 370q129 129 329 129q71 0 127 -30l117 32l-274 -1318l59 -21l162 123l35 -37q-38 -75 -120 -140t-142 -65q-29 0 -87 44t-53 63l146 743h-330 l-111 -586q-95 -511 -215 -639q-91 -98 -233 -98q-68 0 -114 36t-46 93zM403 918h330l51 253q-54 38 -75 134l-217 -29q-61 -138 -89 -358z" />
<glyph unicode="&#xfb03;" horiz-adv-x="1499" d="M-334 -375q0 49 29 81t74 32q53 0 85 -41q31 -40 37 -103l113 48q36 82 92 387l142 782l-187 8l6 60l195 47q45 247 164 366q115 115 276 115q88 0 143 -44q54 -43 54 -103v-7l39 43q129 129 329 129q94 0 150 -46q57 -47 57 -107q0 -51 -29 -84q-30 -35 -75 -35 q-53 0 -89 41q-34 39 -50 111l-217 -29q-60 -137 -89 -359h248q53 33 86 33q32 0 92 -42t54 -64l-201 -735l59 -21l162 123l35 -37q-38 -75 -120 -140t-142 -65q-34 0 -87 43q-54 44 -50 64l192 737l-16 6h-330l-102 -524q-99 -517 -215 -639q-100 -100 -207 -100 q-69 0 -114 35q-46 36 -46 94q0 48 29 80t73 32q53 0 85 -41t38 -102l92 49q48 106 97 387l116 729h-358l-111 -586q-95 -511 -215 -639q-91 -98 -233 -98q-68 0 -114 36t-46 93zM403 917h361q24 147 65 238q-26 -8 -41 -8q-51 0 -85 40t-46 105l-165 -28q-62 -145 -89 -347 z" />
<glyph unicode="&#xfb04;" horiz-adv-x="1533" d="M-334 -375q0 49 29 81t74 32q53 0 85 -41q31 -40 37 -103l113 48q36 82 92 387l142 782l-187 8l6 60l195 47q45 247 164 366q115 115 276 115q88 0 143 -44q54 -43 54 -103v-7l39 43q129 129 329 129q71 0 127 -30l117 32l-274 -1318l59 -21l162 123l35 -37 q-38 -75 -120 -140t-142 -65q-29 0 -87 44t-53 63l146 743h-330l-102 -524q-99 -517 -215 -639q-100 -100 -207 -100q-69 0 -114 35q-46 36 -46 94q0 48 29 80t73 32q53 0 85 -41t38 -102l92 49q48 106 97 387l116 729h-358l-111 -586q-95 -511 -215 -639q-91 -98 -233 -98 q-68 0 -114 36t-46 93zM403 917h361q24 147 65 238q-26 -8 -41 -8q-51 0 -85 40t-46 105l-165 -28q-62 -145 -89 -347zM915 917h330l51 254q-52 37 -75 134l-217 -29q-60 -137 -89 -359z" />
<glyph horiz-adv-x="0" />
<glyph unicode="&#xd;" horiz-adv-x="681" />
<glyph unicode=" "  horiz-adv-x="466" />
<glyph unicode="&#x09;" horiz-adv-x="466" />
<glyph unicode="&#xa0;" horiz-adv-x="466" />
<glyph unicode="!" horiz-adv-x="581" d="M121 92q0 50 36 84q37 35 89 35t87 -35q34 -34 34 -84q0 -52 -34 -87q-35 -36 -87 -36q-53 0 -89 37t-36 86zM256 401l20 826q4 84 95 84h6q70 0 97 -25q26 -24 15 -72l-192 -815q-2 -13 -22 -11q-19 1 -19 13z" />
<glyph unicode="&#x22;" horiz-adv-x="757" d="M70 825l219 498h4l164 -57l-310 -441h-77zM403 825l220 498h2l163 -57l-309 -441h-76z" />
<glyph unicode="#" horiz-adv-x="1159" d="M0 369v77h283l102 381h-262v78h283l106 387h80l-105 -387h349l104 387h80l-105 -387h265v-78h-285l-102 -381h264v-77h-285l-102 -381h-80l102 381h-350l-102 -381h-80l102 381h-262zM362 446h351l102 381h-348z" />
<glyph unicode="$" horiz-adv-x="1044" d="M39 29l24 366h84l58 -280q48 -26 121 -43l139 518q-150 84 -223 169q-74 86 -74 216q0 141 130 237q132 97 296 97q39 0 63 -2l56 204h80q-55 -208 -58 -208q54 -6 146 -27l106 24l-53 -393h-90l-27 254q-45 23 -108 39l-123 -455q75 -44 123 -77q42 -29 96 -80 q55 -52 78 -108q24 -58 24 -130q0 -168 -139 -274q-140 -107 -346 -107h-43l-84 -309h-80l84 313q-123 12 -260 56zM344 1047q-2 -81 41 -140t133 -119l115 424q-50 5 -72 5q-82 0 -150 -48q-67 -47 -67 -122zM403 61q24 -2 56 -2q126 0 196 61q71 61 72 161q2 81 -47 140 q-50 61 -148 126z" />
<glyph unicode="%" horiz-adv-x="1527" d="M92 -31l1290 1340h121l-1290 -1340h-121zM113 946q0 157 109 267q110 112 263 112q139 0 231 -82q93 -83 93 -219q0 -159 -110 -271t-267 -112q-136 0 -227 84q-92 84 -92 221zM211 950q0 -101 65 -162t164 -61q114 0 190 81q77 82 77 196q0 101 -65 166t-165 65 q-110 0 -188 -86q-78 -85 -78 -199zM801 254q0 161 107 271q109 112 266 112q136 0 227 -82q92 -83 92 -219q0 -158 -111 -270q-111 -113 -266 -113q-139 0 -227 82t-88 219zM899 262q0 -100 65 -162q64 -61 160 -61q113 0 192 85t79 200q0 95 -67 159t-163 64 q-110 0 -188 -86q-78 -85 -78 -199z" />
<glyph unicode="&#x26;" horiz-adv-x="1284" d="M6 281q0 164 110 266q110 103 263 131v2q-137 137 -137 285q0 151 115 247q117 97 276 97q140 0 233 -73q92 -72 92 -192q0 -128 -94 -210q-95 -83 -293 -134v-2l269 -292h2l243 208v4q-45 10 -73 41q-27 30 -27 68q0 48 35 75q34 27 88 27t89 -35q36 -36 36 -85 q0 -141 -227 -281l-119 -74l305 -331l-188 -56l-246 287h-2q-123 -144 -232 -216q-107 -71 -235 -71q-121 0 -202 92t-81 222zM178 326q0 -95 52 -154t124 -59q119 0 361 188l-299 338q-238 -128 -238 -313zM412 1018q0 -71 17 -121q18 -54 36 -80q18 -27 59 -74 q140 66 202 128t62 151q0 93 -43 152t-129 59q-94 0 -149 -63q-55 -62 -55 -152z" />
<glyph unicode="'" horiz-adv-x="425" d="M70 825l221 498h2l164 -57l-310 -441h-77z" />
<glyph unicode="(" horiz-adv-x="808" d="M188 428q0 174 54 342q53 164 138 281t175 199q91 83 178 126l53 -71q-181 -98 -336 -337t-155 -540t155 -540t336 -334l-53 -74q-87 43 -178 126q-90 82 -175 199t-138 281q-54 168 -54 342z" />
<glyph unicode=")" horiz-adv-x="808" d="M23 -449q181 98 336 337t155 540t-155 540t-336 337l55 71q91 -45 177 -125q93 -87 174 -199q85 -118 138 -282q54 -168 54 -342t-54 -342q-53 -164 -138 -282q-81 -112 -174 -199q-86 -80 -177 -125z" />
<glyph unicode="*" horiz-adv-x="714" d="M135 1161l27 37l131 -18l106 -166l33 10l-4 199l88 86l45 -15l23 -125l-127 -155l20 -27l189 68l108 -62v-45l-108 -61l-189 69l-20 -26l123 -156l-23 -125l-43 -12l-92 88l8 199l-31 8l-106 -160l-127 -20l-29 36l58 119l186 49v37l-186 54z" />
<glyph unicode="+" horiz-adv-x="983" d="M63 426l7 109h368v376h109v-376h366l7 -109h-373v-379h-109v379h-375z" />
<glyph unicode="," horiz-adv-x="475" d="M-61 -305q83 45 147 116q64 72 64 144q0 30 -15 60q-16 33 -35 50q-17 16 -41 33q-28 20 -34 23l-15 8q0 48 43 79q44 32 99 32q72 0 127 -57q55 -56 55 -136q0 -199 -346 -391z" />
<glyph unicode="-" horiz-adv-x="671" d="M68 426l6 109h528l6 -109h-540z" />
<glyph unicode="." horiz-adv-x="475" d="M55 106q0 56 40 95q41 39 100 39t97 -39q38 -40 38 -95q0 -56 -39 -96q-39 -41 -96 -41q-59 0 -100 41q-40 40 -40 96z" />
<glyph unicode="/" horiz-adv-x="571" d="M14 -434l441 1796h98l-440 -1796h-99z" />
<glyph unicode="0" horiz-adv-x="1030" d="M78 408q0 231 132 406t339 175q175 0 284 -118t109 -320q0 -231 -132 -407q-132 -175 -339 -175q-175 0 -284 118t-109 321zM211 408q0 -142 75 -230t191 -88q111 0 190 78q78 77 110 178q32 102 32 205q0 141 -75 229t-191 88q-112 0 -190 -77q-78 -76 -110 -179 q-32 -102 -32 -204z" />
<glyph unicode="1" horiz-adv-x="776" d="M53 0l6 72l154 22q48 6 53 47l94 703l-223 33l15 61l393 39l-113 -836q-5 -41 41 -47l158 -22l6 -72h-584z" />
<glyph unicode="2" horiz-adv-x="927" d="M20 0l7 127q103 72 134 93q85 58 126 87t102 75t90 75q33 33 62 66q33 37 45 72t12 69q0 89 -62 139q-63 51 -155 51q-132 0 -264 -115l-15 49q71 80 186 139q109 56 216 56q118 0 203 -68q84 -67 84 -182q0 -169 -216 -332q-80 -61 -389 -245q-6 -5 -10 -6l-2 -11h33 q189 0 283 8q87 7 134 30q43 21 74 73l50 80h88l-107 -330h-709z" />
<glyph unicode="3" horiz-adv-x="856" d="M-72 -268q0 41 31 74q30 32 74 32q59 0 103 -48t48 -109q36 -9 68 -9q127 0 214 95t87 221q0 112 -68 182t-180 70q-64 0 -143 -31l-21 51q225 131 310 217q93 100 94 191q0 88 -53 138t-142 50q-109 0 -280 -115l-15 52q211 192 420 192q117 0 204 -66t87 -182 q0 -67 -37 -129q-38 -65 -98 -114q-70 -58 -121 -90q-66 -41 -125 -68v-4q35 6 72 6q124 0 206 -79t82 -202q0 -188 -177 -329q-178 -142 -371 -142q-45 0 -107 13q-55 12 -109 47q-53 35 -53 86z" />
<glyph unicode="4" horiz-adv-x="980" d="M-27 82v78l797 839h59l-106 -819h235l-28 -98h-221l-60 -459h-166l60 459h-570zM109 180h448l82 549h-10z" />
<glyph unicode="5" horiz-adv-x="890" d="M-70 -270q0 45 32 75q33 31 75 31q60 0 101 -47q39 -45 44 -108q32 -9 66 -9q126 0 217 76q92 77 92 197q0 246 -461 444l221 569h535l-29 -170h-475l-100 -268q473 -186 473 -483q0 -201 -156 -326q-157 -125 -360 -125q-50 0 -110 11q-56 10 -110 45q-55 35 -55 88z " />
<glyph unicode="6" horiz-adv-x="1058" d="M88 453q0 225 152 425q151 198 383 319q230 119 481 142l18 -63q-316 -67 -535 -236t-327 -422h25q74 102 172 158q101 58 186 58q132 0 225 -96t93 -271q0 -201 -146 -349q-145 -147 -326 -147q-174 0 -288 138q-113 137 -113 344zM260 389q0 -147 62 -247 q62 -99 174 -99q120 0 206 119t86 284q0 126 -64 211q-65 86 -149 86q-179 0 -292 -215q-23 -101 -23 -139z" />
<glyph unicode="7" horiz-adv-x="925" d="M18 -377l748 1170l2 10h-225q-126 0 -156 -1q-49 -2 -81 -7q-35 -6 -44 -15t-20 -28l-74 -123h-68l86 329h729l-2 -94l-782 -1241h-113z" />
<glyph unicode="8" horiz-adv-x="1019" d="M88 311q0 245 313 336v6q-189 112 -190 301q-2 160 114 256q117 97 281 97q138 0 241 -89q101 -87 99 -233q-1 -121 -72 -193q-70 -71 -198 -116l2 -6q235 -139 235 -338q0 -178 -122 -269q-124 -92 -306 -92q-156 0 -277 95q-120 94 -120 245zM256 303q0 -118 71 -191 t191 -73q107 0 168 55q63 56 64 164q0 59 -26 114q-26 54 -80 101q-63 54 -93 75q-45 31 -105 68q-190 -121 -190 -313zM375 1030q0 -168 252 -321q153 90 153 284q0 105 -52 178q-53 74 -153 74q-95 0 -147 -59q-53 -61 -53 -156z" />
<glyph unicode="9" horiz-adv-x="1058" d="M-63 -319q318 68 535 235q219 169 327 422h-25q-74 -102 -172 -158q-99 -57 -186 -57q-134 0 -226 95t-92 271q0 202 146 350q145 146 325 146q176 0 289 -137t113 -344q0 -225 -152 -425t-383 -320q-230 -119 -481 -142zM270 510q0 -125 65 -211t148 -86q180 0 293 215 q23 101 23 139q0 147 -62 247q-61 99 -174 99q-122 0 -207 -118q-86 -119 -86 -285z" />
<glyph unicode=":" horiz-adv-x="475" d="M55 106q0 56 40 95q41 39 100 39t97 -39q38 -40 38 -95q0 -56 -39 -96q-39 -41 -96 -41q-59 0 -100 41q-40 40 -40 96zM139 733q0 55 40 94t100 39q59 0 97 -39q38 -40 38 -94q0 -55 -39 -96t-96 -41q-59 0 -100 41q-40 40 -40 96z" />
<glyph unicode=";" horiz-adv-x="475" d="M-61 -305q83 45 147 116q64 72 64 144q0 30 -15 60q-16 33 -35 50q-17 16 -41 33q-28 20 -34 23l-15 8q0 48 43 79q44 32 99 32q72 0 127 -57q55 -56 55 -136q0 -199 -346 -391zM141 733q0 55 40 94q41 39 100 39t97 -39q38 -40 38 -94q0 -55 -39 -96t-96 -41 q-59 0 -100 41q-40 40 -40 96z" />
<glyph unicode="&#x3c;" horiz-adv-x="983" d="M57 455v53l824 387l26 -100l-663 -310v-6l663 -311l-26 -100z" />
<glyph unicode="=" horiz-adv-x="983" d="M84 248l6 108h803l6 -108h-815zM84 713h815l-6 -109h-803z" />
<glyph unicode="&#x3e;" horiz-adv-x="983" d="M76 168l663 311v6l-663 310l26 100l824 -387v-53l-824 -387z" />
<glyph unicode="?" horiz-adv-x="763" d="M133 92q0 50 36 84q37 35 89 35t87 -35q34 -34 34 -84q0 -52 -34 -87q-35 -36 -87 -36q-53 0 -89 37t-36 86zM182 592q0 52 22 98q22 45 64 71q50 31 80 43q52 21 96 34q145 45 177 77q24 23 24 56q0 68 -97 120t-233 52q-43 0 -104 -8q-14 20 -14 51q0 52 42 87 q41 34 119 34q156 0 268 -104q111 -103 111 -232q0 -73 -20 -120q-21 -50 -62 -82q-42 -33 -77 -48q-42 -18 -93 -35q-127 -43 -161 -74q-37 -34 -37 -88q0 -68 67 -151l-61 4q-111 117 -111 215z" />
<glyph unicode="@" horiz-adv-x="1708" d="M121 555q21 322 261 542q240 221 562 210q327 -11 536 -217q210 -207 189 -515q-16 -230 -150 -364q-133 -133 -305 -133q-87 0 -137 19t-65 54t-15 61q0 25 11 60l55 234h-29q-212 -402 -348 -402q-82 0 -146 63q-65 63 -65 128q0 121 72 294t162 263q106 106 221 106 q67 0 118 -38t72 -111h23l45 121h108l-118 -334l-37 -334q-21 -106 106 -106q132 0 224 116q93 117 108 308q21 271 -165 454t-474 193q-282 7 -497 -191q-214 -198 -232 -483q-21 -315 171 -522t476 -207q117 0 252 39l23 -74q-143 -47 -279 -47q-322 0 -539 230t-194 583z M637 326q0 -53 35 -83q34 -30 69 -30q37 0 124 126q83 120 175 284q33 60 33 100q-20 42 -81 89q-59 46 -122 46q-49 0 -73 -24q-55 -55 -107 -225q-53 -173 -53 -283z" />
<glyph unicode="A" horiz-adv-x="1210" d="M-47 0l6 72l76 24q48 16 71 41q29 33 56 92l424 961v67l207 52l200 -1147q6 -31 20 -46q15 -16 48 -22l106 -22l7 -72h-539l6 72l107 18q39 6 39 54q0 8 -1 18l-45 299h-376l-68 -174q-34 -84 -34 -128q0 -6 1 -11q5 -44 47 -54l92 -22l7 -72h-457zM399 547h328l-84 561 h-10z" />
<glyph unicode="B" horiz-adv-x="1181" d="M23 0l6 72l112 22q48 8 54 49l133 994q1 4 1 8q0 31 -42 41l-105 22l-6 72h504q226 0 332 -83q104 -82 104 -214q0 -119 -90 -203q-89 -83 -223 -121l10 -10q135 -27 210 -104q77 -79 77 -183q0 -130 -99 -229q-133 -133 -417 -133h-561zM387 111l139 -31h72 q121 0 202 75t81 187q0 123 -86 200q-85 76 -215 76h-125zM465 696h129q136 0 227 67q90 66 90 183q0 123 -87 189q-86 65 -232 65h-57z" />
<glyph unicode="C" horiz-adv-x="1265" d="M102 543q0 154 60 298q61 146 166 251q217 217 506 217q157 0 286 -41l148 30l-58 -419h-92l-24 270q-119 74 -265 74q-209 0 -363 -195q-155 -196 -155 -500q0 -243 138 -381q92 -92 245 -92q125 0 240 62l123 278h106l-96 -395l-104 18q-146 -49 -277 -49 q-283 0 -434 154q-150 153 -150 420z" />
<glyph unicode="D" horiz-adv-x="1349" d="M23 0l6 72l112 22q48 8 54 49l133 994q1 4 1 8q0 31 -42 41l-105 22l-6 72h510q280 0 444 -153t164 -402q0 -299 -202 -500q-101 -102 -262 -164q-159 -61 -355 -61h-452zM387 111l141 -31q247 8 400 182t153 473q0 213 -111 339t-327 126h-111z" />
<glyph unicode="E" horiz-adv-x="1183" d="M23 0l6 72l112 22q48 8 54 49l135 994q1 4 1 8q0 31 -42 41l-105 22l-6 72h1004l-52 -381h-100l-22 199q-1 22 -7 41q-4 15 -21 27q-20 15 -39 19q-20 4 -73 9q-35 3 -109 5q-39 1 -163 1h-61l-70 -510h43q126 0 158 7q34 7 51 38l65 137h80l-104 -440h-78l10 131 q2 21 -10 30q-13 10 -55 14q-48 5 -131 5h-39l-72 -532h49q221 0 301 7q87 8 121 27t55 68l80 189h111l-88 -371h-989z" />
<glyph unicode="F" horiz-adv-x="1153" d="M23 0l6 72l112 22q48 8 54 49l135 994q1 4 1 8q0 31 -42 41l-105 22l-6 72h983l-51 -381h-100l-23 199q-7 61 -41 78q-49 24 -332 24h-41h-38l-70 -522h65q123 0 157 7q35 7 50 38l68 137h78l-105 -440h-76l11 131q1 21 -12 30q-15 10 -56 14q-48 5 -131 5h-61l-62 -457 q-1 -4 -1 -8q0 -31 42 -41l107 -22l6 -72h-522z" />
<glyph unicode="G" horiz-adv-x="1357" d="M102 543q0 154 60 298q61 146 166 251q217 217 506 217q157 0 286 -41l148 30l-58 -419h-92l-24 270q-119 74 -265 74q-209 0 -363 -195q-155 -196 -155 -500q0 -243 138 -381q92 -92 245 -92q107 0 205 43l47 326q4 24 -5 35q-8 9 -38 14l-112 23l-7 71h514l-6 -71 l-98 -23q-49 -12 -55 -49l-45 -295l118 -23l5 -57q-305 -80 -539 -80q-282 0 -429 156t-147 418z" />
<glyph unicode="H" horiz-adv-x="1476" d="M27 0l6 72l112 22q48 8 54 49l133 994q1 4 1 8q0 31 -42 41l-103 22l-6 72h518l-6 -72l-112 -22q-48 -8 -54 -49l-57 -439h588l59 439q4 21 -5 32q-10 11 -36 17l-104 22l-6 72h520l-8 -72l-111 -22q-47 -8 -53 -49l-135 -994q-1 -4 -1 -8q0 -31 42 -41l104 -22l6 -72 h-520l6 72l113 22q47 8 53 49l64 469h-590l-62 -469q-1 -4 -1 -8q0 -31 42 -41l105 -22l6 -72h-520z" />
<glyph unicode="I" horiz-adv-x="735" d="M29 0l6 72l133 22q47 8 53 49l135 994q1 5 1 9q0 33 -42 40l-125 22l-6 72h559l-6 -72l-133 -22q-47 -11 -53 -49l-133 -994q-1 -5 -1 -9q0 -33 42 -40l125 -22l6 -72h-561z" />
<glyph unicode="J" horiz-adv-x="833" d="M-43 106q0 41 29 68q28 27 75 27q129 0 150 -164h2q78 16 121 103q43 86 76 345l88 652q1 5 1 9q0 33 -42 40l-146 22l-6 72h580l-6 -72l-131 -22q-48 -8 -54 -49l-82 -625q-72 -543 -430 -543q-100 0 -162 37q-63 38 -63 100z" />
<glyph unicode="K" horiz-adv-x="1306" d="M23 0l6 72l112 22q48 8 54 49l135 994q1 4 1 8q0 31 -42 41l-105 22l-6 72h520l-8 -72l-110 -22q-48 -8 -54 -49l-69 -514l374 333q18 16 42 39q7 6 20 18.5t18 17.5q10 9 31 30q20 20 27 28q15 17 18 22q2 3 6 9.5t6 9.5q5 8 5 17q0 33 -60 49l-55 14l-6 72h508l-7 -70 l-32 -4q-66 -11 -121 -43q-57 -33 -141 -102l-367 -326l336 -565q28 -50 48 -64q21 -15 60 -22l60 -14l6 -72h-465l6 72l72 22q29 8 4 49l-268 484l-144 -121l-47 -363q-1 -4 -1 -8q0 -31 42 -41l105 -22l6 -72h-520z" />
<glyph unicode="L" horiz-adv-x="1142" d="M23 0l6 72l112 22q48 8 54 49l131 994q1 5 1 9q0 33 -42 40l-107 22l-6 72h539l-6 -72l-130 -22q-47 -8 -53 -49l-139 -1057h59q187 0 260 7q78 7 111 27q32 19 53 68l95 228h106l-98 -410h-946z" />
<glyph unicode="M" horiz-adv-x="1632" d="M-18 0l6 72l118 24q24 4 39 24q14 18 38 107q25 94 53 271l106 645q1 5 1 9q0 30 -36 36l-123 20l-6 72h438l146 -1001h10l481 1001h418l-6 -72l-131 -22q-48 -7 -53 -49l-66 -648q-19 -168 -20 -248v-30q0 -63 7 -84q9 -26 32 -31l110 -24l6 -72h-546l6 72l118 24 q33 6 51 81t42 312l65 639h-10l-524 -1087h-146l-164 1108h-10l-106 -651q-27 -167 -35 -220q-9 -63 -11 -117q-2 -44 5 -52q7 -9 22 -13l113 -24l6 -72h-444z" />
<glyph unicode="N" horiz-adv-x="1466" d="M20 0l7 72l98 16q62 11 86 78q25 69 59 332l68 503q4 39 4 69q0 38 -7 60q-13 39 -61 54l-92 24l-6 72h379l532 -989h11l67 491q34 244 34 328q0 24 -3 35q-8 37 -51 45q-6 2 -10 2l-99 16l-6 72h479l-6 -72l-98 -16q-41 -7 -64 -33q-19 -21 -39 -107q-22 -95 -45 -270 l-108 -800h-111l-592 1095h-10l-76 -579q-30 -231 -30 -319q0 -32 4 -46q12 -38 61 -45l97 -16l6 -72h-478z" />
<glyph unicode="O" horiz-adv-x="1423" d="M102 565q0 300 179 512q196 232 503 232q260 0 422 -168t162 -428q0 -331 -211 -545q-190 -199 -471 -199q-260 0 -422 168t-162 428zM311 539q0 -252 123 -375q105 -105 273 -105q111 0 203 69t144 174q51 102 79 220q26 110 26 221q0 252 -123 375q-105 105 -272 105 q-112 0 -204 -69q-90 -68 -143 -174q-51 -102 -79 -220q-27 -114 -27 -221z" />
<glyph unicode="P" horiz-adv-x="1150" d="M23 0l6 72l112 22q48 8 54 49l135 994q1 4 1 8q0 31 -42 41l-105 22l-6 72h500q210 0 334 -97q125 -98 125 -255q0 -190 -156 -298t-373 -108q-72 0 -164 15l-53 -394q-1 -5 -1 -9q0 -34 42 -40l148 -22l6 -72h-563zM457 618q74 -20 145 -20q147 0 238 89q90 89 90 245 q0 120 -81 195t-210 75h-102z" />
<glyph unicode="Q" horiz-adv-x="1429" d="M102 565q0 300 179 512q196 232 503 232q260 0 422 -168t162 -428q0 -331 -211 -545q-169 -179 -420 -197q79 -153 213 -216q116 -55 295 -55q23 0 47 1v-68q-94 -24 -237 -24q-231 0 -348 81t-222 310q-175 60 -279 210q-104 151 -104 355zM311 539q0 -252 123 -375 q105 -105 273 -105q111 0 203 69t144 174q51 102 79 220q26 110 26 221q0 252 -123 375q-105 105 -272 105q-112 0 -204 -69q-90 -68 -143 -174q-51 -102 -79 -220q-27 -114 -27 -221z" />
<glyph unicode="R" horiz-adv-x="1241" d="M25 0l6 72l110 22q48 8 54 49l131 994q1 4 1 8q0 31 -42 41l-105 22l-6 72h543q205 0 315 -85q111 -85 111 -218q0 -148 -97 -246q-95 -97 -266 -141l213 -385q24 -49 50 -77q26 -27 35 -32q6 -3 32 -10l57 -14l7 -72h-304l-278 565l-141 6l-60 -428q-1 -5 -1 -9 q0 -33 42 -40l123 -22l6 -72h-536zM463 666l145 -29q147 17 232 93q86 77 86 210q0 121 -78 190q-79 70 -217 70h-101z" />
<glyph unicode="S" horiz-adv-x="1028" d="M39 29l24 366h84l58 -280q106 -56 254 -56q126 0 196 61q71 61 72 161v6q0 91 -63 154q-70 70 -207 153q-159 96 -223 172q-66 78 -66 209q0 141 130 237q132 97 296 97q131 0 287 -33l106 24l-53 -393h-90l-27 254q-123 56 -256 56q-82 0 -150 -48q-67 -47 -67 -122v-6 q0 -97 63 -161q69 -71 209 -153q138 -82 215 -166q76 -83 76 -211q0 -168 -139 -274q-140 -107 -346 -107q-200 0 -383 60z" />
<glyph unicode="T" horiz-adv-x="1269" d="M98 879l86 401h1114l-53 -401h-94l-25 198q-6 51 -23 72q-18 23 -80 36q-63 14 -196 15h-4l-139 -1057q-1 -5 -1 -9q0 -33 42 -40l141 -22l6 -72h-598l9 72l151 22q46 6 53 49l138 1057h-2q-192 0 -246 -16q-55 -16 -88 -86l-84 -219h-107z" />
<glyph unicode="U" horiz-adv-x="1462" d="M168 1280h520l-6 -72l-113 -22q-47 -8 -53 -49l-86 -625q-10 -73 -10 -115q0 -161 90 -238q91 -77 244 -77q315 0 366 348l47 352q34 243 34 329q0 27 -3 38q-16 36 -63 43l-97 16l-6 72h477l-6 -72l-98 -16q-40 -7 -62 -34q-19 -23 -39 -106q-21 -86 -47 -270l-51 -374 q-33 -220 -172 -329q-140 -110 -354 -110q-206 0 -333 99q-128 99 -128 290q0 51 8 121l92 658q1 4 1 9q0 32 -41 40l-105 22z" />
<glyph unicode="V" horiz-adv-x="1208" d="M68 1280h538l-6 -72l-106 -18q-41 -8 -41 -50q0 -10 2 -22l157 -925h11l389 890q12 25 12 45q0 43 -57 58l-88 22l-7 72h457l-6 -72l-80 -24q-47 -16 -72 -41q-27 -27 -55 -92l-485 -1051h-170l-213 1118q-4 30 -18 45q-14 16 -50 23l-106 22z" />
<glyph unicode="W" horiz-adv-x="1773" d="M68 1280h538l-6 -72l-106 -18q-40 -7 -40 -55q0 -8 1 -17l116 -938l9 -2l346 801l-23 139q-5 32 -18 45q-16 16 -51 23l-107 22l-6 72h536l-6 -72l-106 -18q-43 -9 -43 -51q0 -10 2 -21l141 -934l10 -2l326 901q15 28 2 61q-12 32 -51 42l-88 22l-6 72h456l-6 -72 l-80 -24q-92 -29 -131 -133l-397 -1051h-188l-125 813h-11l-358 -813h-184l-166 1118q-4 30 -18 45q-14 16 -50 23l-106 22z" />
<glyph unicode="X" horiz-adv-x="1288" d="M-33 0l6 72l58 14q114 29 209 143l344 414l-228 408q-39 71 -60 94q-24 27 -67 39l-79 24l-5 72h529l-8 -72l-84 -12q-54 -8 -54 -47q0 -37 41 -109l140 -278h10l256 321q26 32 26 56q0 37 -65 51l-78 18l-6 72h485l-6 -72l-57 -14q-114 -29 -209 -143l-303 -365 l254 -457q39 -71 60 -94q24 -27 67 -39l80 -24l4 -72h-529l9 72l84 12q53 8 53 47q0 37 -41 109l-168 327h-8l-297 -370q-26 -32 -26 -56q0 -37 65 -51l77 -18l7 -72h-486z" />
<glyph unicode="Y" horiz-adv-x="1214" d="M70 1280h528l-8 -72l-84 -12q-32 -4 -44 -24q-11 -18 -3 -52q7 -30 35 -88l180 -395h10l293 446q21 32 21 55q0 39 -60 52l-90 18l-6 72h485l-6 -72l-57 -14q-64 -17 -107 -45t-90 -98l-340 -502l-53 -406q-1 -5 -1 -9q0 -33 42 -40l141 -22l6 -72h-598l8 72l152 22 q46 6 53 49l53 406l-245 502q-34 65 -60 91q-27 28 -71 42l-80 24z" />
<glyph unicode="Z" horiz-adv-x="1153" d="M6 0l10 74l940 1116v10h-223q-169 0 -248 -15t-105 -39t-58 -89l-64 -170h-90l51 393h979l-10 -76l-942 -1116v-10l215 2q176 1 265 14q85 12 116 35q29 22 57 76l72 180h104l-94 -385h-975z" />
<glyph unicode="[" horiz-adv-x="753" d="M193 -455v1788h520v-90h-416v-1608h416v-90h-520z" />
<glyph unicode="\" horiz-adv-x="571" d="M16 1362h99l440 -1796h-98z" />
<glyph unicode="]" horiz-adv-x="753" d="M41 -365h416v1608h-416v90h520v-1788h-520v90z" />
<glyph unicode="^" horiz-adv-x="819" d="M186 1044l220 383h188l113 -383h-45l-175 263h-4l-252 -263h-45z" />
<glyph unicode="_" horiz-adv-x="962" d="M-80 -109l6 109h987l7 -109h-1000z" />
<glyph unicode="`" horiz-adv-x="819" d="M223 1427h205l135 -383h-45z" />
<glyph unicode="a" d="M41 223q0 157 67 325q66 165 162 261q143 143 277 143q95 0 141 -143h12l41 141h146l-103 -346l-108 -495l59 -21l162 123l35 -37q-38 -75 -120 -140t-142 -65q-37 0 -97 22q-57 21 -57 44q0 31 111 379h-17q-128 -242 -208 -343q-81 -102 -166 -102q-82 0 -139 68 q-56 66 -56 186zM203 264q0 -155 104 -155q52 0 118 88q71 96 214 346l33 143q-40 63 -104 115q-65 53 -126 53q-32 0 -67 -35q-53 -53 -112 -236q-60 -186 -60 -319z" />
<glyph unicode="b" horiz-adv-x="917" d="M80 94l207 1080q6 39 -13 47l-129 57l9 51l342 98l-113 -477l-107 -444h17q128 242 208 343t167 101q79 0 131 -85q53 -86 53 -210q0 -163 -51 -307q-50 -141 -146 -237q-146 -146 -309 -146q-72 0 -172 52q-50 26 -73.5 45.5t-20.5 31.5zM219 176q56 -54 126 -94 q69 -39 116 -39q28 0 63 35q65 65 115 229q51 166 51 307q0 89 -23 142q-24 55 -71 55q-52 0 -118 -88q-71 -96 -214 -346z" />
<glyph unicode="c" horiz-adv-x="784" d="M61 289q0 153 66 305q67 153 181 254q116 102 247 102q96 0 162 -51q65 -50 65 -121q0 -49 -29 -82q-30 -34 -71 -34q-88 0 -88 81q0 39 16 62q-10 15 -67 34q-56 19 -103 19q-16 0 -49 -33q-56 -56 -112 -217q-56 -160 -56 -297q0 -99 51 -159t127 -60q75 0 244 121 l27 -37q-91 -108 -164 -157q-74 -50 -168 -50q-120 0 -200 92q-79 91 -79 228z" />
<glyph unicode="d" d="M41 223q0 157 67 325q66 165 162 261q143 143 277 143q95 0 141 -143h12l70 365q6 39 -12 47l-129 57l8 51l342 98l-201 -845l-102 -473l59 -21l162 123l35 -37q-38 -75 -120 -140t-142 -65q-37 0 -97 22q-57 21 -57 44q0 31 111 379h-17q-128 -242 -208 -343 q-81 -102 -166 -102q-82 0 -139 68q-56 66 -56 186zM203 264q0 -155 104 -155q52 0 118 88q71 96 214 346l33 143q-40 63 -104 115q-65 53 -126 53q-32 0 -67 -35q-53 -53 -112 -236q-60 -186 -60 -319z" />
<glyph unicode="e" horiz-adv-x="774" d="M61 289q0 242 148 452q147 209 334 209q99 0 158 -55q61 -56 61 -137q0 -91 -85 -152q-85 -62 -360 -198l-94 -48v-49q0 -99 51 -159t127 -60q75 0 244 121l27 -37q-91 -108 -164 -157q-74 -50 -168 -50q-120 0 -200 92q-79 91 -79 228zM225 420h4q238 124 312 191 q75 68 75 149q0 34 -61 61t-102 27q-47 0 -72 -25q-39 -39 -84 -148t-72 -255z" />
<glyph unicode="f" horiz-adv-x="550" d="M-334 -375q0 49 29 81t74 32q53 0 85 -41q31 -40 37 -103l113 48q36 82 92 387l142 782l-187 8l6 60l199 47q45 247 164 366q115 115 272 115q88 0 143 -44q54 -43 54 -103q0 -46 -29 -80q-28 -33 -72 -33q-51 0 -85 40t-46 105l-165 -28q-62 -145 -89 -347h234l8 -98 h-260l-111 -586q-95 -511 -215 -639q-91 -98 -233 -98q-68 0 -114 36t-46 93z" />
<glyph unicode="g" horiz-adv-x="888" d="M-127 -258q0 83 86 148q85 64 195 104v10q-103 56 -103 137q0 62 53 110q52 47 144 75v10q-60 40 -97 110q-36 69 -36 146q0 160 121 259q122 99 282 99q96 0 242 -39h203l-41 -151l-224 49v-21q78 -96 78 -192q0 -131 -109 -224t-231 -93q-65 0 -133 24q-44 -7 -75 -41 q-29 -32 -29 -61q0 -38 33 -60q31 -20 135 -59l84 -31q77 -27 119 -46q50 -22 97 -52q52 -33 76 -76q25 -45 25 -96q0 -111 -140 -199t-382 -88q-157 0 -265 66t-108 182zM16 -229q0 -81 99 -138t241 -57q110 0 195 44q84 44 84 116q0 48 -60 86t-174 78q-151 50 -194 71 q-191 -95 -191 -200zM266 537q6 -119 51 -164q33 -33 72 -33q76 0 148 72q47 50 72 130q26 83 26 160q0 60 -53 111q-52 51 -115 51q-57 0 -92 -35q-53 -53 -82 -132q-27 -74 -27 -143v-17z" />
<glyph unicode="h" horiz-adv-x="1011" d="M35 0l74 301l172 873q6 39 -13 47l-129 57l8 51l342 98l-114 -479l-133 -573h18q192 411 283 502q73 73 159 73q54 0 99 -42t45 -99q0 -98 -84 -377q-69 -241 -96 -326l57 -18l162 123l35 -37q-38 -75 -120 -140t-143 -65q-33 0 -93 22q-56 21 -56 44q0 48 104 381 q80 260 80 299q0 33 -28 60q-30 28 -66 28q-88 0 -340 -527l-55 -286z" />
<glyph unicode="i" horiz-adv-x="518" d="M27 696q40 89 117 172q76 82 137 82q22 0 61 -9t70 -26q30 -17 26 -30l-211 -776l60 -21l162 123l34 -37q-39 -76 -119 -140q-82 -65 -143 -65q-37 0 -94 24q-29 12 -42 22.5t-11 19.5l202 778l-59 10l-156 -164zM334 1231q0 60 34 101q34 42 76 42q51 0 80 -32t29 -78 q0 -60 -33 -102t-78 -42q-51 0 -80 32q-28 31 -28 79z" />
<glyph unicode="j" horiz-adv-x="516" d="M-283 -416q0 46 33 74q34 29 76 29q86 0 133 -113l29 6q49 105 139 531l149 702l-59 10l-156 -164l-34 37q40 89 117 172q76 82 137 82q22 0 61 -9t70 -26q30 -17 26 -30l-153 -676q-63 -270 -117 -426q-56 -161 -135 -240q-80 -80 -174 -80q-56 0 -99 34t-43 87z M334 1231q0 60 34 101q34 42 76 42q51 0 80 -32t29 -78q0 -60 -33 -102t-78 -42q-51 0 -80 32q-28 31 -28 79z" />
<glyph unicode="k" horiz-adv-x="897" d="M35 0l74 301l172 873q6 39 -13 47l-129 57l8 51l342 98l-114 -479l-101 -436h15l411 217v19q-90 12 -90 96q0 46 37 80t84 34q52 0 87 -36q36 -38 36 -82q0 -27 -3 -48q-3 -23 -13 -41q-3 -6 -9.5 -17.5t-9.5 -16.5q-7 -13 -31 -31q-33 -24 -36 -26q-5 -3 -51 -26 q-42 -21 -56 -27q-6 -3 -16 -7.5t-25.5 -11.5t-28.5 -13q-47 -21 -77 -34l-23 -11l150 -419h45l141 133l35 -37q-39 -86 -117 -161t-139 -75q-18 0 -55 21q-36 20 -41 31l-144 458l-74 -32l-73 -459z" />
<glyph unicode="l" horiz-adv-x="512" d="M51 35l225 1139q6 39 -12 47l-129 57l8 51l338 98l-274 -1318l59 -21l162 123l35 -37q-38 -75 -120 -140t-142 -65q-21 0 -58 12q-40 13 -65 26q-29 15 -27 28z" />
<glyph unicode="m" horiz-adv-x="1509" d="M27 696q40 89 117 172q76 82 137 82q39 0 96 -21t57 -44q0 -42 -127 -510h19q193 413 282 502q73 73 160 73q51 0 84 -42t33 -107q0 -55 -107 -426h19q193 413 282 502q73 73 160 73q53 0 98 -42t45 -99q0 -98 -84 -377q-62 -215 -98 -323l60 -21l161 123l35 -37 q-38 -75 -120 -140t-142 -65q-33 0 -93 22q-57 21 -57 44q0 45 105 381q80 260 80 299q0 33 -29 60q-30 28 -65 28q-88 0 -340 -527l-68 -286l-168 10l119 416q3 13 32 106q14 46 36 125q12 43 12 68q0 33 -29 60q-30 28 -65 28q-88 0 -340 -527l-56 -286l-168 10l72 301 l104 512l-59 10l-156 -164z" />
<glyph unicode="n" horiz-adv-x="1038" d="M27 696q41 91 116 172q76 82 136 82q39 0 97 -21t58 -44q0 -42 -127 -510h19q193 413 282 502q73 73 160 73q53 0 98 -42t45 -99q0 -98 -84 -377q-17 -60 -34 -117q-30 -98 -38 -126q-12 -42 -26 -80l59 -21l162 123l35 -37q-38 -75 -120 -140t-142 -65q-33 0 -93 22 q-57 21 -57 44q0 45 105 381q80 260 80 299q0 33 -29 60q-30 28 -65 28q-88 0 -340 -527l-56 -286l-168 10l72 301l104 502l-57 10l-160 -154z" />
<glyph unicode="o" horiz-adv-x="901" d="M66 371q0 214 136 396q136 183 318 183q154 0 233 -109q78 -107 78 -292q0 -214 -136 -396q-137 -184 -318 -184q-153 0 -233 110q-78 107 -78 292zM223 313q0 -109 40 -192q41 -84 114 -84q67 0 129 74q62 73 93 150q31 76 48 149q25 122 25 215q0 105 -39 182 q-39 76 -113 76q-63 0 -125 -71q-61 -70 -94 -145q-33 -74 -51 -143q-27 -107 -27 -211z" />
<glyph unicode="p" horiz-adv-x="974" d="M-160 -504l4 72l115 22q44 7 55 50l265 1169l-62 14l-156 -164l-34 37q40 89 117 172q76 82 137 82q38 0 100 -21q61 -21 61 -44q0 -34 -110 -379h16q128 242 208 343t167 101q79 0 131 -85q53 -86 53 -210q0 -161 -61 -308q-62 -148 -158 -245q-135 -135 -276 -135 q-94 0 -160 80h-2l-80 -407q-1 -5 -1 -9q0 -34 40 -41l137 -22l8 -72h-514zM279 197q136 -154 213 -154q28 0 63 35q65 65 128 233q62 165 62 303q0 89 -23 142q-24 55 -71 55q-51 0 -117 -88q-76 -101 -215 -346z" />
<glyph unicode="q" horiz-adv-x="907" d="M41 223q0 157 67 325q66 165 162 261q143 143 277 143q95 0 141 -143h12l41 141h146l-103 -346l-204 -964q-2 -8 -2 -15q0 -29 40 -35l117 -22l6 -72h-501l6 72l114 22q45 7 56 50l116 469l95 305h-17q-128 -242 -208 -343q-81 -102 -166 -102q-82 0 -139 68 q-56 66 -56 186zM203 264q0 -155 104 -155q52 0 118 88q71 96 214 346l33 143q-40 63 -104 115q-65 53 -126 53q-32 0 -67 -35q-53 -53 -112 -236q-60 -186 -60 -319z" />
<glyph unicode="r" horiz-adv-x="804" d="M27 696q40 89 117 172q76 82 137 82q39 0 96 -21t57 -44q0 -35 -51 -230q-49 -186 -80 -280h31q147 405 266 524q51 51 129 51q53 0 88 -35t35 -88q0 -55 -30 -92t-72 -37q-50 0 -74 32q-19 25 -19 63q0 11 2 24q-3 3 -5 4q-1 0 -2 1t-3.5 2.5t-4.5 2.5q-8 5 -9 0 q-97 -83 -311 -561l-56 -276l-168 10l72 301l104 512l-59 10l-156 -164z" />
<glyph unicode="s" horiz-adv-x="710" d="M-12 127q0 44 28 72t74 28q34 0 55 -24t21 -60q0 -23 -14 -45q114 -46 188 -51q32 16 68 59q41 50 41 80q0 33 -26 78q-29 48 -48 67q-40 40 -78 77q-175 169 -175 280q0 6 1 12q12 118 113 184q100 66 206 66q254 0 254 -153q0 -45 -27 -74t-73 -29q-33 0 -55 25 q-21 24 -21 59q0 21 12 45q-89 42 -167 47q-31 -11 -64 -53q-36 -45 -37 -78q-2 -18 1 -32q3 -16 14 -35q3 -6 8.5 -16.5t8.5 -14.5q9 -15 27 -34q11 -12 27 -31q2 -3 6.5 -7t12.5 -12l14 -14l31 -31l20 -20l24 -24q1 -1 4 -4.5t8 -9t10 -11.5q19 -21 25 -29q14 -20 22 -30 q17 -22 22 -32q9 -18 16 -30q10 -17 15 -34q3 -11 7 -33q3 -16 1 -34q-10 -114 -114 -183t-208 -69q-278 0 -278 158z" />
<glyph unicode="t" horiz-adv-x="620" d="M76 819l6 62q2 1 13 4.5t18 6.5q5 2 24 9.5t34 13.5q51 21 67 27l26 8l47 250h154l-57 -282h258l6 -99h-283l-151 -710l59 -21l162 123l35 -37q-38 -75 -120 -140t-143 -65q-39 0 -96 18q-29 9 -42 18t-11 18l160 786z" />
<glyph unicode="u" horiz-adv-x="1038" d="M57 696q39 87 118 172q76 82 136 82q37 0 96 -21q58 -21 58 -44q0 -45 -105 -381q-79 -256 -79 -299q0 -34 28 -61q29 -27 66 -27q88 0 340 526l55 287l168 -10l-72 -302q-84 -445 -106 -509l59 -21l162 123l35 -37q-38 -75 -120 -140t-142 -65q-34 0 -94 22 q-56 21 -56 44q0 42 127 510h-18q-192 -411 -283 -502q-74 -74 -160 -74q-53 0 -98 42t-45 100q0 97 84 376q5 15 12 39t18 63t20 68t20 66.5t16.5 57.5t9.5 32l-59 10l-156 -164z" />
<glyph unicode="v" horiz-adv-x="884" d="M-8 696q39 87 118 172q76 82 136 82q38 0 98 -21q59 -21 59 -44l-18 -776h16l246 393q78 118 78 196q0 41 -34 71q-35 30 -91 42q11 70 49 105q39 36 92 36q61 0 101 -39q39 -38 39 -110q0 -79 -56 -179q-60 -106 -178 -268l-237 -348l-174 -39l6 844l-60 10l-155 -164z " />
<glyph unicode="w" horiz-adv-x="1368" d="M-8 696q39 87 118 172q76 82 136 82q38 0 98 -21q59 -21 59 -44l-6 -776h11l313 647l-2 194l67 -16l82 -16l23 -809h10l219 393q78 135 78 196q0 41 -34 71q-35 30 -91 42q11 70 49 105q39 36 92 36q60 0 101 -39q39 -38 39 -110q0 -22 -3 -41q-2 -10 -12 -41 q-7 -20 -15 -40q-7 -16 -24 -46q-15 -25 -25 -46q-4 -8 -34 -53l-36 -54q-2 -3 -42 -61q-34 -50 -43 -65l-221 -348l-174 -39v633h-6l-303 -594l-174 -39v844l-60 10l-155 -164z" />
<glyph unicode="x" d="M12 187q28 36 72 36q50 0 74 -32q19 -25 19 -66q0 -10 -1 -21l57 -10l195 348l-152 381h-47l-106 -143l-31 37q114 235 211 235q21 0 67 -20q48 -21 52 -31l106 -352h4q109 246 171 325q60 76 128 76q69 0 119 -35q47 -33 47 -84v-4q-2 -58 -31 -93q-30 -36 -73 -36 q-49 0 -73 32q-18 24 -18 65q0 11 1 22l-60 8l-190 -336l156 -389h45l108 144l31 -37q-122 -236 -213 -236q-19 0 -67 21q-49 21 -50 31l-108 352h-11q-93 -192 -144 -277q-47 -79 -79 -104q-29 -23 -76 -23q-68 0 -117 35q-46 33 -46 84q0 58 30 97z" />
<glyph unicode="y" horiz-adv-x="878" d="M-221 -387q0 47 35 80q34 33 73 33q51 0 91 -40q38 -38 38 -91v-5l35 4l277 392l-101 26l15 801l-60 10l-155 -164l-35 37q39 87 118 172q76 82 136 82q38 0 98 -21q59 -21 59 -44l-24 -776h22l347 577v21q-107 41 -107 120q0 53 32 91q30 36 81 36q63 0 99 -38 q36 -37 36 -103q0 -52 -43 -137q-47 -93 -76 -136q-70 -105 -100 -149l-207 -295l-121 -229q-105 -197 -201 -294t-202 -97q-64 0 -112 39t-48 98z" />
<glyph unicode="z" horiz-adv-x="831" d="M-2 76q0 55 33 94q34 41 106 86l496 424q-59 16 -194 98q-136 83 -148 88l-41 -32q41 -56 41 -91q0 -37 -25 -62q-24 -24 -63 -24q-48 0 -72 26q-25 27 -25 62q0 77 72 138q71 60 193 65q47 0 86 -12t63 -27q25 -16 48 -43t33 -44q13 -21 26 -49q18 -37 18 -38h21l51 215 q56 0 94 -32q39 -33 39 -74q0 -54 -36 -91q-37 -39 -114 -89l-481 -412q54 -16 196 -109q144 -95 165 -102l43 35q-52 57 -52 98q0 34 27 58t70 24q39 0 64 -25q24 -24 24 -63q0 -73 -66 -136q-65 -62 -180 -73q-124 0 -194 65q-68 64 -109 173h-21l-55 -228q-55 0 -94 33 t-39 74z" />
<glyph unicode="{" horiz-adv-x="688" d="M49 440l23 58q268 7 268 157q0 66 -60 186q-61 122 -61 212q0 137 105 218q104 81 294 91v-72q-116 -10 -184 -63q-67 -52 -67 -127q0 -66 60 -187t60 -213q0 -98 -86 -173q-85 -74 -176 -76v-25q91 -5 176 -78q86 -74 86 -172q0 -91 -60 -209q-60 -119 -60 -184 q0 -73 67 -130q67 -56 184 -67v-67q-189 10 -293 91q-106 82 -106 218q0 88 61 210q60 120 60 185q0 146 -268 158z" />
<glyph unicode="|" horiz-adv-x="565" d="M236 -383v1796h94v-1796h-94z" />
<glyph unicode="}" horiz-adv-x="688" d="M49 -414q117 11 184 67q68 57 68 130q0 65 -60 184q-61 120 -61 209q0 98 86 172q85 73 176 78v25q-91 2 -176 76q-86 75 -86 173q0 89 61 213q60 121 60 187q0 74 -68 127t-184 63v72q191 -11 295 -91q105 -81 105 -218q0 -90 -61 -212q-60 -120 -60 -186 q0 -150 268 -157l22 -58l-22 -59q-268 -12 -268 -158q0 -65 60 -185q61 -122 61 -210q0 -136 -106 -218q-104 -80 -294 -91v67z" />
<glyph unicode="~" horiz-adv-x="753" d="M25 375q37 121 92 176t139 55q58 0 114 -37t102 -74q47 -38 79 -38q28 0 55 28q27 29 66 105h53q-38 -121 -92 -176q-56 -56 -139 -56q-74 0 -168 75t-127 75q-29 0 -56 -29q-26 -27 -65 -104h-53z" />
<glyph unicode="&#xa1;" horiz-adv-x="581" d="M147 63l193 816q2 12 21 11q20 -2 20 -13l-21 -826q-4 -84 -94 -84h-6q-70 0 -97 25q-26 25 -16 71zM270 1186q0 52 34 87q34 36 87 36t89 -37q36 -38 36 -86q0 -50 -36 -84q-37 -35 -89 -35t-87 35q-34 34 -34 84z" />
<glyph unicode="&#xa2;" horiz-adv-x="774" d="M61 289q0 237 135 446q134 207 332 215h2l97 353h75l-98 -361q77 -18 124 -68q46 -49 46 -106q0 -48 -33 -82q-33 -35 -73 -35q-35 0 -70 22q-32 21 -43 48l-170 -629q57 -8 254 121l33 -37q-167 -198 -326 -205l-80 -311h-76l82 315q-91 16 -151 105q-60 88 -60 209z M223 311q0 -169 94 -209l195 725q-34 21 -90 21q-16 0 -39 -23q-55 -55 -107 -218q-53 -167 -53 -296z" />
<glyph unicode="&#xa3;" horiz-adv-x="976" d="M-53 29q160 39 231 119q72 81 90 223q12 96 17 157h-222l7 84h221q12 175 18 226q27 207 150 329q122 121 301 121q106 0 168 -43q63 -43 63 -110q0 -49 -30 -83t-78 -34q-60 0 -90 47q-32 49 -11 115q-39 30 -98 30q-80 2 -129 -74.5t-68 -230.5q0 -3 -24 -293h313 l6 -84h-327q-5 -48 -17 -120q-27 -143 -88 -220v-10q24 -6 87 -30q41 -15 116 -37q53 -15 94 -15q74 0 115 41q28 28 94 139l43 -14q-12 -130 -83 -221q-70 -90 -195 -90q-23 0 -44 3q-26 4 -39 7q-19 5 -37 13q-14 7 -33 17q-21 11 -32 20q-4 3 -10.5 8t-10.5 8t-7 5 q-13 9 -28 23q-12 11 -25 24q-12 12 -24 23t-24 23q-140 -146 -348 -176z" />
<glyph unicode="&#xa4;" horiz-adv-x="890" d="M76 1032l74 74l118 -119q83 53 178 53q100 0 183 -55l112 113l72 -72l-115 -115q50 -85 50 -176q0 -92 -52 -176l127 -127l-73 -74l-125 125q-83 -53 -179 -53t-178 51l-114 -114l-72 71l115 115q-54 82 -54 182q0 98 52 178zM240 735q0 -86 56 -148q57 -63 150 -63 q92 0 149 63q56 62 56 148q0 90 -56 150q-57 61 -149 61q-93 0 -150 -61q-56 -60 -56 -150z" />
<glyph unicode="&#xa5;" horiz-adv-x="1253" d="M109 1280h514l-7 -72l-86 -12q-51 -7 -49 -55q1 -45 60 -162l155 -322h4l265 387q32 48 43 81t-1 49q-12 17 -44 24l-45 10l-7 72h408l-6 -72l-29 -8q-59 -17 -109 -49q-47 -31 -98 -102l-297 -424h310l8 -84h-363l-22 -166h377l8 -84h-396l-20 -148q-6 -41 41 -49 l149 -22l7 -72h-592l6 72l153 22q47 6 54 49l20 148h-336l4 84h342l23 166h-369l4 84h338l-247 493q-29 56 -99 74l-65 16z" />
<glyph unicode="&#xa6;" horiz-adv-x="565" d="M236 -285v686h94v-686h-94zM236 629v686h94v-686h-94z" />
<glyph unicode="&#xa7;" horiz-adv-x="862" d="M78 653q0 89 61 162q62 74 144 107q-31 64 -31 120q0 101 91 182t230 81q77 0 154 -41q76 -40 76 -111q0 -44 -32 -78q-31 -33 -73 -33q-113 0 -125 168q-29 15 -55 15q-65 0 -100 -38t-35 -87t38 -102q36 -50 65 -73q31 -24 110 -83q41 -31 85 -67q28 -23 68 -63t59 -84 q17 -40 17 -89q0 -86 -60 -161q-61 -76 -144 -110q32 -55 32 -121q0 -96 -94 -186q-95 -90 -246 -90q-78 0 -155 41q-76 40 -76 113q0 47 32 77q33 31 76 31q107 0 123 -166q35 -18 78 -18q57 0 93 43t36 100q0 50 -37 99q-41 54 -67 75q-41 33 -107 82q-40 29 -87 66 q-20 16 -69 65q-39 39 -58 83q-17 40 -17 91zM207 729q0 -59 42 -109q44 -51 122 -112q17 -15 46 -35q25 -18 51 -39q32 -27 44 -36q22 -17 46 -43q18 -19 36 -44q102 53 102 152q0 101 -157 219q-1 1 -46 35q-10 8 -22 16.5t-19.5 14.5t-11.5 9q-5 4 -43 36q-29 24 -48 45 q-21 23 -36 43q-42 -22 -74 -66t-32 -86z" />
<glyph unicode="&#xa8;" horiz-adv-x="819" d="M182 1243q0 53 33 91t88 38t88 -38t33 -91t-33 -91t-88 -38t-88 38t-33 91zM592 1243q0 53 33 91t88 38t88 -38t33 -91t-33 -91t-88 -38t-88 38t-33 91z" />
<glyph unicode="&#xa9;" horiz-adv-x="1503" d="M82 639q0 277 196 475q195 197 474 197t474 -197q195 -196 195 -475t-195 -474q-196 -196 -474 -196t-474 196t-196 474zM160 639q0 -245 173 -423q173 -177 419 -177q245 0 418 177q173 178 173 423t-173 424q-172 178 -418 178q-247 0 -419 -178q-173 -179 -173 -424z M393 629q0 169 106 278t271 109q83 0 164 -25l94 25v-268h-55l-47 149q-57 45 -166 45q-103 0 -170 -76q-68 -77 -68 -198q0 -150 73 -243q72 -91 204 -91q73 0 114 33l70 161h57l-24 -247l-62 12q-85 -31 -176 -31q-180 0 -283 103q-102 102 -102 264z" />
<glyph unicode="&#xaa;" horiz-adv-x="706" d="M117 801q0 101 46 221q47 121 113 188q99 99 203 99q69 0 103 -105h10l24 105h97l-60 -254l-78 -361l39 -10l138 121l18 -27q-40 -65 -107 -126q-66 -60 -110 -60q-22 0 -52 30t-30 48q0 19 11 52q32 96 38 113q23 66 49 150h-10q-100 -201 -173 -299q-70 -94 -126 -94 q-68 0 -105 56q-38 58 -38 153zM233 821q0 -55 24 -87t58 -32q42 0 222 308l24 90q-26 44 -74 84q-46 39 -92 39q-24 0 -49 -25q-38 -38 -76 -155q-37 -114 -37 -222z" />
<glyph unicode="&#xab;" horiz-adv-x="1003" d="M57 414v86l496 299l14 -41l-342 -307l264 -287l-26 -41zM446 414v86l498 319l14 -41l-364 -327l280 -308l-24 -41z" />
<glyph unicode="&#xac;" horiz-adv-x="983" d="M72 524l6 109h833v-434h-108v325h-731z" />
<glyph unicode="&#xad;" horiz-adv-x="671" d="M68 426l6 109h528l6 -109h-540z" />
<glyph unicode="&#xae;" horiz-adv-x="1503" d="M82 639q0 277 196 475q195 197 474 197t474 -197q195 -196 195 -475t-195 -474q-196 -196 -474 -196t-474 196t-196 474zM160 639q0 -245 173 -423q173 -177 419 -177q245 0 418 177q173 178 173 423t-173 424q-172 178 -418 178q-247 0 -419 -178q-173 -179 -173 -424z M446 285l5 63l59 12q27 6 27 27v512q0 23 -27 29l-59 12l-5 64h312q131 0 200 -55q68 -54 68 -130q0 -156 -172 -207l133 -200q38 -50 66 -56l63 -8l4 -63h-202l-44 80l-137 219l-80 4v-201q0 -21 29 -27l68 -12l2 -63h-310zM657 659l78 -10q160 11 160 152q0 140 -190 133 l-48 -2v-273z" />
<glyph unicode="&#xaf;" horiz-adv-x="819" d="M217 1108l19 84h503l-6 -84h-516z" />
<glyph unicode="&#xb0;" horiz-adv-x="839" d="M139 950q0 156 110 268q109 111 263 111q138 0 230 -82q94 -83 94 -219q0 -159 -110 -271t-267 -112q-137 0 -228 84q-92 84 -92 221zM238 954q-1 -98 63 -160q67 -64 164 -65q113 -1 189 81q77 84 79 198q2 101 -63 163q-68 65 -168 66q-111 2 -187 -83 q-75 -84 -77 -200z" />
<glyph unicode="&#xb1;" horiz-adv-x="983" d="M63 487l7 109h368v334h109v-334h366l7 -109h-373v-337h-109v337h-375zM66 12l6 109h839l7 -109h-852z" />
<glyph unicode="&#xb2;" horiz-adv-x="675" d="M2 559l2 76l135 101q84 63 132 103q46 39 94 84q53 50 75 96q21 43 21 89q0 63 -43 99q-44 36 -105 36q-101 0 -219 -86l-12 31q147 162 315 162q96 0 163 -56t67 -141q0 -32 -14 -66q-16 -38 -29 -60q-17 -27 -53 -62q-55 -53 -61 -58q-26 -23 -78 -60q-56 -40 -80 -56 q-5 -3 -20.5 -13.5t-33 -22.5t-36.5 -24q-63 -41 -87 -57v-6h90q172 0 225 8q48 7 76 41l37 51h58l-74 -209h-545z" />
<glyph unicode="&#xb3;" horiz-adv-x="675" d="M8 639q0 28 23 51t55 23q52 0 80 -39t27 -84q30 -6 47 -6q84 0 135 58t51 136q0 58 -37 92q-38 35 -98 35q-44 0 -107 -18l-16 39q12 5 58 27q13 6 25 12t22.5 11.5t12.5 6.5q5 2 21.5 11.5t28.5 15.5q33 17 49 30q15 12 33 30q17 17 25 36t8 39q0 47 -38 74 q-36 26 -87 26q-102 0 -215 -80l-13 35q61 65 148 108q86 42 176 42q81 0 145 -41t64 -109q0 -40 -23 -77q-22 -36 -48 -57t-75 -45q-55 -27 -71 -32l-72 -24v-4q36 10 78 10q79 0 128 -44q48 -43 48 -124q0 -117 -120 -196q-119 -79 -261 -79q-72 0 -140 28q-67 27 -67 83z " />
<glyph unicode="&#xb4;" horiz-adv-x="819" d="M367 1044l237 383h205l-397 -383h-45z" />
<glyph unicode="&#xb5;" horiz-adv-x="1083" d="M18 918h324l-16 -594q0 -118 46 -165q46 -48 142 -48q109 0 227 86v606q0 17 -15 24q-17 9 -62 13l-80 6l-9 72h334v-773q0 -39 23 -47l137 -41l-6 -51l-322 -37v146h-10q-1 -1 -3.5 -4t-7 -8.5t-8.5 -10.5q-10 -12 -22 -24q-1 -1 -7.5 -8.5t-12.5 -13.5q-13 -13 -23 -21 q-2 -2 -9 -7.5t-13 -10.5q-14 -11 -27 -16q-8 -3 -28 -11t-31 -9q-22 -2 -35 -2q-117 0 -174 113q-4 4 -4 6h-11l21 -573l-205 -19l27 766l6 539q0 8 -2 16q-1 5 -5 9q-3 3 -12 5l-15 3q-1 0 -25 2q-7 1 -17 2.5t-14 1.5l-49 6z" />
<glyph unicode="&#xb6;" horiz-adv-x="1026" d="M143 874q0 208 138 308q135 98 358 98h319l-176 -1346h-104l78 598q-86 -16 -152 -16q-208 0 -334 101q-127 102 -127 257z" />
<glyph unicode="&#xb7;" horiz-adv-x="475" d="M55 467q0 55 40 94q41 39 100 39t97 -39q38 -40 38 -94q0 -55 -39 -96t-96 -41q-59 0 -100 41q-40 40 -40 96z" />
<glyph unicode="&#xb8;" horiz-adv-x="819" d="M53 -504q344 44 344 191q0 94 -159 94q-62 0 -129 -12l6 41l254 233h90l-176 -160q114 0 181 -44q66 -43 66 -122q0 -109 -127 -182t-340 -88z" />
<glyph unicode="&#xb9;" horiz-adv-x="675" d="M66 559l2 57l143 15q33 1 37 28l82 568l-170 22l10 41l332 60l-101 -691q-4 -23 27 -28l113 -15l4 -57h-479z" />
<glyph unicode="&#xba;" horiz-adv-x="657" d="M127 883q0 159 96 293q96 133 236 133q113 0 170 -79q57 -80 57 -214q0 -157 -95 -291q-94 -133 -237 -133q-113 0 -170 79t-57 212zM244 844q0 -80 27 -137q27 -58 83 -58q71 0 124 90q52 89 75 183q16 64 16 149q0 75 -27 128q-27 52 -83 52q-66 0 -120 -88 q-55 -90 -77 -174q-18 -72 -18 -145z" />
<glyph unicode="&#xbb;" horiz-adv-x="1003" d="M2 135l365 328l-281 307l25 41l403 -311v-86l-498 -320zM393 156l342 307l-264 287l27 41l405 -291v-86l-495 -299z" />
<glyph unicode="&#xbc;" horiz-adv-x="1464" d="M41 -238l1292 1518h113l-1292 -1518h-113zM106 559l3 57l143 15q33 1 37 28l82 568l-170 22l10 41l332 60l-101 -691q-4 -23 27 -28l113 -15l4 -57h-480zM756 -14l481 514l92 -17l-72 -485h142l-19 -70h-131l-35 -221h-143l33 221h-346zM838 -2h274l53 336h-12z" />
<glyph unicode="&#xbd;" horiz-adv-x="1464" d="M41 -238l1292 1518h113l-1292 -1518h-113zM106 559l3 57l143 15q33 1 37 28l82 568l-170 22l10 41l332 60l-101 -691q-4 -23 27 -28l113 -15l4 -57h-480zM750 -293l2 76l135 101q84 63 132 103q37 31 93 84q55 52 76 96q20 41 20 89q0 63 -43 99t-104 36q-101 0 -219 -86 l-13 31q147 162 316 162q96 0 163 -56q66 -56 66 -141q0 -33 -13 -65q-15 -36 -30 -61q-18 -29 -52 -62q-55 -53 -61 -58q-26 -23 -78 -60q-56 -40 -80 -56q-5 -3 -20.5 -13.5t-33 -22.5t-36.5 -24q-63 -41 -87 -57v-6h90q171 0 224 8q50 8 77 41l37 51h57l-74 -209h-544z " />
<glyph unicode="&#xbe;" horiz-adv-x="1464" d="M41 -238l1292 1518h113l-1292 -1518h-113zM49 639q0 28 23 51t55 23q51 0 80 -39q28 -38 26 -84q30 -6 48 -6q84 0 135 58t51 136q0 58 -37 92q-38 35 -98 35q-41 0 -107 -18l-16 39q12 5 58 27q13 6 25 12t22.5 11.5t12.5 6.5q5 2 21.5 11.5t28.5 15.5q33 17 49 30 q15 12 33 30q17 17 25 36t8 39q0 47 -38 74q-36 26 -87 26q-102 0 -215 -80l-13 35q61 65 148 108q86 42 176 42q81 0 145 -41t64 -109q0 -40 -23 -77q-23 -36 -48 -57t-75 -45q-55 -27 -71 -32l-72 -24v-4q36 10 78 10q79 0 128 -44q48 -43 48 -124q0 -117 -120 -196 q-119 -79 -261 -79q-72 0 -140 28q-67 27 -67 83zM756 -14l481 514l92 -17l-72 -485h142l-19 -70h-131l-35 -221h-143l33 221h-346zM838 -2h274l53 336h-12z" />
<glyph unicode="&#xbf;" horiz-adv-x="763" d="M49 319q0 71 21 120q22 52 61 82q41 31 78 48q45 20 92 35l61 21q22 7 52 21q31 14 47 30q14 14 26 38q13 26 13 52q0 67 -68 152l62 -5q110 -116 110 -215q0 -54 -21 -98t-65 -71q-50 -31 -80 -43q-42 -17 -96 -33q-143 -45 -176 -78q-25 -25 -25 -56q0 -66 98 -119 t232 -53q36 0 104 9q15 -21 15 -52q0 -52 -42 -87q-40 -33 -120 -33q-157 0 -267 103q-112 104 -112 232zM408 1198q0 53 33 87q35 36 87 36q53 0 89 -37q36 -38 36 -86q0 -50 -36 -84q-37 -35 -89 -35t-87 35q-33 33 -33 84z" />
<glyph unicode="&#xc0;" horiz-adv-x="1210" d="M-47 0l6 72l76 24q48 16 71 41q29 33 56 92l424 961v67l207 52l200 -1147q6 -31 20 -46q15 -16 48 -22l106 -22l7 -72h-539l6 72l107 18q46 7 38 72l-45 299h-376l-68 -174q-38 -95 -33 -139t47 -54l92 -22l7 -72h-457zM399 547h328l-84 561h-10zM418 1769h205l135 -383 h-45z" />
<glyph unicode="&#xc1;" horiz-adv-x="1210" d="M-47 0l6 72l76 24q48 16 71 41q29 33 56 92l424 961v67l207 52l200 -1147q6 -31 20 -46q15 -16 48 -22l106 -22l7 -72h-539l6 72l107 18q46 7 38 72l-45 299h-376l-68 -174q-38 -95 -33 -139t47 -54l92 -22l7 -72h-457zM399 547h328l-84 561h-10zM602 1386l238 383h204 l-397 -383h-45z" />
<glyph unicode="&#xc2;" horiz-adv-x="1210" d="M-47 0l6 72l76 24q48 16 71 41q29 33 56 92l424 961v67l207 52l200 -1147q6 -31 20 -46q15 -16 48 -22l106 -22l7 -72h-539l6 72l107 18q46 7 38 72l-45 299h-376l-68 -174q-38 -95 -33 -139t47 -54l92 -22l7 -72h-457zM399 547h328l-84 561h-10zM440 1386l217 383h189 l115 -383h-46l-176 263h-4l-250 -263h-45z" />
<glyph unicode="&#xc3;" horiz-adv-x="1210" d="M-47 0l6 72l76 24q48 16 71 41q29 33 56 92l424 961v67l207 52l200 -1147q6 -31 20 -46q15 -16 48 -22l106 -22l7 -72h-539l6 72l107 18q46 7 38 72l-45 299h-376l-68 -174q-38 -95 -33 -139t47 -54l92 -22l7 -72h-457zM391 1423q73 252 234 252q57 0 113 -37 q63 -41 102 -74q46 -38 78 -38q28 0 55 28q26 27 67 105h54q-76 -252 -236 -252q-74 0 -167 75q-92 74 -126 74q-28 0 -55 -28t-66 -105h-53zM399 547h328l-84 561h-10z" />
<glyph unicode="&#xc4;" horiz-adv-x="1210" d="M-47 0l6 72l76 24q48 16 71 41q29 33 56 92l424 961v67l207 52l200 -1147q6 -31 20 -46q15 -16 48 -22l106 -22l7 -72h-539l6 72l107 18q46 7 38 72l-45 299h-376l-68 -174q-38 -95 -33 -139t47 -54l92 -22l7 -72h-457zM377 1585q0 54 33 91q33 38 88 38t88 -38 q32 -36 32 -91t-32 -91q-33 -38 -88 -38t-88 38t-33 91zM399 547h328l-84 561h-10zM786 1585q0 54 33 91q33 38 88 38t88 -38q33 -37 33 -91q0 -53 -33 -91t-88 -38t-88 38t-33 91z" />
<glyph unicode="&#xc5;" horiz-adv-x="1210" d="M-47 0l6 72l76 24q48 16 71 41q29 33 56 92l450 1024q-82 52 -77 156q2 79 51 131q50 53 131 53q82 0 132 -53t50 -131q0 -115 -94 -164l188 -1083q5 -30 18 -45q14 -16 50 -23l106 -22l7 -72h-539l6 72l107 18q46 7 38 72l-45 299h-376l-68 -174q-38 -95 -33 -139 t47 -54l92 -22l7 -72h-457zM399 547h328l-84 561h-10zM596 1409q0 -53 33 -91t88 -38t88 38t33 91t-33 91t-88 38t-88 -38t-33 -91z" />
<glyph unicode="&#xc6;" horiz-adv-x="1632" d="M-96 0l6 72l76 24q78 23 147 133l559 908q22 37 -33 49l-108 22l-6 72h1095l-51 -381h-100l-23 199q-1 26 -6 41q-4 15 -21 27q-20 15 -39 19q-20 4 -73 9q-35 3 -109 5q-39 1 -163 1h-27l-72 -510h11q125 0 157 7q35 8 52 38l65 137h80l-104 -440h-78l10 131 q2 21 -10 30q-13 10 -56 14q-48 5 -131 5h-6l-69 -532h14q221 0 301 7q87 8 121 27t55 68l80 189h111l-89 -371h-940l7 72l114 22q48 8 54 49l43 318h-367l-88 -146q-80 -131 -80 -176q0 -35 49 -45l92 -22l6 -72h-456zM434 547h326l90 659h-14z" />
<glyph unicode="&#xc7;" horiz-adv-x="1265" d="M102 543q0 154 60 298q61 146 166 251q217 217 506 217q157 0 286 -41l148 30l-58 -419h-92l-24 270q-119 74 -265 74q-209 0 -363 -195q-155 -196 -155 -500q0 -243 138 -381q92 -92 245 -92q125 0 240 62l123 278h106l-96 -395l-104 18q-146 -49 -277 -49h-4l-94 -86 q114 0 181 -44t67 -122q0 -109 -127 -182t-340 -88l-11 49q344 44 344 191q0 94 -159 94q-61 0 -129 -12l6 41l178 163q-243 24 -370 175q-126 150 -126 395z" />
<glyph unicode="&#xc8;" horiz-adv-x="1183" d="M23 0l6 72l112 22q48 8 54 49l135 994q6 38 -41 49l-105 22l-6 72h1004l-52 -381h-100l-22 199q-1 22 -7 41q-4 15 -21 27q-20 15 -39 19q-20 4 -73 9q-35 3 -109 5q-39 1 -163 1h-61l-70 -510h43q126 0 158 7q34 7 51 38l65 137h80l-104 -440h-78l10 131q2 21 -10 30 q-13 10 -55 14q-48 5 -131 5h-39l-72 -532h49q221 0 301 7q87 8 121 27t55 68l80 189h111l-88 -371h-989zM446 1769h205l135 -383h-45z" />
<glyph unicode="&#xc9;" horiz-adv-x="1183" d="M23 0l6 72l112 22q48 8 54 49l135 994q6 38 -41 49l-105 22l-6 72h1004l-52 -381h-100l-22 199q-1 22 -7 41q-4 15 -21 27q-20 15 -39 19q-20 4 -73 9q-35 3 -109 5q-39 1 -163 1h-61l-70 -510h43q126 0 158 7q34 7 51 38l65 137h80l-104 -440h-78l10 131q2 21 -10 30 q-13 10 -55 14q-48 5 -131 5h-39l-72 -532h49q221 0 301 7q87 8 121 27t55 68l80 189h111l-88 -371h-989zM549 1386l237 383h205l-397 -383h-45z" />
<glyph unicode="&#xca;" horiz-adv-x="1183" d="M23 0l6 72l112 22q48 8 54 49l135 994q6 38 -41 49l-105 22l-6 72h1004l-52 -381h-100l-22 199q-1 22 -7 41q-4 15 -21 27q-20 15 -39 19q-20 4 -73 9q-35 3 -109 5q-39 1 -163 1h-61l-70 -510h43q126 0 158 7q34 7 51 38l65 137h80l-104 -440h-78l10 131q2 21 -10 30 q-13 10 -55 14q-48 5 -131 5h-39l-72 -532h49q221 0 301 7q87 8 121 27t55 68l80 189h111l-88 -371h-989zM449 1386l217 383h188l115 -383h-45l-176 263h-5l-249 -263h-45z" />
<glyph unicode="&#xcb;" horiz-adv-x="1183" d="M23 0l6 72l112 22q48 8 54 49l135 994q6 38 -41 49l-105 22l-6 72h1004l-52 -381h-100l-22 199q-1 22 -7 41q-4 15 -21 27q-20 15 -39 19q-20 4 -73 9q-35 3 -109 5q-39 1 -163 1h-61l-70 -510h43q126 0 158 7q34 7 51 38l65 137h80l-104 -440h-78l10 131q2 21 -10 30 q-13 10 -55 14q-48 5 -131 5h-39l-72 -532h49q221 0 301 7q87 8 121 27t55 68l80 189h111l-88 -371h-989zM385 1585q0 54 33 91q33 38 88 38t88 -38q33 -37 33 -91q0 -53 -33 -91t-88 -38t-88 38t-33 91zM795 1585q0 55 32 91q33 38 88 38q56 0 89 -38q32 -36 32 -91 t-32 -91q-33 -38 -89 -38q-55 0 -88 38q-32 36 -32 91z" />
<glyph unicode="&#xcc;" horiz-adv-x="735" d="M29 0l6 72l133 22q47 8 53 49l135 994q6 41 -41 49l-125 22l-6 72h559l-6 -72l-133 -22q-47 -11 -53 -49l-133 -994q-6 -41 41 -49l125 -22l6 -72h-561zM180 1769h205l135 -383h-45z" />
<glyph unicode="&#xcd;" horiz-adv-x="735" d="M29 0l6 72l133 22q47 8 53 49l135 994q6 41 -41 49l-125 22l-6 72h559l-6 -72l-133 -22q-47 -11 -53 -49l-133 -994q-6 -41 41 -49l125 -22l6 -72h-561zM446 1386l238 383h205l-397 -383h-46z" />
<glyph unicode="&#xce;" horiz-adv-x="735" d="M29 0l6 72l133 22q47 8 53 49l135 994q6 41 -41 49l-125 22l-6 72h559l-6 -72l-133 -22q-47 -11 -53 -49l-133 -994q-6 -41 41 -49l125 -22l6 -72h-561zM213 1386l217 383h188l115 -383h-45l-176 263h-4l-250 -263h-45z" />
<glyph unicode="&#xcf;" horiz-adv-x="735" d="M29 0l6 72l133 22q47 8 53 49l135 994q6 41 -41 49l-125 22l-6 72h559l-6 -72l-133 -22q-47 -11 -53 -49l-133 -994q-6 -41 41 -49l125 -22l6 -72h-561zM166 1585q0 54 33 91q33 38 88 38t88 -38q33 -37 33 -91q0 -53 -33 -91t-88 -38t-88 38t-33 91zM575 1585 q0 54 33 91q33 38 88 38t88 -38q33 -37 33 -91q0 -53 -33 -91t-88 -38t-88 38t-33 91z" />
<glyph unicode="&#xd0;" horiz-adv-x="1349" d="M23 0l6 72l112 22q48 8 54 49l63 467h-168l6 84h172l60 443q6 38 -41 49l-105 22l-6 72h510q280 0 444 -153t164 -402q0 -299 -202 -500q-101 -102 -262 -164q-159 -61 -355 -61h-452zM387 111l141 -31q247 8 400 182t153 473q0 213 -111 339t-327 126h-111l-67 -506h221 l6 -84h-237z" />
<glyph unicode="&#xd1;" horiz-adv-x="1466" d="M20 0l7 72l98 16q62 11 86 78q25 69 59 332l68 503q10 90 -3 129t-61 54l-92 24l-6 72h379l532 -989h11l67 491q43 312 31 363q-8 37 -51 45q-6 2 -10 2l-99 16l-6 72h479l-6 -72l-98 -16q-41 -7 -64 -33q-19 -21 -39 -107q-22 -95 -45 -270l-108 -800h-111l-592 1095 h-10l-76 -579q-41 -315 -26 -365q12 -38 61 -45l97 -16l6 -72h-478zM459 1423q73 252 233 252q58 0 114 -37q58 -38 101 -74q46 -38 78 -38q28 0 55 28q28 30 68 105h53q-77 -252 -235 -252q-74 0 -167 75q-92 74 -126 74q-28 0 -55 -28t-66 -105h-53z" />
<glyph unicode="&#xd2;" horiz-adv-x="1423" d="M102 565q0 300 179 512q196 232 503 232q260 0 422 -168t162 -428q0 -331 -211 -545q-190 -199 -471 -199q-260 0 -422 168t-162 428zM311 539q0 -252 123 -375q105 -105 273 -105q111 0 203 69t144 174q51 102 79 220q26 110 26 221q0 252 -123 375q-105 105 -272 105 q-112 0 -204 -69q-90 -68 -143 -174q-51 -102 -79 -220q-27 -114 -27 -221zM524 1769h205l135 -383h-45z" />
<glyph unicode="&#xd3;" horiz-adv-x="1423" d="M102 565q0 300 179 512q196 232 503 232q260 0 422 -168t162 -428q0 -331 -211 -545q-190 -199 -471 -199q-260 0 -422 168t-162 428zM311 539q0 -252 123 -375q105 -105 273 -105q111 0 203 69t144 174q51 102 79 220q26 110 26 221q0 252 -123 375q-105 105 -272 105 q-112 0 -204 -69q-90 -68 -143 -174q-51 -102 -79 -220q-27 -114 -27 -221zM709 1386l237 383h205l-397 -383h-45z" />
<glyph unicode="&#xd4;" horiz-adv-x="1423" d="M102 565q0 300 179 512q196 232 503 232q260 0 422 -168t162 -428q0 -331 -211 -545q-190 -199 -471 -199q-260 0 -422 168t-162 428zM311 539q0 -252 123 -375q105 -105 273 -105q111 0 203 69t144 174q51 102 79 220q26 110 26 221q0 252 -123 375q-105 105 -272 105 q-112 0 -204 -69q-90 -68 -143 -174q-51 -102 -79 -220q-27 -114 -27 -221zM567 1386l217 383h189l114 -383h-45l-176 263h-4l-250 -263h-45z" />
<glyph unicode="&#xd5;" horiz-adv-x="1423" d="M102 565q0 300 179 512q196 232 503 232q260 0 422 -168t162 -428q0 -331 -211 -545q-190 -199 -471 -199q-260 0 -422 168t-162 428zM311 539q0 -252 123 -375q105 -105 273 -105q111 0 203 69t144 174q51 102 79 220q26 110 26 221q0 252 -123 375q-105 105 -272 105 q-112 0 -204 -69q-90 -68 -143 -174q-51 -102 -79 -220q-27 -114 -27 -221zM518 1423q74 252 234 252q57 0 113 -37q63 -41 102 -74q46 -38 77 -38q29 0 56 28q26 27 67 105h54q-77 -252 -236 -252q-74 0 -167 75q-92 74 -126 74q-28 0 -55 -28t-66 -105h-53z" />
<glyph unicode="&#xd6;" horiz-adv-x="1423" d="M102 565q0 300 179 512q196 232 503 232q260 0 422 -168t162 -428q0 -331 -211 -545q-190 -199 -471 -199q-260 0 -422 168t-162 428zM311 539q0 -252 123 -375q105 -105 273 -105q111 0 203 69t144 174q51 102 79 220q26 110 26 221q0 252 -123 375q-105 105 -272 105 q-112 0 -204 -69q-90 -68 -143 -174q-51 -102 -79 -220q-27 -114 -27 -221zM483 1585q0 54 33 91q33 38 88 38t88 -38q33 -37 33 -91q0 -53 -33 -91t-88 -38t-88 38t-33 91zM893 1585q0 54 33 91q33 38 88 38t88 -38q33 -37 33 -91q0 -53 -33 -91t-88 -38t-88 38t-33 91z " />
<glyph unicode="&#xd7;" horiz-adv-x="983" d="M70 135l346 346l-346 344l77 76l345 -344l344 344l77 -76l-346 -344l346 -346l-77 -76l-344 344l-345 -344z" />
<glyph unicode="&#xd8;" horiz-adv-x="1423" d="M102 565q0 300 179 512q196 232 503 232q145 0 260 -56l91 156h96q-112 -194 -115 -197q122 -80 186 -207q66 -131 66 -292q0 -331 -211 -545q-190 -199 -471 -199q-145 0 -260 56l-102 -177h-95l125 215q-119 80 -185 210q-67 132 -67 292zM311 539q0 -237 109 -361 l569 979q-90 66 -225 66q-112 0 -204 -69q-90 -68 -143 -174q-51 -102 -79 -220q-27 -114 -27 -221zM483 123q90 -64 224 -64q111 0 203 69t144 174q51 102 79 220q26 110 26 221q0 237 -106 359z" />
<glyph unicode="&#xd9;" horiz-adv-x="1462" d="M168 1280h520l-6 -72l-113 -22q-47 -8 -53 -49l-86 -625q-10 -73 -10 -115q0 -161 90 -238q91 -77 244 -77q315 0 366 348l47 352q45 318 31 367q-16 36 -63 43l-97 16l-6 72h477l-6 -72l-98 -16q-40 -7 -62 -34q-19 -23 -39 -106q-21 -86 -47 -270l-51 -374 q-33 -220 -172 -329q-140 -110 -354 -110q-206 0 -333 99q-128 99 -128 290q0 51 8 121l92 658q6 39 -40 49l-105 22zM586 1769h205l135 -383h-45z" />
<glyph unicode="&#xda;" horiz-adv-x="1462" d="M168 1280h520l-6 -72l-113 -22q-47 -8 -53 -49l-86 -625q-10 -73 -10 -115q0 -161 90 -238q91 -77 244 -77q315 0 366 348l47 352q45 318 31 367q-16 36 -63 43l-97 16l-6 72h477l-6 -72l-98 -16q-40 -7 -62 -34q-19 -23 -39 -106q-21 -86 -47 -270l-51 -374 q-33 -220 -172 -329q-140 -110 -354 -110q-206 0 -333 99q-128 99 -128 290q0 51 8 121l92 658q6 39 -40 49l-105 22zM791 1386l237 383h205l-397 -383h-45z" />
<glyph unicode="&#xdb;" horiz-adv-x="1462" d="M168 1280h520l-6 -72l-113 -22q-47 -8 -53 -49l-86 -625q-10 -73 -10 -115q0 -161 90 -238q91 -77 244 -77q315 0 366 348l47 352q45 318 31 367q-16 36 -63 43l-97 16l-6 72h477l-6 -72l-98 -16q-40 -7 -62 -34q-19 -23 -39 -106q-21 -86 -47 -270l-51 -374 q-33 -220 -172 -329q-140 -110 -354 -110q-206 0 -333 99q-128 99 -128 290q0 51 8 121l92 658q6 39 -40 49l-105 22zM598 1386l217 383h189l114 -383h-45l-176 263h-4l-250 -263h-45z" />
<glyph unicode="&#xdc;" horiz-adv-x="1462" d="M168 1280h520l-6 -72l-113 -22q-47 -8 -53 -49l-86 -625q-10 -73 -10 -115q0 -161 90 -238q91 -77 244 -77q315 0 366 348l47 352q45 318 31 367q-16 36 -63 43l-97 16l-6 72h477l-6 -72l-98 -16q-40 -7 -62 -34q-19 -23 -39 -106q-21 -86 -47 -270l-51 -374 q-33 -220 -172 -329q-140 -110 -354 -110q-206 0 -333 99q-128 99 -128 290q0 51 8 121l92 658q6 39 -40 49l-105 22zM504 1585q0 54 33 91q33 38 88 38t88 -38q32 -36 32 -91t-32 -91q-33 -38 -88 -38t-88 38t-33 91zM913 1585q0 54 33 91q33 38 88 38t88 -38 q33 -37 33 -91q0 -53 -33 -91t-88 -38t-88 38t-33 91z" />
<glyph unicode="&#xdd;" horiz-adv-x="1214" d="M70 1280h528l-8 -72l-84 -12q-32 -4 -44 -24q-11 -18 -3 -52q7 -30 35 -88l180 -395h10l293 446q56 86 -39 107l-90 18l-6 72h485l-6 -72l-57 -14q-64 -17 -107 -45t-90 -98l-340 -502l-53 -406q-6 -41 41 -49l141 -22l6 -72h-598l8 72l152 22q46 6 53 49l53 406 l-245 502q-34 65 -60 91q-27 28 -71 42l-80 24zM666 1386l237 383h205l-397 -383h-45z" />
<glyph unicode="&#xde;" horiz-adv-x="1150" d="M23 0l6 72l112 22q48 8 54 49l137 994q6 38 -41 49l-103 22l-6 72h518l-6 -72l-112 -22q-48 -8 -54 -49l-14 -113h131q210 0 334 -97q125 -98 125 -255q0 -190 -156 -298t-373 -108q-71 0 -163 15l-21 -138q-6 -43 41 -49l148 -22l6 -72h-563zM424 362q74 -20 145 -20 q147 0 238 89q90 89 90 245q0 120 -81 195t-210 75h-102z" />
<glyph unicode="&#xdf;" horiz-adv-x="1042" d="M-313 -375q0 50 28 81q29 32 74 32q53 0 85 -41t38 -103l113 48q36 82 92 387l133 782l-178 8l6 60l194 47q106 485 433 485q132 0 215 -74q81 -72 81 -186q0 -228 -294 -295q110 -78 193 -208q81 -128 81 -275q0 -149 -116 -277q-115 -127 -259 -127q-93 0 -156 51 t-63 125q0 60 39 102t96 42q72 0 96 -49q25 -52 2 -105q-24 -55 -75 -72q22 -22 71 -22q89 0 152 77q63 76 63 189q2 139 -75 274q-77 136 -230 248l11 52q152 5 232 73q81 69 81 197q0 70 -44 123t-114 53q-116 0 -173 -99q-56 -97 -95 -310l-129 -685q-99 -517 -215 -639 q-98 -98 -234 -98q-67 0 -113 36t-46 93z" />
<glyph unicode="&#xe0;" d="M41 223q0 157 67 325q66 165 162 261q143 143 277 143q95 0 141 -143h12l41 141h146l-103 -346l-108 -495l59 -21l162 123l35 -37q-38 -75 -120 -140t-142 -65q-37 0 -97 22q-57 21 -57 44q0 31 111 379h-17q-128 -242 -208 -343q-81 -102 -166 -102q-82 0 -139 68 q-56 66 -56 186zM203 264q0 -155 104 -155q52 0 118 88q71 96 214 346l33 143q-40 63 -104 115q-65 53 -126 53q-32 0 -67 -35q-53 -53 -112 -236q-60 -186 -60 -319zM317 1427h205l135 -383h-45z" />
<glyph unicode="&#xe1;" d="M41 223q0 157 67 325q66 165 162 261q143 143 277 143q95 0 141 -143h12l41 141h146l-103 -346l-108 -495l59 -21l162 123l35 -37q-38 -75 -120 -140t-142 -65q-37 0 -97 22q-57 21 -57 44q0 31 111 379h-17q-128 -242 -208 -343q-81 -102 -166 -102q-82 0 -139 68 q-56 66 -56 186zM203 264q0 -155 104 -155q52 0 118 88q71 96 214 346l33 143q-40 63 -104 115q-65 53 -126 53q-32 0 -67 -35q-53 -53 -112 -236q-60 -186 -60 -319zM440 1044l238 383h205l-398 -383h-45z" />
<glyph unicode="&#xe2;" d="M41 223q0 157 67 325q66 165 162 261q143 143 277 143q95 0 141 -143h12l41 141h146l-103 -346l-108 -495l59 -21l162 123l35 -37q-38 -75 -120 -140t-142 -65q-37 0 -97 22q-57 21 -57 44q0 31 111 379h-17q-128 -242 -208 -343q-81 -102 -166 -102q-82 0 -139 68 q-56 66 -56 186zM203 264q0 -155 104 -155q52 0 118 88q71 96 214 346l33 143q-40 63 -104 115q-65 53 -126 53q-32 0 -67 -35q-53 -53 -112 -236q-60 -186 -60 -319zM289 1044l217 383h188l115 -383h-45l-176 263h-4l-250 -263h-45z" />
<glyph unicode="&#xe3;" d="M41 223q0 157 67 325q66 165 162 261q143 143 277 143q95 0 141 -143h12l41 141h146l-103 -346l-108 -495l59 -21l162 123l35 -37q-38 -75 -120 -140t-142 -65q-37 0 -97 22q-57 21 -57 44q0 31 111 379h-17q-128 -242 -208 -343q-81 -102 -166 -102q-82 0 -139 68 q-56 66 -56 186zM203 264q0 -155 104 -155q52 0 118 88q71 96 214 346l33 143q-40 63 -104 115q-65 53 -126 53q-32 0 -67 -35q-53 -53 -112 -236q-60 -186 -60 -319zM219 1081q73 252 234 252q55 0 113 -38q63 -41 102 -74q44 -37 77 -37q29 0 56 28q26 27 67 105h54 q-76 -252 -236 -252q-74 0 -167 75q-92 74 -126 74q-28 0 -55 -28t-66 -105h-53z" />
<glyph unicode="&#xe4;" d="M41 223q0 157 67 325q66 165 162 261q143 143 277 143q95 0 141 -143h12l41 141h146l-103 -346l-108 -495l59 -21l162 123l35 -37q-38 -75 -120 -140t-142 -65q-37 0 -97 22q-57 21 -57 44q0 31 111 379h-17q-128 -242 -208 -343q-81 -102 -166 -102q-82 0 -139 68 q-56 66 -56 186zM203 264q0 -155 104 -155q52 0 118 88q71 96 214 346l33 143q-40 63 -104 115q-65 53 -126 53q-32 0 -67 -35q-53 -53 -112 -236q-60 -186 -60 -319zM256 1243q0 53 33 91t88 38t88 -38t33 -91t-33 -91t-88 -38t-88 38t-33 91zM666 1243q0 55 32 91 q33 38 88 38t88 -38t33 -91t-33 -91t-88 -38t-88 38q-32 36 -32 91z" />
<glyph unicode="&#xe5;" d="M41 223q0 157 67 325q66 165 162 261q143 143 277 143q95 0 141 -143h12l41 141h146l-103 -346l-108 -495l59 -21l162 123l35 -37q-38 -75 -120 -140t-142 -65q-37 0 -97 22q-57 21 -57 44q0 31 111 379h-17q-128 -242 -208 -343q-81 -102 -166 -102q-82 0 -139 68 q-56 66 -56 186zM203 264q0 -155 104 -155q52 0 118 88q71 96 214 346l33 143q-40 63 -104 115q-65 53 -126 53q-32 0 -67 -35q-53 -53 -112 -236q-60 -186 -60 -319zM399 1243q1 77 52 131q50 53 131 53q82 0 132 -53t50 -131t-50 -131t-132 -53t-133 53t-50 131zM461 1243 q0 -53 33 -91t88 -38t88 38q32 36 32 91t-32 91q-33 38 -88 38t-88 -38t-33 -91z" />
<glyph unicode="&#xe6;" horiz-adv-x="1253" d="M41 264q0 164 56 305q57 144 153 240q143 143 276 143q67 0 110 -70t66 -161q76 118 149 174q71 55 171 55t159 -55q60 -56 60 -137q0 -91 -85 -152q-88 -63 -359 -198l-32 -16q-4 -2 -29 -14q-5 -2 -16.5 -8.5t-17.5 -9.5v-49q0 -98 52 -159q51 -60 127 -60 q74 0 243 121l27 -37q-91 -108 -164 -157q-74 -50 -168 -50q-119 0 -199 92q-79 91 -79 228v20q-89 -158 -179 -251q-86 -89 -143 -89q-84 0 -131 83t-47 212zM203 305q0 -81 22 -132q22 -52 56 -52q22 0 43 11q23 12 48 40q21 24 45 53q15 18 49 73q12 19 28 46t18 30 q5 8 12 20t18.5 32t19.5 35q31 54 46 82q12 21 49 88q-39 91 -106 156q-69 67 -133 67q-33 0 -68 -35q-48 -48 -98 -213q-49 -162 -49 -301zM705 420h4q236 123 311 191q76 69 76 149q0 34 -62 61t-102 27q-47 0 -72 -25q-39 -39 -84 -148q-43 -105 -71 -255z" />
<glyph unicode="&#xe7;" horiz-adv-x="784" d="M59 -504q344 44 344 191q0 94 -159 94q-62 0 -129 -12l6 41q24 21 30 27q17 17 56 53q26 24 63 61l27 22q-103 15 -170 104q-66 88 -66 212q0 153 66 305q67 153 181 254q116 102 247 102q96 0 162 -51q65 -50 65 -121q0 -49 -29 -82q-30 -34 -71 -34q-88 0 -88 81 q0 39 16 62q-10 15 -67 34q-56 19 -103 19q-16 0 -49 -33q-56 -56 -112 -217q-56 -160 -56 -297q0 -99 51 -159t127 -60q75 0 244 121l27 -37q-82 -94 -145 -142q-65 -49 -140 -61l-98 -90q114 0 181 -44t67 -122q0 -109 -127 -182t-340 -88z" />
<glyph unicode="&#xe8;" horiz-adv-x="774" d="M61 289q0 242 148 452q147 209 334 209q99 0 158 -55q61 -56 61 -137q0 -91 -85 -152q-85 -62 -360 -198l-94 -48v-49q0 -99 51 -159t127 -60q75 0 244 121l27 -37q-91 -108 -164 -157q-74 -50 -168 -50q-120 0 -200 92q-79 91 -79 228zM225 420h4q238 124 312 191 q75 68 75 149q0 34 -61 61t-102 27q-47 0 -72 -25q-39 -39 -84 -148t-72 -255zM283 1427h204l136 -383h-45z" />
<glyph unicode="&#xe9;" horiz-adv-x="774" d="M61 289q0 242 148 452q147 209 334 209q99 0 158 -55q61 -56 61 -137q0 -91 -85 -152q-85 -62 -360 -198l-94 -48v-49q0 -99 51 -159t127 -60q75 0 244 121l27 -37q-91 -108 -164 -157q-74 -50 -168 -50q-120 0 -200 92q-79 91 -79 228zM225 420h4q238 124 312 191 q75 68 75 149q0 34 -61 61t-102 27q-47 0 -72 -25q-39 -39 -84 -148t-72 -255zM426 1044l238 383h204l-397 -383h-45z" />
<glyph unicode="&#xea;" horiz-adv-x="774" d="M61 289q0 242 148 452q147 209 334 209q99 0 158 -55q61 -56 61 -137q0 -91 -85 -152q-85 -62 -360 -198l-94 -48v-49q0 -99 51 -159t127 -60q75 0 244 121l27 -37q-91 -108 -164 -157q-74 -50 -168 -50q-120 0 -200 92q-79 91 -79 228zM225 420h4q238 124 312 191 q75 68 75 149q0 34 -61 61t-102 27q-47 0 -72 -25q-39 -39 -84 -148t-72 -255zM264 1044l217 383h189l114 -383h-45l-176 263h-4l-250 -263h-45z" />
<glyph unicode="&#xeb;" horiz-adv-x="774" d="M61 289q0 242 148 452q147 209 334 209q99 0 158 -55q61 -56 61 -137q0 -91 -85 -152q-85 -62 -360 -198l-94 -48v-49q0 -99 51 -159t127 -60q75 0 244 121l27 -37q-91 -108 -164 -157q-74 -50 -168 -50q-120 0 -200 92q-79 91 -79 228zM221 1243q0 53 33 91t88 38 t88 -38t33 -91t-33 -91t-88 -38t-88 38t-33 91zM225 420h4q238 124 312 191q75 68 75 149q0 34 -61 61t-102 27q-47 0 -72 -25q-39 -39 -84 -148t-72 -255zM631 1243q0 53 33 91t88 38t88 -38q32 -36 32 -91t-32 -91q-33 -38 -88 -38t-88 38t-33 91z" />
<glyph unicode="&#xec;" horiz-adv-x="518" d="M27 696q40 89 117 172q76 82 137 82q22 0 61 -9t70 -26q30 -17 26 -30l-211 -776l60 -21l162 123l34 -37q-39 -76 -119 -140q-82 -65 -143 -65q-37 0 -94 24q-29 12 -42 22.5t-11 19.5l202 778l-59 10l-156 -164zM92 1427h205l135 -383h-45z" />
<glyph unicode="&#xed;" horiz-adv-x="518" d="M27 696q40 89 117 172q76 82 137 82q22 0 61 -9t70 -26q30 -17 26 -30l-211 -776l60 -21l162 123l34 -37q-39 -76 -119 -140q-82 -65 -143 -65q-37 0 -94 24q-29 12 -42 22.5t-11 19.5l202 778l-59 10l-156 -164zM215 1044l238 383h204l-397 -383h-45z" />
<glyph unicode="&#xee;" horiz-adv-x="518" d="M27 696q40 89 117 172q76 82 137 82q22 0 61 -9t70 -26q30 -17 26 -30l-211 -776l60 -21l162 123l34 -37q-39 -76 -119 -140q-82 -65 -143 -65q-37 0 -94 24q-29 12 -42 22.5t-11 19.5l202 778l-59 10l-156 -164zM74 1044l217 383h188l115 -383h-45l-176 263h-4 l-250 -263h-45z" />
<glyph unicode="&#xef;" horiz-adv-x="518" d="M27 696q40 89 117 172q76 82 137 82q22 0 61 -9t70 -26q30 -17 26 -30l-211 -776l60 -21l162 123l34 -37q-39 -76 -119 -140q-82 -65 -143 -65q-37 0 -94 24q-29 12 -42 22.5t-11 19.5l202 778l-59 10l-156 -164zM31 1243q0 55 32 91q33 38 89 38q55 0 88 -38 q32 -36 32 -91t-32 -91q-33 -38 -88 -38q-56 0 -89 38q-32 36 -32 91zM440 1243q0 53 33 91t88 38t88 -38t33 -91t-33 -91t-88 -38t-88 38t-33 91z" />
<glyph unicode="&#xf0;" horiz-adv-x="901" d="M66 371q0 213 131 397q130 182 313 182q138 0 195 -129q-21 200 -144 334l-328 -100l21 88l238 74q-76 57 -201 96l39 86q158 -50 274 -148l291 90l-21 -88l-202 -63q189 -197 194 -485q0 -286 -147 -511t-342 -225q-153 0 -233 110q-78 107 -78 292zM223 313 q0 -109 40 -192q41 -84 114 -84q67 0 129 74q62 73 93 150q31 76 48 149q25 122 25 215q0 105 -39 182q-39 76 -113 76q-63 0 -125 -71q-61 -70 -94 -145q-33 -74 -51 -143q-27 -107 -27 -211z" />
<glyph unicode="&#xf1;" horiz-adv-x="1038" d="M27 696q41 91 116 172q76 82 136 82q39 0 97 -21t58 -44q0 -42 -127 -510h19q193 413 282 502q73 73 160 73q53 0 98 -42t45 -99q0 -98 -84 -377q-17 -60 -34 -117q-30 -98 -38 -126q-12 -42 -26 -80l59 -21l162 123l35 -37q-38 -75 -120 -140t-142 -65q-33 0 -93 22 q-57 21 -57 44q0 45 105 381q80 260 80 299q0 33 -29 60q-30 28 -65 28q-88 0 -340 -527l-56 -286l-168 10l72 301l104 502l-57 10l-160 -154zM244 1081q74 252 233 252q56 0 114 -38t101 -74q44 -37 78 -37q28 0 55 28q28 30 68 105h53q-76 -252 -235 -252q-74 0 -167 75 q-92 74 -126 74q-29 0 -56 -28q-25 -26 -65 -105h-53z" />
<glyph unicode="&#xf2;" horiz-adv-x="901" d="M66 371q0 214 136 396q136 183 318 183q154 0 233 -109q78 -107 78 -292q0 -214 -136 -396q-137 -184 -318 -184q-153 0 -233 110q-78 107 -78 292zM223 313q0 -109 40 -192q41 -84 114 -84q67 0 129 74q62 73 93 150q31 76 48 149q25 122 25 215q0 105 -39 182 q-39 76 -113 76q-63 0 -125 -71q-61 -70 -94 -145q-33 -74 -51 -143q-27 -107 -27 -211zM305 1427h205l135 -383h-45z" />
<glyph unicode="&#xf3;" horiz-adv-x="901" d="M66 371q0 214 136 396q136 183 318 183q154 0 233 -109q78 -107 78 -292q0 -214 -136 -396q-137 -184 -318 -184q-153 0 -233 110q-78 107 -78 292zM223 313q0 -109 40 -192q41 -84 114 -84q67 0 129 74q62 73 93 150q31 76 48 149q25 122 25 215q0 105 -39 182 q-39 76 -113 76q-63 0 -125 -71q-61 -70 -94 -145q-33 -74 -51 -143q-27 -107 -27 -211zM449 1044l237 383h205l-397 -383h-45z" />
<glyph unicode="&#xf4;" horiz-adv-x="901" d="M66 371q0 214 136 396q136 183 318 183q154 0 233 -109q78 -107 78 -292q0 -214 -136 -396q-137 -184 -318 -184q-153 0 -233 110q-78 107 -78 292zM223 313q0 -109 40 -192q41 -84 114 -84q67 0 129 74q62 73 93 150q31 76 48 149q25 122 25 215q0 105 -39 182 q-39 76 -113 76q-63 0 -125 -71q-61 -70 -94 -145q-33 -74 -51 -143q-27 -107 -27 -211zM287 1044l217 383h188l115 -383h-45l-176 263h-4l-250 -263h-45z" />
<glyph unicode="&#xf5;" horiz-adv-x="901" d="M66 371q0 214 136 396q136 183 318 183q154 0 233 -109q78 -107 78 -292q0 -214 -136 -396q-137 -184 -318 -184q-153 0 -233 110q-78 107 -78 292zM223 313q0 -109 40 -192q41 -84 114 -84q67 0 129 74q62 73 93 150q31 76 48 149q25 122 25 215q0 105 -39 182 q-39 76 -113 76q-63 0 -125 -71q-61 -70 -94 -145q-33 -74 -51 -143q-27 -107 -27 -211zM229 1081q73 252 234 252q56 0 114 -38t101 -74q44 -37 78 -37q28 0 55 28q28 30 68 105h53q-76 -252 -236 -252q-74 0 -167 75q-92 74 -126 74q-28 0 -55 -28q-25 -26 -65 -105h-54z " />
<glyph unicode="&#xf6;" horiz-adv-x="901" d="M66 371q0 214 136 396q136 183 318 183q154 0 233 -109q78 -107 78 -292q0 -214 -136 -396q-137 -184 -318 -184q-153 0 -233 110q-78 107 -78 292zM223 313q0 -109 40 -192q41 -84 114 -84q67 0 129 74q62 73 93 150q31 76 48 149q25 122 25 215q0 105 -39 182 q-39 76 -113 76q-63 0 -125 -71q-61 -70 -94 -145q-33 -74 -51 -143q-27 -107 -27 -211zM264 1243q0 53 33 91t88 38t88 -38t33 -91t-33 -91t-88 -38t-88 38t-33 91zM674 1243q0 53 33 91t88 38t88 -38q32 -36 32 -91t-32 -91q-33 -38 -88 -38t-88 38t-33 91z" />
<glyph unicode="&#xf7;" horiz-adv-x="995" d="M84 426l6 109h817l6 -109h-829zM395 193q0 42 31 73t76 31q44 0 75 -31q29 -29 29 -73q0 -45 -29 -75q-30 -32 -75 -32q-46 0 -76 32q-31 33 -31 75zM395 766q0 44 30 75t75 31t75 -31q31 -33 31 -75t-31 -75q-30 -32 -75 -32t-75 32q-30 31 -30 75z" />
<glyph unicode="&#xf8;" horiz-adv-x="901" d="M-12 -264l180 313q-102 105 -102 322q0 214 136 396q136 183 318 183q84 0 148 -35l178 310h82l-203 -353q106 -106 106 -323q0 -214 -136 -396q-137 -184 -318 -184q-91 0 -152 37l-155 -270h-82zM223 313q0 -67 19 -137l376 653q-42 54 -98 54q-63 0 -125 -71 q-61 -70 -94 -145q-33 -74 -51 -143q-27 -107 -27 -211zM276 96q38 -59 101 -59q67 0 129 74q62 73 93 150q31 76 48 149q25 122 25 215q0 64 -17 127q-377 -656 -379 -656z" />
<glyph unicode="&#xf9;" horiz-adv-x="1038" d="M57 696q39 87 118 172q76 82 136 82q37 0 96 -21q58 -21 58 -44q0 -45 -105 -381q-79 -256 -79 -299q0 -34 28 -61q29 -27 66 -27q88 0 340 526l55 287l168 -10l-72 -302q-84 -445 -106 -509l59 -21l162 123l35 -37q-38 -75 -120 -140t-142 -65q-34 0 -94 22 q-56 21 -56 44q0 42 127 510h-18q-192 -411 -283 -502q-74 -74 -160 -74q-53 0 -98 42t-45 100q0 97 84 376q5 15 12 39t18 63t20 68t20 66.5t16.5 57.5t9.5 32l-59 10l-156 -164zM332 1427h205l135 -383h-45z" />
<glyph unicode="&#xfa;" horiz-adv-x="1038" d="M57 696q39 87 118 172q76 82 136 82q37 0 96 -21q58 -21 58 -44q0 -45 -105 -381q-79 -256 -79 -299q0 -34 28 -61q29 -27 66 -27q88 0 340 526l55 287l168 -10l-72 -302q-84 -445 -106 -509l59 -21l162 123l35 -37q-38 -75 -120 -140t-142 -65q-34 0 -94 22 q-56 21 -56 44q0 42 127 510h-18q-192 -411 -283 -502q-74 -74 -160 -74q-53 0 -98 42t-45 100q0 97 84 376q5 15 12 39t18 63t20 68t20 66.5t16.5 57.5t9.5 32l-59 10l-156 -164zM496 1044l237 383h205l-397 -383h-45z" />
<glyph unicode="&#xfb;" horiz-adv-x="1038" d="M57 696q39 87 118 172q76 82 136 82q37 0 96 -21q58 -21 58 -44q0 -45 -105 -381q-79 -256 -79 -299q0 -34 28 -61q29 -27 66 -27q88 0 340 526l55 287l168 -10l-72 -302q-84 -445 -106 -509l59 -21l162 123l35 -37q-38 -75 -120 -140t-142 -65q-34 0 -94 22 q-56 21 -56 44q0 42 127 510h-18q-192 -411 -283 -502q-74 -74 -160 -74q-53 0 -98 42t-45 100q0 97 84 376q5 15 12 39t18 63t20 68t20 66.5t16.5 57.5t9.5 32l-59 10l-156 -164zM334 1044l217 383h188l115 -383h-45l-176 263h-4l-250 -263h-45z" />
<glyph unicode="&#xfc;" horiz-adv-x="1038" d="M57 696q39 87 118 172q76 82 136 82q37 0 96 -21q58 -21 58 -44q0 -45 -105 -381q-79 -256 -79 -299q0 -34 28 -61q29 -27 66 -27q88 0 340 526l55 287l168 -10l-72 -302q-84 -445 -106 -509l59 -21l162 123l35 -37q-38 -75 -120 -140t-142 -65q-34 0 -94 22 q-56 21 -56 44q0 42 127 510h-18q-192 -411 -283 -502q-74 -74 -160 -74q-53 0 -98 42t-45 100q0 97 84 376q5 15 12 39t18 63t20 68t20 66.5t16.5 57.5t9.5 32l-59 10l-156 -164zM311 1243q0 53 33 91t88 38t88 -38t33 -91t-33 -91t-88 -38t-88 38t-33 91zM721 1243 q0 53 33 91t88 38t88 -38t33 -91t-33 -91t-88 -38t-88 38t-33 91z" />
<glyph unicode="&#xfd;" horiz-adv-x="878" d="M-221 -387q0 47 35 80q34 33 73 33q51 0 91 -40t38 -96l35 4l277 392l-101 26l15 801l-60 10l-155 -164l-35 37q39 87 118 172q76 82 136 82q38 0 98 -21q59 -21 59 -44l-24 -776h22l347 577v21q-107 41 -107 120q0 53 32 91q30 36 81 36q63 0 99 -38q36 -37 36 -103 q0 -52 -43 -137q-47 -93 -76 -136q-70 -105 -100 -149l-207 -295l-121 -229q-105 -197 -201 -294t-202 -97q-64 0 -112 39t-48 98zM436 1044l238 383h205l-398 -383h-45z" />
<glyph unicode="&#xfe;" horiz-adv-x="913" d="M-221 -504l4 72l115 22q44 7 55 50l328 1534q10 36 -13 47l-129 57l8 51l342 98l-112 -477l-107 -444h17q128 242 208 343t167 101q79 0 131 -85q53 -86 53 -210q0 -158 -62 -308t-157 -245q-135 -135 -277 -135q-94 0 -160 80h-2l-79 -407q-6 -43 38 -50l138 -22l8 -72 h-514zM217 197q136 -154 213 -154q29 0 64 35q65 65 128 233q62 165 62 303q0 87 -24 142t-70 55q-52 0 -118 -88q-71 -96 -214 -346z" />
<glyph unicode="&#xff;" horiz-adv-x="878" d="M-221 -387q0 47 35 80q34 33 73 33q51 0 91 -40t38 -96l35 4l277 392l-101 26l15 801l-60 10l-155 -164l-35 37q39 87 118 172q76 82 136 82q38 0 98 -21q59 -21 59 -44l-24 -776h22l347 577v21q-107 41 -107 120q0 53 32 91q30 36 81 36q63 0 99 -38q36 -37 36 -103 q0 -52 -43 -137q-47 -93 -76 -136q-70 -105 -100 -149l-207 -295l-121 -229q-105 -197 -201 -294t-202 -97q-64 0 -112 39t-48 98zM231 1243q0 53 33 91t88 38t88 -38t33 -91t-33 -91t-88 -38t-88 38t-33 91zM641 1243q0 53 33 91t88 38t88 -38t33 -91t-33 -91t-88 -38 t-88 38t-33 91z" />
<glyph unicode="&#x152;" horiz-adv-x="1851" d="M102 555q0 299 203 500q102 102 262 164q158 61 355 61h938l-72 -381h-80l-22 199q-1 22 -7 41q-4 15 -21 27q-20 15 -39 19q-20 4 -73 9q-35 3 -109 5q-39 1 -163 1h-62l-69 -510h43q117 0 163 13t68 47l43 122h80l-104 -440h-78l10 131q2 21 -10 30q-13 10 -55 14 q-48 5 -132 5h-38l-72 -532h49q221 0 301 7q87 8 121 27t55 68l80 189h111l-88 -371h-979q-281 0 -445 153t-164 402zM315 545q0 -212 112 -339q111 -126 327 -126h110l146 1089l-142 31q-246 -7 -399 -182q-154 -175 -154 -473z" />
<glyph unicode="&#x153;" horiz-adv-x="1347" d="M66 369q0 215 131 399q130 182 323 182q208 0 268 -207q135 207 328 207q100 0 159 -55q60 -56 60 -137q0 -91 -85 -152q-88 -63 -359 -198l-32 -16q-4 -2 -29 -14q-5 -3 -16 -9t-17 -9v-49q0 -99 51 -159t127 -60q75 0 244 121l26 -37q-91 -108 -164 -157 q-74 -50 -168 -50q-173 0 -233 166q-124 -166 -303 -166q-153 0 -233 109q-78 106 -78 291zM223 313q0 -109 40 -192q41 -84 114 -84q67 0 129 74q62 73 93 150q31 76 48 149q25 122 25 215q0 105 -39 182q-39 76 -113 76q-63 0 -125 -71q-61 -70 -94 -145q-33 -74 -51 -143 q-27 -107 -27 -211zM799 420h4q236 123 311 191q76 69 76 149q0 34 -62 61t-102 27q-47 0 -72 -25q-39 -39 -84 -148q-43 -105 -71 -255z" />
<glyph unicode="&#x178;" horiz-adv-x="1214" d="M70 1280h528l-8 -72l-84 -12q-32 -4 -44 -24q-11 -18 -3 -52q7 -30 35 -88l180 -395h10l293 446q56 86 -39 107l-90 18l-6 72h485l-6 -72l-57 -14q-64 -17 -107 -45t-90 -98l-340 -502l-53 -406q-6 -41 41 -49l141 -22l6 -72h-598l8 72l152 22q46 6 53 49l53 406 l-245 502q-34 65 -60 91q-27 28 -71 42l-80 24zM420 1585q0 54 33 91q33 38 88 38t88 -38q33 -37 33 -91q0 -53 -33 -91t-88 -38t-88 38t-33 91zM829 1585q0 54 33 91q33 38 88 38t88 -38q33 -37 33 -91q0 -53 -33 -91t-88 -38t-88 38t-33 91z" />
<glyph unicode="&#x2c6;" horiz-adv-x="819" d="M205 1044l217 383h188l115 -383h-45l-176 263h-4l-250 -263h-45z" />
<glyph unicode="&#x2dc;" horiz-adv-x="819" d="M135 1081q74 252 234 252q55 0 113 -38q63 -41 102 -74q44 -37 78 -37q28 0 55 28q26 27 67 105h54q-76 -252 -236 -252q-74 0 -167 75q-92 74 -126 74q-28 0 -55 -28t-66 -105h-53z" />
<glyph unicode="&#x2000;" horiz-adv-x="884" />
<glyph unicode="&#x2001;" horiz-adv-x="1769" />
<glyph unicode="&#x2002;" horiz-adv-x="884" />
<glyph unicode="&#x2003;" horiz-adv-x="1769" />
<glyph unicode="&#x2004;" horiz-adv-x="589" />
<glyph unicode="&#x2005;" horiz-adv-x="442" />
<glyph unicode="&#x2006;" horiz-adv-x="294" />
<glyph unicode="&#x2007;" horiz-adv-x="294" />
<glyph unicode="&#x2008;" horiz-adv-x="221" />
<glyph unicode="&#x2009;" horiz-adv-x="353" />
<glyph unicode="&#x200a;" horiz-adv-x="98" />
<glyph unicode="&#x2010;" horiz-adv-x="671" d="M68 426l6 109h528l6 -109h-540z" />
<glyph unicode="&#x2011;" horiz-adv-x="671" d="M68 426l6 109h528l6 -109h-540z" />
<glyph unicode="&#x2012;" horiz-adv-x="671" d="M68 426l6 109h528l6 -109h-540z" />
<glyph unicode="&#x2013;" horiz-adv-x="962" d="M59 426l7 109h843l6 -109h-856z" />
<glyph unicode="&#x2014;" horiz-adv-x="1925" d="M59 426l7 109h1806l6 -109h-1819z" />
<glyph unicode="&#x2018;" horiz-adv-x="475" d="M113 938q0 131 127 248t317 190l31 -41q-98 -46 -181 -132t-83 -165q0 -20 6 -40t16 -34q14 -20 22 -30q13 -16 23 -25q4 -4 12 -9.5t10 -7.5q4 -3 9 -7t6 -4l6 -7q-12 -48 -54 -78t-97 -30q-74 0 -122 50t-48 122z" />
<glyph unicode="&#x2019;" horiz-adv-x="475" d="M90 805q85 46 148 116q63 71 63 144q0 32 -14 60q-16 33 -35 50q-17 16 -41 33q-26 18 -35 23l-14 8q0 48 43 79q44 32 98 32q71 0 127 -57q55 -56 55 -136q0 -199 -346 -391z" />
<glyph unicode="&#x201a;" horiz-adv-x="475" d="M-61 -305q83 45 147 116q64 72 64 144q0 30 -15 60q-16 33 -35 50q-17 16 -41 33q-28 20 -34 23l-15 8q0 48 43 79q44 32 99 32q72 0 127 -57q55 -56 55 -136q0 -199 -346 -391z" />
<glyph unicode="&#x201c;" horiz-adv-x="888" d="M113 958q0 200 346 392l49 -39q-85 -46 -148 -116q-63 -71 -63 -144q0 -33 14 -61q15 -31 35 -49q22 -20 41 -34q21 -15 35 -22l14 -8q0 -48 -43 -79q-44 -32 -98 -32q-72 0 -127 56t-55 136zM555 958q0 200 346 392l49 -39q-83 -45 -147 -116q-64 -72 -64 -144 q0 -31 15 -61q16 -33 34 -49q22 -20 41 -34q21 -15 35 -22l15 -8q0 -48 -43 -79q-44 -32 -99 -32q-72 0 -127 56t-55 136z" />
<glyph unicode="&#x201d;" horiz-adv-x="888" d="M104 805q85 46 148 116q63 71 63 144q0 32 -14 60q-16 33 -35 50q-17 16 -41 33q-26 18 -35 23l-14 8q0 48 43 79q44 32 98 32q71 0 127 -57q56 -58 56 -136q0 -199 -346 -391zM547 805q83 45 147 116q64 72 64 144q0 30 -15 60q-17 34 -34 50t-41 33q-26 18 -35 23 l-15 8q0 47 44 79t98 32q72 0 127 -57q55 -56 55 -136q0 -199 -346 -391z" />
<glyph unicode="&#x201e;" horiz-adv-x="888" d="M-47 -305q83 45 147 116q64 72 64 144q0 32 -14 60q-16 33 -35 50q-17 16 -41 33q-26 18 -35 23l-14 8q0 48 43 79q44 32 98 32q72 0 127 -57q55 -56 55 -136q0 -199 -346 -391zM395 -305q85 46 148 116q63 71 63 144q0 32 -14 60q-16 33 -35 50q-17 16 -41 33 q-26 18 -35 23l-14 8q0 48 43 79q44 32 98 32q72 0 127 -57q56 -58 56 -136q0 -199 -347 -391z" />
<glyph unicode="&#x2022;" horiz-adv-x="931" d="M72 475q0 46 43 147q44 103 73 132t134 72q102 42 145 42q44 0 146 -42t132 -72q32 -32 73 -132q42 -102 42 -147q0 -43 -41 -146q-40 -100 -74 -134q-31 -31 -133 -73t-147 -42q-44 0 -146 42q-101 42 -131 73q-29 32 -73 135q-43 101 -43 145z" />
<glyph unicode="&#x2026;" horiz-adv-x="1425" d="M55 106q0 56 40 95q41 39 100 39t97 -39q38 -40 38 -95q0 -56 -39 -96q-39 -41 -96 -41q-59 0 -100 41q-40 40 -40 96zM530 106q0 56 40 95q41 39 100 39q60 0 97 -39q38 -40 38 -95q0 -56 -39 -96q-39 -41 -96 -41q-59 0 -100 41q-40 40 -40 96zM1006 106q0 56 40 95 t99 39t97 -39q38 -40 38 -95q0 -56 -39 -96q-39 -41 -96 -41q-58 0 -99 41q-40 40 -40 96z" />
<glyph unicode="&#x202f;" horiz-adv-x="353" />
<glyph unicode="&#x2039;" horiz-adv-x="614" d="M57 414v86l498 319l14 -41l-364 -327l280 -308l-24 -41z" />
<glyph unicode="&#x203a;" horiz-adv-x="614" d="M47 135l334 318l-250 317l25 41l403 -311l-12 -94l-486 -312z" />
<glyph unicode="&#x205f;" horiz-adv-x="442" />
<glyph unicode="&#x20ac;" horiz-adv-x="1032" d="M12 436l6 84h134v23q0 70 10 143h-117l6 84h127q60 236 224 379t368 143q150 0 230 -52q81 -52 81 -130q0 -51 -25 -85t-75 -34q-53 0 -88 51q-34 51 -39 119q-55 43 -149 43q-137 0 -231 -109q-95 -110 -128 -325h412l6 -84h-426q-6 -66 -6 -137v-29h393l6 -84h-393 q23 -165 106 -257q84 -93 224 -93q130 0 278 119l25 -51q-67 -84 -163 -134q-98 -51 -202 -51q-193 0 -307 131q-114 130 -141 336h-146z" />
<glyph unicode="&#x2122;" horiz-adv-x="1878" d="M109 1001l14 279h678v-279h-62l-12 39q-38 115 -72 148q-35 33 -137 33h-2v-607q0 -22 25 -28l90 -13l2 -55h-371l4 55l90 13q27 6 27 28v607h-2q-85 0 -126 -36q-39 -34 -77 -145l-14 -39h-55zM897 518l4 55l62 11q14 1 22 15t15 59q9 53 10 139l12 385q0 25 -25 30 l-71 13l-4 55h299l139 -569h20l185 569h303l-4 -55l-70 -13q-29 -6 -29 -30l9 -467q1 -121 41 -127l61 -15l4 -55h-334l2 55l62 15q17 5 21 27q4 24 3 100l-8 475h-20l-220 -647h-102l-174 653h-20l-13 -399q-4 -132 -1 -171q3 -34 24 -42l65 -11l2 -55h-270z" />
<glyph unicode="&#x25fc;" horiz-adv-x="952" d="M0 0v952h952v-952h-952z" />
</font>
</defs>
</svg>
