<?xml version="1.0" standalone="no"?>
<!DOCTYPE svg PUBLIC "-//W3C//DTD SVG 1.1//EN" "http://www.w3.org/Graphics/SVG/1.1/DTD/svg11.dtd" >
<svg xmlns="http://www.w3.org/2000/svg" xmlns:xlink="http://www.w3.org/1999/xlink" version="1.1">
<metadata></metadata>
<defs>
<font id="freighttextfreighttextproBdIt" horiz-adv-x="1464" >
<font-face units-per-em="2048" ascent="1638" descent="-410" />
<missing-glyph horiz-adv-x="466" />
<glyph unicode="&#xfb01;" horiz-adv-x="1101" d="M-360 -340q0 57 33 90q35 35 85 35q64 0 105 -48q41 -49 47 -120l106 33q46 115 80 346l123 790l-178 15l6 69l197 64q38 222 170 350q141 146 377 146q115 0 185 -56q68 -55 68 -139q0 -56 -36 -95q-37 -40 -93 -40q-62 0 -103 56t-58 142l-191 -26q-58 -138 -92 -354 h242q62 43 112 43q38 0 111 -52q71 -50 65 -75l-186 -689l37 -18l168 119l35 -45q-50 -88 -135 -160q-84 -72 -158 -72q-38 0 -107 51t-63 74l184 694l-16 13h-314l-118 -611q-88 -439 -230 -587q-107 -107 -256 -107q-86 0 -144 46t-58 118z" />
<glyph unicode="&#xfb02;" horiz-adv-x="1114" d="M-360 -340q0 57 33 90q35 35 85 35q64 0 105 -48q41 -49 47 -120l110 33q50 114 80 346l115 790l-174 15l6 69l197 64q38 222 170 350q141 146 377 146q95 0 163 -41l158 38l-276 -1282l38 -18l166 119l37 -45q-52 -89 -136 -161q-83 -71 -157 -71q-37 0 -104 51 q-68 52 -64 74l146 707h-316l-118 -611q-88 -439 -230 -587q-107 -107 -256 -107q-86 0 -144 46t-58 118zM471 918h315l45 210q-54 44 -77 170l-191 -26q-58 -138 -92 -354z" />
<glyph unicode="&#xfb03;" horiz-adv-x="1644" d="M-360 -340q0 57 33 90q35 35 85 35q64 0 105 -48q41 -49 47 -120l106 33q46 115 80 346l123 790l-178 15l6 69l197 64q38 222 164 344q72 69 146 103t187 34q81 0 140 -34t86 -87q142 136 366 136q116 0 186 -56q68 -55 68 -139q0 -55 -37 -95t-92 -40q-62 0 -103 56 q-43 58 -59 142l-194 -26q-50 -121 -88 -354h241q62 43 113 43q38 0 111 -52q71 -50 65 -75l-186 -689l37 -18l168 119l34 -45q-50 -88 -135 -160q-84 -72 -157 -72q-38 0 -107 51t-63 74l184 694l-16 13h-314l-108 -549q-88 -440 -230 -588q-105 -106 -248 -106 q-83 0 -142 45q-58 45 -58 116q0 57 34 92t85 35q63 0 103 -49t46 -121l100 35q46 120 80 344l111 746h-316l-118 -611q-88 -439 -230 -587q-107 -107 -256 -107q-86 0 -144 46t-58 118zM471 918h315q21 112 48 180q-53 11 -88 65q-36 55 -48 129l-149 -24 q-49 -161 -78 -350z" />
<glyph unicode="&#xfb04;" horiz-adv-x="1656" d="M-360 -340q0 57 33 90q35 35 85 35q64 0 105 -48q41 -49 47 -120l106 33q46 115 80 346l123 790l-178 15l6 69l197 64q38 222 164 344q72 69 146 103t187 34q81 0 140 -34t86 -87q142 136 366 136q96 0 164 -41l158 38l-277 -1282l39 -18l166 119l37 -45 q-52 -89 -136 -161q-83 -71 -157 -71q-37 0 -104 51q-68 52 -64 74l146 707h-316l-108 -549q-88 -440 -230 -588q-105 -106 -248 -106q-83 0 -142 45q-58 45 -58 116q0 57 34 92t85 35q63 0 103 -49t46 -121l100 35q46 120 80 344l111 746h-316l-118 -611 q-88 -439 -230 -587q-107 -107 -256 -107q-86 0 -144 46t-58 118zM471 918h315q21 112 48 180q-53 11 -88 65q-36 55 -48 129l-149 -24q-49 -161 -78 -350zM1014 918h315l45 210q-51 44 -78 170l-194 -26q-50 -121 -88 -354z" />
<glyph horiz-adv-x="0" />
<glyph unicode="&#xd;" horiz-adv-x="681" />
<glyph unicode=" "  horiz-adv-x="466" />
<glyph unicode="&#x09;" horiz-adv-x="466" />
<glyph unicode="&#xa0;" horiz-adv-x="466" />
<glyph unicode="!" horiz-adv-x="602" d="M109 111q0 59 41 100t102 41q60 0 100 -42q41 -43 41 -99q0 -57 -41 -101q-40 -43 -100 -43q-62 0 -102 42q-41 43 -41 102zM266 416l8 792q0 47 35 74t92 27h9q74 0 111 -32t20 -85l-224 -778q-5 -15 -27 -14q-24 2 -24 16z" />
<glyph unicode="&#x22;" horiz-adv-x="778" d="M61 825l228 496h2l186 -64l-323 -432h-93zM414 825l227 496h2l184 -64l-323 -432h-90z" />
<glyph unicode="#" horiz-adv-x="1189" d="M41 362l2 99h281l92 354h-256l4 96h280l103 381h100l-100 -381h319l103 381h98l-100 -381h256l-4 -96h-281l-92 -354h256l-2 -99h-283l-100 -374h-99l99 374h-322l-100 -374h-100l100 374h-254zM424 461h324l90 354h-322z" />
<glyph unicode="$" horiz-adv-x="1103" d="M47 37l35 393l131 -2l63 -307q36 -19 89 -31l122 453q-169 84 -248 169t-79 230q0 154 138 259q139 106 335 106q35 0 57 -2l58 206h94l-58 -215q84 -12 172 -36l113 34l-55 -420l-129 5l-43 274q-31 14 -88 29l-111 -410q169 -90 256 -175q84 -83 84 -222 q0 -185 -143 -295q-144 -111 -363 -111q-27 0 -49 2l-84 -311h-94l84 315q-122 15 -287 62zM399 1040q0 -128 162 -227l103 385q-22 2 -54 2q-87 0 -149 -47t-62 -113zM455 76q22 -2 49 -2q114 0 176 55q64 56 65 147q0 70 -44 120q-45 52 -132 106z" />
<glyph unicode="%" horiz-adv-x="1527" d="M82 -31l1290 1340h121l-1290 -1340h-121zM102 946q0 155 110 267t263 112q139 0 231 -82q93 -83 93 -219q0 -159 -110 -271t-267 -112q-135 0 -227 84q-93 85 -93 221zM201 950q0 -101 65 -162t164 -61q114 0 190 81q76 80 76 196q0 102 -64 166q-65 65 -165 65 q-110 0 -188 -86q-78 -85 -78 -199zM791 254q0 161 107 271q109 112 265 112q137 0 228 -82q92 -83 92 -219q0 -158 -111 -270q-111 -113 -266 -113q-139 0 -227 82t-88 219zM889 262q0 -101 64 -162t161 -61q113 0 192 85q78 84 78 200q0 96 -66 159q-67 64 -163 64 q-110 0 -188 -86q-78 -85 -78 -199z" />
<glyph unicode="&#x26;" horiz-adv-x="1357" d="M4 291q0 154 107 250q108 97 247 127v4q-141 130 -141 282q0 160 133 257q134 98 307 98q161 0 263 -75t102 -196q0 -240 -381 -325v-4l260 -277h4l217 195v4q-82 43 -82 119q0 58 42 95q43 38 104 38q68 0 111 -45q44 -46 44 -109q0 -88 -73 -160q-71 -69 -232 -143 l-86 -45l312 -332l-250 -96l-246 287h-4q-230 -271 -469 -271q-123 0 -206 92t-83 230zM238 352q0 -86 52 -137t134 -51q118 0 287 123l-301 336q-172 -123 -172 -271zM457 1030q0 -86 28 -141q26 -51 99 -127q200 116 200 270q0 79 -41 135t-112 56q-78 0 -126 -56 q-48 -55 -48 -137z" />
<glyph unicode="'" horiz-adv-x="428" d="M61 825l228 496h2l186 -64l-323 -432h-93z" />
<glyph unicode="(" horiz-adv-x="808" d="M184 430q0 171 54 339q52 162 138 281q83 116 177 200q92 83 182 128l56 -80q-86 -47 -165 -123q-83 -80 -158 -188q-76 -109 -122 -255q-47 -149 -47 -302q0 -297 155 -535q155 -237 337 -333l-56 -80q-92 46 -182 127q-95 85 -177 198q-85 117 -138 281 q-54 168 -54 342z" />
<glyph unicode=")" horiz-adv-x="808" d="M18 -440q113 62 221 176q105 111 189 302q82 186 82 392q0 153 -47 302q-46 146 -122 255q-75 108 -158 188q-79 76 -165 123l60 80q89 -44 180 -128q91 -83 175 -200q86 -119 138 -281q54 -168 54 -339q0 -174 -54 -342q-53 -164 -138 -281q-83 -114 -175 -198 q-89 -81 -180 -127z" />
<glyph unicode="*" horiz-adv-x="724" d="M141 772l33 123l215 57v41l-215 60l-33 121l29 36l127 -4l111 -192l32 10l-10 225l102 68l43 -14l39 -117l-149 -172l20 -27l209 84l99 -78v-45l-99 -76l-209 84l-20 -26l147 -172l-39 -117l-43 -14l-102 69l10 228l-30 8l-111 -191l-125 -4z" />
<glyph unicode="+" horiz-adv-x="983" d="M59 422l7 117h368v374h117v-374h367l6 -117h-373v-373h-117v373h-375z" />
<glyph unicode="," horiz-adv-x="475" d="M-78 -301q97 56 162 130q63 72 63 144q0 35 -14 63q-15 30 -35 50t-41 35q-23 17 -34 22q-15 7 -15 11q0 48 48 89q47 40 110 40q83 0 138 -61q54 -60 54 -144q0 -227 -385 -428z" />
<glyph unicode="-" horiz-adv-x="681" d="M68 440l6 123h538l6 -123h-550z" />
<glyph unicode="." horiz-adv-x="475" d="M37 127q0 66 46 112t114 46q67 0 112 -46q45 -47 45 -112t-46 -112q-46 -48 -111 -48q-67 0 -114 47q-46 46 -46 113z" />
<glyph unicode="/" horiz-adv-x="571" d="M8 -434l443 1796h108l-442 -1796h-109z" />
<glyph unicode="0" horiz-adv-x="1052" d="M78 414q0 235 135 412q136 178 344 178q177 0 292 -121q116 -122 116 -326q0 -232 -135 -411q-134 -177 -345 -177q-175 0 -291 120q-116 121 -116 325zM248 414q0 -127 69 -208t175 -81q101 0 173 75q73 76 101 169q29 96 29 188q0 126 -71 209q-70 82 -173 82 q-102 0 -174 -75q-73 -76 -101 -169t-28 -190z" />
<glyph unicode="1" horiz-adv-x="780" d="M43 0l12 86l133 23q49 6 54 47l88 663l-217 27l16 69l465 91l-113 -850q-5 -41 41 -47l135 -23v-86h-614z" />
<glyph unicode="2" horiz-adv-x="964" d="M14 0l6 150q25 16 100 66q24 16 55 37.5t39 26.5q38 25 82 56q48 34 77 56q12 9 62 51q33 27 55 53q22 25 39 49q21 30 28 52q9 30 10 52q4 83 -46 136t-142 55q-115 6 -266 -109l-17 57q87 93 212 154q126 62 243 57q132 -5 212 -77q81 -73 73 -191q-1 -52 -32 -105 q-30 -53 -64 -91q-37 -41 -106 -92q-64 -47 -120 -81q-38 -23 -148 -88q-135 -79 -149 -88l-2 -10h66q271 0 342 14q76 15 110 70l58 86h88l-115 -346h-750z" />
<glyph unicode="3" horiz-adv-x="892" d="M-90 -225q0 51 37 88t88 37q71 0 111 -63q40 -62 40 -138q22 -6 47 -6q125 0 208 92t83 217q0 107 -64 174q-65 68 -171 68q-54 0 -150 -29l-26 64q230 124 299 182q114 96 114 201q0 85 -55 131q-56 47 -139 47q-110 0 -269 -111l-18 59q213 213 451 213q122 0 212 -65 q91 -66 91 -182q0 -75 -40 -139q-39 -63 -114 -116q-78 -55 -130 -83q-73 -39 -138 -68v-10q46 14 108 14q122 0 208 -77q85 -76 85 -199q0 -130 -91 -243t-222 -175q-129 -61 -258 -61q-43 0 -90 9q-50 10 -95 28q-49 20 -80 57q-32 38 -32 84z" />
<glyph unicode="4" horiz-adv-x="1071" d="M-14 152l805 864l102 -23l-107 -821h246l-31 -113h-231l-55 -436h-228l56 436h-553zM129 172h430l80 535h-10z" />
<glyph unicode="5" horiz-adv-x="948" d="M-86 -231q0 53 36 91t87 38q75 0 111 -59q36 -58 34 -136q49 -20 99 -20q111 0 186 74q76 75 76 184q0 79 -44 150t-123 125q-80 54 -144 87q-71 37 -148 68l240 604h577l-35 -213h-514l-88 -217q498 -195 498 -498q0 -201 -161 -329t-365 -128q-65 0 -133 14 q-69 14 -128 56q-61 43 -61 109z" />
<glyph unicode="6" horiz-adv-x="1107" d="M82 455q0 224 145 426q145 201 385 332q241 131 508 155l37 -76q-307 -69 -520 -230q-211 -160 -301 -398l16 -5q79 93 173 148t190 55q129 0 219 -100t90 -264q0 -219 -161 -374t-351 -155q-186 0 -308 134t-122 352zM319 360q0 -133 54 -219q53 -84 145 -84 q105 0 182 122q76 121 76 292q0 120 -53 193q-52 71 -127 71q-142 0 -244 -178q-33 -99 -33 -197z" />
<glyph unicode="7" horiz-adv-x="974" d="M23 -377l749 1151l2 6h-184q-220 0 -273 -9q-52 -9 -79 -50l-78 -123h-78l98 377h791v-86l-799 -1266h-149z" />
<glyph unicode="8" horiz-adv-x="1083" d="M70 299q0 130 88 212q91 85 223 114v6q-199 122 -199 297q-1 169 129 274q131 105 310 105q165 0 284 -83t119 -233q-1 -224 -287 -301v-6q242 -144 242 -334q0 -176 -140 -277q-141 -102 -327 -102q-174 0 -308 87t-134 241zM301 301q0 -110 65 -178t175 -68 q95 0 154 50t59 147q0 52 -21 99q-21 46 -76 92q-58 48 -79 63q-5 4 -99 61q-3 3 -7 5q-1 1 -3.5 2.5t-3.5 2.5q-7 5 -8 5q-156 -102 -156 -281zM406 1028q0 -54 20 -95q22 -45 67 -83q49 -41 76 -60q25 -18 93 -59q133 85 133 260q0 97 -52 166q-51 68 -145 68 q-86 0 -140 -54q-52 -52 -52 -143z" />
<glyph unicode="9" horiz-adv-x="1107" d="M-57 -317q307 67 519 227q212 159 302 389l-16 4q-76 -90 -174 -147q-95 -56 -189 -56q-127 0 -218 105q-91 104 -91 270q0 219 161 374t351 155q187 0 309 -134q121 -133 121 -350q0 -222 -146 -427q-145 -204 -385 -334q-239 -130 -507 -154zM324 502q0 -122 54 -198 q54 -77 128 -77q140 0 242 179q32 108 32 206q0 134 -53 219q-53 84 -143 84q-108 0 -184 -121t-76 -292z" />
<glyph unicode=":" horiz-adv-x="475" d="M37 127q0 66 46 112t114 46q67 0 112 -46q45 -47 45 -112t-46 -112q-46 -48 -111 -48q-67 0 -114 47q-46 46 -46 113zM121 748q0 64 47 111q46 46 115 46q64 0 111 -47q46 -46 46 -110q0 -66 -45 -113t-112 -47q-70 0 -116 46t-46 114z" />
<glyph unicode=";" horiz-adv-x="475" d="M-78 -311q97 56 162 130q63 72 63 144q0 35 -14 63q-15 30 -35 50t-41 35q-23 17 -34 22q-15 7 -15 10q0 48 48 89q47 40 110 40q84 0 138 -60t54 -144q0 -227 -385 -428zM123 748q0 65 46 111t114 46q64 0 111 -47q46 -46 46 -110q0 -66 -45 -113t-112 -47t-114 47 q-46 46 -46 113z" />
<glyph unicode="&#x3c;" horiz-adv-x="983" d="M53 451v59l832 385l28 -107l-667 -305v-2l667 -307l-28 -106z" />
<glyph unicode="=" horiz-adv-x="983" d="M80 248l6 117h811l6 -117h-823zM80 713h823l-6 -117h-811z" />
<glyph unicode="&#x3e;" horiz-adv-x="983" d="M70 174l667 307v2l-667 305l28 107l832 -385v-59l-832 -383z" />
<glyph unicode="?" horiz-adv-x="794" d="M119 111q0 59 41 100t102 41q60 0 100 -42q41 -43 41 -99q0 -57 -41 -101q-40 -43 -100 -43q-62 0 -102 42q-41 43 -41 102zM180 586q0 55 25 100q23 42 73 73q47 29 91 46q46 17 104 33q139 40 166 63q20 17 20 39q0 59 -88 104q-90 46 -211 46q-54 0 -129 -13 q-30 33 -30 78q0 67 53 111q52 43 147 43q159 0 278 -108q118 -108 118 -257q0 -71 -25 -129q-24 -55 -71 -90q-48 -36 -87 -53q-48 -22 -100 -37q-2 0 -6.5 -1.5l-12 -4l-13.5 -4.5q-5 -1 -31 -12q-4 -2 -28 -9q-18 -5 -27 -11q-15 -9 -21 -12q-16 -8 -20 -15 q-5 -8 -12 -15q-6 -6 -10 -19q-3 -10 -3 -22q0 -66 69 -129l-100 2q-48 34 -83 88q-36 55 -36 115z" />
<glyph unicode="@" horiz-adv-x="1785" d="M88 522q11 345 259 586q250 242 599 238q339 -6 560 -207t210 -523q-8 -237 -148 -392q-141 -156 -335 -156q-131 0 -193 53q-61 52 -53 119q0 44 70 256h-27q-147 -246 -209 -312q-76 -82 -147 -82q-94 0 -160 68q-65 66 -65 164q0 127 68 278q70 155 165 250 q117 117 244 117q143 0 190 -160h21l55 146h178l-123 -344l-71 -355q-8 -38 28 -64q39 -28 103 -28q129 0 219 127q90 128 96 311q10 288 -182 467q-192 178 -502 183q-302 4 -524 -214q-221 -218 -232 -520q-7 -325 194 -532t509 -207q119 0 260 41l22 -76 q-147 -51 -293 -51q-337 0 -567 235q-230 234 -219 584zM662 389q0 -58 29 -94q30 -37 69 -37q40 0 99 78q61 81 147 217q6 9 13 21.5t9 15.5q6 12 27 72q20 57 20 63q-26 48 -91 92q-64 43 -114 43q-41 0 -67 -26q-42 -42 -92 -194q-49 -148 -49 -251z" />
<glyph unicode="A" horiz-adv-x="1269" d="M-70 0l7 84l57 18q62 17 102 63q34 40 119 220l356 786v78l273 62l221 -1125q7 -37 24 -57q16 -20 54 -27l78 -18l6 -84h-604l6 84l80 12q53 8 62 42q3 11 3 28q0 33 -12 88l-29 172h-385l-35 -94q-39 -93 -39 -149q0 -71 62 -83l74 -16l6 -84h-486zM389 526h328l-84 527 h-17z" />
<glyph unicode="B" horiz-adv-x="1247" d="M14 0l9 82l100 22q47 11 53 50l131 972q1 4 1 8q0 32 -42 42l-92 22l-6 82h598q219 0 328 -77q108 -77 108 -212q0 -128 -98 -211t-250 -118q6 -6 6 -11q137 -29 221 -104q86 -77 86 -195q0 -123 -94 -221q-136 -131 -411 -131h-648zM442 111l113 -23h43q122 0 198 75 t76 181q0 123 -75 194q-77 72 -189 72h-98zM522 702h117q119 0 199 65t80 181q0 112 -78 177q-79 65 -203 65h-47z" />
<glyph unicode="C" horiz-adv-x="1331" d="M100 545q0 148 63 292q64 146 171 253q219 219 518 219q176 0 309 -52l176 48l-61 -457h-141l-48 295q-90 65 -215 65q-197 0 -334 -200q-139 -202 -139 -490q0 -248 127 -371q79 -79 211 -79q103 0 197 49l143 305h156l-96 -422l-123 25q-156 -58 -316 -58 q-292 0 -445 156t-153 422z" />
<glyph unicode="D" horiz-adv-x="1404" d="M14 0l9 82l100 22q47 11 53 50l131 972q1 4 1 8q0 32 -42 42l-92 22l-6 82l545 2q305 0 476 -156t171 -411q0 -289 -209 -498q-98 -98 -259 -158q-158 -59 -351 -59h-527zM444 123l138 -31q210 10 347 174q136 163 136 451q0 219 -96 344t-299 125h-82z" />
<glyph unicode="E" horiz-adv-x="1284" d="M14 0l9 82l100 22q47 11 53 50l133 972q1 4 1 8q0 32 -42 42l-94 22l-4 82h1108l-55 -422h-142l-22 170q-6 44 -19 74q-12 27 -31 46q-19 20 -69 27q-45 7 -106 10q-57 3 -164 3h-80l-70 -496h39q89 0 133 13q41 12 62 53l69 139h105l-113 -496h-104l2 131q2 39 -32 54 q-32 14 -142 14h-31l-68 -508h88q184 0 256 11q78 12 120 42t77 107l70 151h147l-94 -403h-1090z" />
<glyph unicode="F" horiz-adv-x="1232" d="M14 0l9 82l100 22q47 11 53 50l133 972q1 4 1 8q0 32 -42 42l-94 22l-4 82h1077l-55 -422h-141l-23 170q-16 111 -80 135q-66 25 -311 25h-47l-70 -520h45q93 0 134 12t63 55l69 139h103l-113 -495h-102l8 129q2 41 -35 54q-36 13 -147 13h-41l-55 -421q-1 -5 -1 -9 q0 -34 41 -41l107 -22l6 -82h-588z" />
<glyph unicode="G" horiz-adv-x="1435" d="M100 545q0 148 63 292q64 146 171 253q98 98 244 159q144 60 294 60q177 0 310 -52l176 48l-62 -451h-141l-45 289q-95 65 -238 65q-197 0 -334 -200q-139 -202 -139 -490q0 -248 127 -371q79 -79 217 -79q91 0 162 26l51 332q4 22 -5 33q-8 10 -40 16l-96 23l-6 82h571 l-8 -82l-96 -23q-49 -12 -55 -49l-50 -291l119 -18l6 -68q-300 -82 -569 -82q-310 0 -469 154q-158 153 -158 424z" />
<glyph unicode="H" horiz-adv-x="1517" d="M18 0l7 82l100 22q47 11 53 50l131 972q1 4 1 8q0 32 -42 42l-92 22l-6 82h573l-6 -82l-102 -22q-47 -12 -53 -50l-58 -421h525l57 421q4 24 -4 34t-37 16l-94 22l-6 82h575l-8 -82l-100 -22q-48 -12 -54 -50l-133 -972q-1 -4 -1 -8q0 -32 42 -42l94 -22l6 -82h-573l6 82 l101 22q26 5 39 17q13 11 14 33l61 450h-524l-61 -450q-1 -5 -1 -9q0 -32 41 -41l97 -22l6 -82h-574z" />
<glyph unicode="I" horiz-adv-x="763" d="M18 0l7 82l120 22q48 11 54 50l133 972q1 5 1 9q0 34 -42 41l-115 22l-6 82h614l-6 -82l-123 -22q-47 -11 -53 -50l-131 -972q-1 -4 -1 -8q0 -31 42 -42l115 -22l8 -82h-617z" />
<glyph unicode="J" horiz-adv-x="903" d="M-4 223q37 33 86 33q160 0 172 -209h2q60 29 98 119q39 91 62 270l92 690q1 5 1 9q0 34 -42 41l-133 22l-6 82h622l-8 -82l-108 -22q-48 -8 -54 -50l-82 -610q-74 -549 -481 -549q-111 0 -187 47q-73 45 -73 123q0 52 39 86z" />
<glyph unicode="K" horiz-adv-x="1374" d="M12 0l8 82l101 22q47 11 53 50l133 972q1 4 1 8q0 32 -42 42l-94 22l-4 82h573l-8 -82l-102 -22q-47 -12 -53 -50l-66 -505l358 337q144 140 144 177q-1 34 -49 51l-54 14l-4 80h535l-8 -78l-54 -14q-101 -27 -274 -168l-283 -246l314 -575q24 -43 41 -63q18 -21 31 -28 q14 -8 46 -18l37 -8l4 -82h-522l6 82l54 18q24 7 24 30q0 17 -12 42l-215 432l-142 -119l-43 -331q-1 -4 -1 -8q0 -32 42 -42l95 -22l4 -82h-574z" />
<glyph unicode="L" horiz-adv-x="1185" d="M12 0l8 82l101 22q47 11 53 50l131 972q1 4 1 8q0 32 -42 42l-94 22l-4 82h582l-9 -82l-108 -22q-47 -12 -53 -50l-140 -1034h62q200 0 274 31q73 30 119 129l76 170h145l-100 -422h-1002z" />
<glyph unicode="M" horiz-adv-x="1767" d="M-16 0l6 82l108 24q26 6 40 24q14 19 36 101q22 84 51 258l107 635q1 8 1 14q0 35 -36 40l-119 20l-4 82h539l114 -971h21l438 971h514l-6 -82l-121 -22q-48 -7 -53 -52l-70 -643q-20 -163 -22 -245v-29q0 -54 6 -72q8 -23 35 -29l102 -24l4 -82h-600l6 82l111 24 q32 6 49 74q17 71 41 301l68 641h-21l-487 -1081h-246l-131 1100h-21l-108 -652q-22 -144 -33 -213q-9 -60 -11 -110q-1 -40 5 -48t22 -12l113 -24l6 -82h-454z" />
<glyph unicode="N" d="M-8 0l6 82l98 20q51 10 78 87q25 71 59 321l76 549q2 21 2 38q0 26 -5 42q-9 27 -46 37l-88 22l-4 82h428l487 -952h17l59 442q32 239 32 315v12q-3 70 -50 81l-111 20l-6 82h494l-7 -82l-98 -20q-52 -11 -79 -87t-60 -321l-109 -786h-198l-537 1042h-14l-70 -516 q-31 -231 -31 -309v-16q5 -73 54 -83l106 -20l6 -82h-489z" />
<glyph unicode="O" d="M98 563q0 305 195 516q211 228 512 228q261 0 431 -167q169 -166 169 -427q0 -319 -227 -549q-189 -195 -478 -195q-262 0 -432 167t-170 427zM391 500q0 -241 109 -348q80 -80 205 -80q110 0 191 75q83 77 128 191q47 118 67 227q21 113 21 209q0 242 -106 354 q-84 78 -207 78q-110 0 -192 -76q-85 -78 -127 -191q-44 -115 -66 -228q-23 -115 -23 -211z" />
<glyph unicode="P" horiz-adv-x="1204" d="M14 0l9 82l100 22q47 11 53 50l133 972q1 4 1 8q0 32 -42 42l-94 22l-4 82h543q221 0 352 -96t131 -264q0 -192 -161 -303t-400 -111q-34 0 -137 10l-49 -362q-1 -5 -1 -10q0 -35 41 -40l127 -22l5 -82h-607zM508 604q66 -12 98 -12q139 0 224 85t85 232q0 125 -76 204 t-190 79h-59z" />
<glyph unicode="Q" horiz-adv-x="1468" d="M98 563q0 298 193 514q206 230 512 230q262 0 432 -167t170 -427q0 -159 -59 -301q-61 -146 -164 -246q-164 -164 -398 -191q90 -147 211 -204q123 -58 336 -62l6 -65q-138 -40 -319 -41q-211 0 -334 87q-122 86 -229 324q-164 68 -260 213q-97 147 -97 336zM393 498 q0 -243 107 -348q80 -80 209 -80q108 0 189 75q84 78 127 192q46 123 66 228q21 113 21 211q0 243 -108 354q-83 78 -205 78q-110 0 -192 -76q-84 -78 -127 -194q-45 -120 -65 -229q-22 -118 -22 -211z" />
<glyph unicode="R" horiz-adv-x="1296" d="M16 0l7 82l100 22q47 11 53 50l129 972q1 4 1 8q0 32 -42 42l-94 22l-4 82h604q213 0 332 -86t119 -219q0 -138 -94 -238q-93 -99 -265 -145l223 -404q17 -35 39 -57q21 -21 33 -27q14 -7 39 -14l35 -8l4 -82h-369l-69 164l-185 385l-106 6l-57 -401q-1 -4 -1 -8 q0 -28 41 -42l91 -22l6 -82h-570zM516 659l127 -26q126 18 202 93q77 75 77 204q0 118 -72 189q-73 71 -191 71h-71z" />
<glyph unicode="S" horiz-adv-x="1095" d="M47 37l35 393l131 -2l63 -307q100 -45 230 -45q111 0 172 54q62 54 63 144q0 47 -17 82q-18 37 -61 73q-37 30 -77 56q-33 21 -105 60q-175 95 -248 174t-73 223q0 154 138 259q139 106 335 106q124 0 323 -47l113 34l-55 -420l-129 5l-43 274q-111 45 -234 45 q-85 0 -144 -46q-61 -47 -61 -112q0 -49 18 -88q17 -37 61 -75q41 -36 82 -60q26 -16 112 -63q152 -79 230 -163q77 -83 77 -216q0 -185 -143 -295q-144 -111 -363 -111q-211 0 -430 68z" />
<glyph unicode="T" horiz-adv-x="1312" d="M84 850l92 430h1184l-55 -430h-134l-22 170q-15 105 -65 135q-52 32 -191 33h-12l-138 -1034q-1 -4 -1 -8q0 -32 42 -42l123 -22l6 -82h-626l6 82l127 22q48 7 53 50l137 1034h-8q-137 0 -195 -29t-104 -133l-72 -176h-147z" />
<glyph unicode="U" horiz-adv-x="1449" d="M152 1280h573l-6 -82l-103 -22q-47 -12 -53 -50l-88 -641q-10 -84 -10 -123q0 -127 81 -199q82 -73 216 -73q147 0 235 85q89 85 117 282l45 313q31 232 31 310v16q-4 72 -53 82l-107 20l-6 82h492l-7 -82l-98 -20q-51 -11 -78 -86q-26 -74 -61 -322l-49 -348 q-34 -231 -179 -348q-144 -117 -360 -117q-221 0 -354 106t-133 310q0 61 6 112l88 641q1 4 1 8q0 32 -42 42l-92 22z" />
<glyph unicode="V" horiz-adv-x="1253" d="M66 1280h604l-6 -84l-82 -12q-54 -8 -63 -42q-3 -11 -3 -28q0 -33 12 -88l138 -790h14l326 737q36 78 36 128q0 66 -65 79l-70 16l-6 84h483l-6 -84l-61 -18q-61 -18 -99 -63q-35 -42 -120 -220l-422 -895h-225l-226 1094q-12 69 -78 84l-75 18z" />
<glyph unicode="W" horiz-adv-x="1908" d="M59 1280h617l-6 -84l-86 -12q-60 -8 -60 -96q0 -27 6 -62l107 -795h14l324 730l-21 133q-5 38 -21 56q-19 21 -56 28l-84 18l-7 84h615l-6 -84l-86 -12q-45 -6 -57 -42q-5 -16 -5 -41q0 -31 8 -75l105 -793h16l266 676q56 134 56 194q0 62 -62 77l-61 16l-6 84h491 l-6 -84l-61 -18q-73 -21 -117 -73q-46 -54 -119 -210l-381 -895h-233l-115 788h-14l-359 -788h-235l-193 1094q-7 39 -24 57q-18 20 -53 27l-84 18z" />
<glyph unicode="X" horiz-adv-x="1310" d="M-49 0l6 82l72 18q87 21 211 160l317 354l-225 398q-45 75 -76 120q-23 33 -55 44l-76 22l-4 82h598l-8 -82l-68 -12q-55 -12 -55 -61q0 -40 37 -105l112 -227h15l198 239q54 60 54 97q0 40 -60 55l-63 14l-7 82h490l-6 -82l-72 -18q-89 -23 -235 -189l-250 -278 l252 -459q46 -83 67 -109q24 -30 58 -41l73 -22l6 -82h-598l7 82l69 12q57 12 57 61q0 40 -38 105l-138 272h-14l-215 -260q-63 -70 -63 -114q0 -45 67 -62l62 -14l6 -82h-508z" />
<glyph unicode="Y" horiz-adv-x="1222" d="M59 1280h588l-6 -84l-82 -12q-54 -7 -54 -58q0 -46 42 -143l145 -356h17l235 354q67 97 68 142q1 23 -15 38t-47 21l-73 14l-7 84h478l-7 -84l-49 -14q-61 -16 -108 -56q-50 -42 -131 -159l-295 -428l-49 -385q-1 -5 -1 -9q0 -34 42 -41l120 -22l-2 -82h-628l12 82 l131 22q45 6 53 50l49 372l-249 543q-27 51 -50 74t-59 33l-61 20z" />
<glyph unicode="Z" horiz-adv-x="1232" d="M8 0l15 92l907 1077v17h-211q-181 0 -245 -32q-63 -31 -112 -142l-63 -158h-137l55 426h1049l-13 -94l-917 -1077l-2 -17h215q141 0 218 21q78 22 104 50q30 34 63 99l65 148h146l-98 -410h-1039z" />
<glyph unicode="[" horiz-adv-x="753" d="M188 -455v1788h529v-98h-416v-1591h416v-99h-529z" />
<glyph unicode="\" horiz-adv-x="571" d="M10 1362h109l442 -1796h-108z" />
<glyph unicode="]" horiz-adv-x="753" d="M37 -356h416v1591h-416v98h528v-1788h-528v99z" />
<glyph unicode="^" horiz-adv-x="819" d="M154 1055l235 372h242l133 -372h-94l-176 245h-5l-241 -245h-94z" />
<glyph unicode="_" horiz-adv-x="962" d="M-49 -109l6 109h987l6 -109h-999z" />
<glyph unicode="`" horiz-adv-x="817" d="M193 1427h260l143 -372h-94z" />
<glyph unicode="a" horiz-adv-x="1081" d="M45 246q0 147 70 307q69 157 176 264q141 141 284 141q136 0 179 -157h16l55 157h211l-123 -370l-108 -459l55 -18l152 104l35 -43q-48 -80 -131 -143q-82 -62 -156 -62q-42 0 -114 29q-71 29 -71 55q0 19 18 74q22 69 52 154q38 110 45 131h-20q-158 -264 -207 -324 q-91 -117 -187 -117q-98 0 -165 73q-66 72 -66 204zM272 311q0 -74 29 -118q28 -43 76 -43q61 0 151 129q53 76 150 233l47 162q-37 61 -103 109t-120 48q-36 0 -68 -32q-62 -61 -111 -213q-51 -156 -51 -275z" />
<glyph unicode="b" horiz-adv-x="1040" d="M76 137l203 1004q3 13 3 24q0 33 -28 45l-117 56l13 57l417 104l-116 -469l-111 -440h20q118 234 206 339q87 104 190 104q96 0 160 -82q65 -83 65 -215q0 -154 -62 -299q-64 -149 -167 -252q-146 -146 -334 -146q-82 0 -167 36q-87 36 -132 76q-47 41 -43 58zM295 205 q46 -59 115 -99q68 -40 114 -40q34 0 66 32q68 68 116 220q48 153 48 280q0 78 -27 130t-72 52q-54 0 -106 -68q-57 -75 -166 -255q-3 -5 -7 -12t-5 -9q-2 -3 -6 -9.5t-6 -9.5q-5 -8 -13 -22z" />
<glyph unicode="c" horiz-adv-x="872" d="M57 313q0 237 166 442q167 206 389 206q109 0 183 -59q73 -58 73 -146q0 -64 -39 -107t-90 -43q-58 0 -85 32t-27 81q0 41 24 82q-20 15 -72 29q-51 14 -90 14q-13 0 -38 -25q-55 -53 -108 -198q-54 -147 -54 -281q0 -98 50 -159q50 -60 130 -60q62 0 260 135l33 -43 q-187 -244 -385 -244q-148 0 -234 98t-86 246z" />
<glyph unicode="d" horiz-adv-x="1081" d="M45 246q0 147 70 307q69 157 176 264q141 141 284 141q73 0 107 -40t57 -117h17l71 340q3 13 3 24q0 33 -27 45l-117 56l12 57l420 104l-225 -905l-88 -393l55 -18l152 104l35 -43q-48 -80 -131 -143q-82 -62 -156 -62q-41 0 -110 39q-68 38 -68 66q0 20 16 68 q27 81 48 142q43 125 44 128h-20q-158 -264 -207 -324q-91 -117 -187 -117q-98 0 -165 73q-66 72 -66 204zM272 311q0 -74 29 -118q28 -43 76 -43q61 0 151 129q53 76 150 233l47 162q-37 61 -103 109t-120 48q-36 0 -68 -32q-62 -61 -111 -213q-51 -156 -51 -275z" />
<glyph unicode="e" horiz-adv-x="864" d="M57 313q0 238 163 443t378 205q118 0 185 -58t67 -147q0 -21 -5 -44q-4 -19 -22 -42q-17 -21 -31 -37q-13 -15 -49 -39q-42 -28 -59 -39q-21 -13 -78 -43q-20 -11 -51.5 -27t-37.5 -19q-9 -5 -45 -23t-62 -32q-14 -7 -57.5 -30t-63.5 -33v-26q0 -88 51 -145 q50 -56 129 -56q62 0 260 135l33 -43q-187 -244 -385 -244q-149 0 -235 98q-85 97 -85 246zM287 420h6q198 109 280 179q76 66 76 146q0 37 -55 67q-56 30 -96 30q-41 0 -64 -23q-41 -41 -86 -155q-44 -112 -61 -244z" />
<glyph unicode="f" horiz-adv-x="620" d="M-360 -340q0 57 33 90q35 35 85 35q64 0 104 -48t48 -120l108 33q36 92 80 344l123 792l-178 15l6 69l199 64q46 228 166 348q137 137 321 137q100 0 164 -53t64 -131q0 -55 -36 -95t-89 -40q-64 0 -104 55t-52 141l-129 -22q-49 -134 -82 -356h246l8 -117h-274 l-123 -611q-84 -439 -230 -587q-101 -107 -256 -107q-86 0 -144 46t-58 118z" />
<glyph unicode="g" horiz-adv-x="954" d="M-141 -295q0 86 82 149q83 63 200 93v16q-88 51 -88 135q0 138 187 195v16q-65 40 -106 110q-40 68 -40 146q0 171 127 283q128 113 307 113q107 0 244 -41l258 4l-51 -185l-242 60l-2 -21q105 -83 105 -203q0 -141 -117 -232q-116 -91 -270 -91q-71 0 -144 20 q-30 -8 -51 -33q-20 -24 -20 -51q0 -36 38 -56q42 -23 130 -52l94 -27q159 -47 237 -109q80 -63 80 -171q0 -123 -147 -216q-149 -94 -404 -94q-184 0 -296 65q-111 64 -111 177zM53 -256q0 -78 88 -129t232 -51q109 0 185 38q75 38 75 93q0 47 -52 83q-53 36 -171 75 q-140 45 -207 73q-150 -72 -150 -182zM311 489q5 -91 45 -131q26 -26 64 -26q62 0 112 53q53 51 80 152t27 192q0 44 -49 81q-50 38 -103 38q-42 0 -65 -23q-50 -50 -81 -150q-30 -99 -30 -181v-5z" />
<glyph unicode="h" horiz-adv-x="1089" d="M27 -6l75 307l177 840q3 13 3 24q0 33 -28 45l-117 56l13 57l417 104l-116 -471l-127 -532h22q166 365 248 446q91 91 197 91q77 0 129 -47q51 -46 51 -117q0 -98 -94 -387q-20 -72 -93 -281l56 -18l151 104l35 -43q-48 -81 -129 -143q-80 -62 -156 -62q-43 0 -112 30 q-70 30 -70 56q0 40 115 387q67 216 67 258q0 31 -28 52q-27 20 -66 20q-50 0 -118 -107q-68 -106 -187 -358l-68 -309z" />
<glyph unicode="i" horiz-adv-x="573" d="M29 705q44 97 118 177q73 79 148 79q27 0 77 -15t90 -36t36 -36l-205 -745l55 -18l152 104l35 -43q-48 -81 -129 -143q-80 -62 -156 -62q-42 0 -115 33q-37 17 -53.5 30t-13.5 23l196 742l-61 12l-133 -148zM338 1233q0 75 42 127q42 53 97 53q60 0 98 -41q37 -40 37 -98 q0 -74 -42 -126t-97 -52q-61 0 -98 40t-37 97z" />
<glyph unicode="j" horiz-adv-x="546" d="M-350 -377q0 53 36 87q35 34 85 34q60 0 100 -43t55 -111l51 13q37 85 111 417l176 773l-69 16l-129 -150l-43 46q45 98 119 177q75 79 149 79q42 0 127 -31q40 -15 59.5 -29.5t16.5 -26.5l-166 -712q-99 -439 -250 -590q-112 -107 -236 -107q-80 0 -137 45 q-55 43 -55 113zM344 1233q0 75 42 127q42 53 97 53q61 0 99 -41q36 -39 36 -98q0 -75 -41 -126q-42 -52 -98 -52q-61 0 -98 40t-37 97z" />
<glyph unicode="k" horiz-adv-x="964" d="M27 -6l75 307l177 840q3 13 3 24q0 33 -28 45l-117 56l13 57l413 104l-114 -469l-119 -464h14l395 208v25q-90 27 -90 119q0 57 43 97t103 40q67 0 113 -45t46 -107q0 -93 -67 -153q-68 -60 -205 -113l-94 -37l153 -383h41l117 107l43 -43q-34 -89 -120 -162 q-86 -74 -165 -74q-21 0 -62 18q-40 18 -44 32l-143 428l-76 -33l-60 -422z" />
<glyph unicode="l" horiz-adv-x="559" d="M53 53l226 1088q3 13 3 24q0 33 -28 45l-117 56l13 57l409 104l-283 -1298l58 -18l149 104l37 -43q-49 -81 -130 -143q-82 -62 -157 -62q-40 0 -112 33q-37 17 -53.5 30t-14.5 23z" />
<glyph unicode="m" horiz-adv-x="1669" d="M25 705q46 100 120 178q73 78 148 78q47 0 123 -24t76 -50q0 -73 -113 -463h22q167 365 248 446q91 91 197 91q78 0 123 -47q45 -46 45 -121q0 -29 -14 -90q-16 -71 -26 -102q-14 -43 -33 -108t-21 -69h22q163 359 250 446q91 91 199 91q77 0 129 -47q51 -46 51 -117 q0 -109 -94 -387q-42 -137 -95 -281l58 -18l149 104l37 -43q-49 -81 -130 -143q-82 -62 -157 -62q-42 0 -111 30t-69 56q0 36 113 387q69 208 69 258q0 31 -28 52q-27 20 -66 20q-51 0 -119 -107q-68 -106 -190 -358l-80 -309l-250 -2l103 364q86 300 86 340q0 31 -29 52 q-27 20 -66 20q-49 0 -117 -107q-72 -112 -188 -358l-67 -309l-248 -2l76 307l100 494l-59 12l-131 -148z" />
<glyph unicode="n" horiz-adv-x="1126" d="M25 705q44 95 119 177q72 79 147 79q47 0 124 -24t77 -50q0 -73 -113 -463h22q167 365 248 446q91 91 197 91q77 0 129 -47q51 -46 51 -117q0 -98 -94 -387l-92 -281l55 -18l152 104l34 -43q-48 -81 -129 -143q-80 -62 -155 -62q-44 0 -113 30q-70 30 -70 56 q0 40 115 387q68 219 68 258q0 31 -29 52q-27 20 -66 20q-49 0 -117 -107q-72 -112 -188 -358l-67 -309l-248 -2l76 307l100 487l-57 15l-135 -144z" />
<glyph unicode="o" horiz-adv-x="985" d="M63 385q0 223 146 399q147 177 350 177q171 0 266 -115t95 -303q0 -223 -144 -399q-144 -175 -350 -175q-172 0 -267 115q-96 116 -96 301zM287 297q0 -97 37 -164t100 -67q85 0 151 114q67 116 97 254q24 118 24 207q0 96 -36 159q-35 62 -101 62q-82 0 -149 -112 q-69 -115 -97 -246q-26 -113 -26 -207z" />
<glyph unicode="p" horiz-adv-x="1085" d="M-150 -504l7 80l96 23q41 11 51 49l256 1145l-61 14l-131 -148l-43 46q46 100 120 178q73 78 148 78q45 0 120 -34q76 -34 76 -61q0 -12 -5 -40q-5 -27 -16 -62q-2 -6 -10 -31.5t-12 -37.5q-2 -6 -11 -34t-15 -46q-21 -62 -25 -76h21q114 230 199 325q86 97 188 97 q97 0 161 -82t64 -215q0 -150 -63 -300t-168 -255q-140 -140 -283 -140q-120 0 -188 107h-13l-86 -428q-1 -4 -1 -8q0 -30 44 -41l133 -23l9 -80h-562zM350 236q43 -61 108 -118q59 -52 101 -52q34 0 66 32q70 70 123 224t53 276q0 78 -27 130t-72 52q-51 0 -115 -85 q-65 -85 -192 -300z" />
<glyph unicode="q" horiz-adv-x="1030" d="M45 246q0 147 70 307q69 157 176 264q141 141 284 141q136 0 179 -157h16l55 157h211l-123 -370l-198 -940q-1 -4 -1 -8q0 -32 44 -41l104 -23l6 -80h-555l6 80l119 23q41 11 51 49l109 461l92 301h-20q-158 -264 -207 -324q-91 -117 -187 -117q-98 0 -165 73 q-66 72 -66 204zM272 311q0 -74 29 -118q28 -43 76 -43q61 0 151 129q53 76 150 233l47 162q-37 61 -103 109t-120 48q-36 0 -68 -32q-62 -61 -111 -213q-51 -156 -51 -275z" />
<glyph unicode="r" horiz-adv-x="923" d="M25 705q46 100 120 178q73 78 148 78q47 0 123 -24t76 -50q0 -43 -50 -225q-50 -180 -84 -279h29q32 86 107 242q74 153 108 186q49 88 90 121q40 33 113 33q65 0 111 -45q47 -45 47 -123q0 -66 -39 -111t-93 -45q-63 0 -97 45q-21 28 -21 67q0 21 6 44l-37 10 q-29 -24 -143 -236q-125 -231 -160 -309l-49 -266l-248 -2l76 307l100 494l-59 12l-131 -148z" />
<glyph unicode="s" horiz-adv-x="784" d="M-10 150q0 58 34 92t91 34q47 0 75 -31q29 -32 29 -79q0 -26 -12 -49q101 -50 194 -54q27 18 53 59t27 68q0 12 -3 26q-3 15 -13 29q-7 10 -21 26t-28 30q-22 22 -30 29l-34 30q-30 28 -33 31q-65 59 -105 101q-39 41 -67 91t-28 98v7q6 129 115 201q110 72 249 72 q295 0 295 -175q0 -60 -33 -94q-33 -35 -88 -35q-48 0 -78 32q-30 31 -30 79q0 26 12 49q-83 45 -168 51q-27 -17 -55 -56q-28 -38 -29 -60q-2 -19 7 -39q8 -19 30 -44q12 -14 37 -41q19 -21 46 -45q20 -18 42 -40q0 -1 10.5 -11t20.5 -19l31 -31q1 -1 11 -10t18 -17 q24 -24 29 -30q2 -2 9 -11.5t13 -16.5q19 -22 22 -29q5 -11 16 -29q11 -20 14 -31q4 -18 5 -29q2 -22 2 -33q-4 -121 -119 -199q-114 -78 -260 -78q-128 0 -215 43q-88 43 -88 138z" />
<glyph unicode="t" horiz-adv-x="677" d="M70 801l6 69l190 76l51 266h222l-62 -294h258l6 -117h-284l-152 -672l57 -18l150 104l37 -43q-49 -81 -130 -143q-82 -62 -157 -62q-42 0 -115 30q-37 15 -53.5 27.5t-13.5 22.5l158 737z" />
<glyph unicode="u" horiz-adv-x="1126" d="M51 705q44 96 120 177q75 79 148 79q41 0 116 -39t75 -66q0 -43 -109 -367q-65 -211 -65 -247q0 -31 29 -58q27 -26 63 -26q49 0 118 106q66 102 193 359l72 313h248l-86 -307q-95 -476 -105 -504l56 -21l145 105l37 -41q-50 -84 -128 -142q-80 -59 -155 -59 q-43 0 -112 30q-70 30 -70 56q0 81 117 453h-23q-173 -366 -254 -447q-90 -90 -196 -90q-77 0 -129 50t-52 122q0 94 93 379q53 160 88 275l-60 12l-131 -148z" />
<glyph unicode="v" horiz-adv-x="970" d="M-4 705q43 95 119 177q73 79 147 79q46 0 122 -30q77 -30 77 -54v-762h22l228 383q69 122 69 186q0 46 -43 83q-44 38 -106 50q17 65 64 105q49 41 114 41q72 0 122 -47t50 -123q0 -85 -49 -173q-52 -93 -166 -245l-264 -367l-256 -39l-19 826l-59 12l-131 -148z" />
<glyph unicode="w" horiz-adv-x="1499" d="M-4 705q43 95 119 177q73 79 147 79q46 0 122 -30q77 -30 77 -54l6 -762h18l289 651l-10 195l113 -21l110 -20l33 -805h20l195 383q70 137 70 186q0 46 -39 83q-40 38 -101 50q17 64 64 105t108 41q70 0 117 -47q45 -45 45 -120q0 -61 -30 -130q-33 -76 -61 -120 q-32 -50 -114 -171l-241 -367l-246 -39l-12 627h-17l-268 -588l-262 -39l-21 826l-59 12l-131 -148z" />
<glyph unicode="x" horiz-adv-x="1044" d="M0 219q33 41 84 41q58 0 85 -36q22 -29 22 -77q0 -11 -1 -22l56 -12q3 5 14 23.5t18 31.5q5 9 24.5 44.5t34.5 62.5q53 94 69 122l26 47l-139 353h-45l-113 -127l-37 43q114 248 244 248q30 0 99 -25q67 -24 73 -49l74 -309h12q102 238 168 311q66 74 141 74 q81 0 131 -40q50 -39 50 -99v-5q-2 -63 -36 -105t-83 -42q-106 0 -106 111q0 11 1 24l-57 10l-188 -319l137 -363h43l114 127l37 -43q-117 -248 -245 -248q-30 0 -99 30q-70 30 -71 44l-74 309h-17q-83 -178 -137 -265q-51 -82 -82 -101q-32 -19 -82 -19q-79 0 -131 41 q-49 38 -49 98q0 69 35 111z" />
<glyph unicode="y" horiz-adv-x="974" d="M-166 -346q0 53 36 89t83 36q64 0 104 -46t39 -118l37 -2l258 342l-139 41l-23 799l-59 12l-131 -148l-41 46q43 95 119 177q73 79 147 79q43 0 121 -29q77 -29 78 -55l-14 -777h26l320 553v25q-115 45 -115 133q0 65 40 108q41 44 101 44q69 0 116 -45q46 -45 46 -121 q0 -145 -260 -482l-186 -252l-115 -229q-90 -178 -181 -262q-94 -86 -206 -86q-80 0 -141 47q-60 47 -60 121z" />
<glyph unicode="z" horiz-adv-x="874" d="M-14 98q0 148 198 193l424 368q-106 38 -319 203l-33 -31q45 -57 45 -106q0 -45 -29 -74t-73 -33h-7q-53 0 -81 30q-31 33 -31 79q0 85 78 154q79 70 198 77q74 0 128 -18t87 -57q34 -41 49 -67q10 -18 35 -77l25 2l55 220q7 1 15 1q55 0 94 -34q45 -38 45 -94 q0 -71 -53 -124q-52 -52 -152 -73l-414 -358q32 -13 90 -46q57 -32 90 -56q54 -38 93 -67l32 -24t25.5 -19t13.5 -10l33 31q-49 55 -49 111q0 43 30 71q31 30 77 31h3q50 0 79 -30q30 -31 30 -81q0 -88 -72 -157q-73 -70 -194 -80q-134 0 -208 64q-74 63 -118 184l-26 -2 l-58 -228h-7q-60 0 -102 35q-46 37 -46 92z" />
<glyph unicode="{" horiz-adv-x="714" d="M53 467l23 61q128 15 191 51t63 113q0 54 -56 181q-55 125 -55 204q0 137 111 219q111 83 329 93v-78q-225 -21 -225 -178q0 -61 55 -187q56 -129 56 -213q0 -98 -89 -170q-87 -71 -227 -86v-24q140 -17 228 -88q88 -72 88 -170q0 -83 -56 -210q-55 -125 -55 -188 q0 -159 225 -180v-74q-217 7 -328 90q-112 83 -112 220q0 81 55 204q56 126 56 181q0 76 -61 114q-59 37 -193 49z" />
<glyph unicode="|" horiz-adv-x="563" d="M231 -322v1797h101v-1797h-101z" />
<glyph unicode="}" horiz-adv-x="714" d="M53 -383q226 21 226 180q0 61 -56 188q-55 125 -55 210q0 99 88 171q89 72 227 87v24q-140 15 -227 86q-88 72 -88 170q0 87 55 213q56 129 56 187q0 157 -226 178v78q217 -10 328 -93q111 -82 111 -219q0 -77 -56 -204q-55 -125 -55 -181q0 -77 63 -113t193 -51l22 -61 l-22 -66q-134 -12 -195 -49t-61 -114q0 -58 55 -181q56 -126 56 -204q0 -137 -111 -220t-328 -90v74z" />
<glyph unicode="~" horiz-adv-x="786" d="M8 369q33 143 92 205q60 63 152 63q67 0 166 -72q98 -71 131 -71q31 0 56 27q27 28 61 97h84q-33 -144 -93 -206t-151 -62q-66 0 -168 73t-133 73q-30 0 -51 -27q-20 -26 -58 -100h-88z" />
<glyph unicode="&#xa1;" horiz-adv-x="602" d="M96 86l226 778q4 14 27 13q24 -1 24 -17l-8 -790q-2 -48 -36 -75q-36 -28 -91 -28h-9q-75 0 -112 33q-38 33 -21 86zM244 1165q0 59 41 102q41 42 102 42q59 0 101 -42t42 -102q0 -57 -42 -99t-101 -42q-61 0 -102 42q-41 43 -41 99z" />
<glyph unicode="&#xa2;" horiz-adv-x="839" d="M57 319q0 239 150 438q150 200 373 204h4l88 342h96l-92 -357q75 -22 122 -72q46 -49 46 -112q0 -60 -38 -100q-38 -39 -91 -39q-74 0 -107 55l-141 -553q61 11 250 131l35 -43q-159 -203 -326 -233l-80 -318h-94l78 309q-123 11 -198 109q-75 99 -75 239zM289 336 q0 -156 88 -201l178 686q-40 17 -88 17q-15 0 -39 -21q-49 -49 -94 -199t-45 -282z" />
<glyph unicode="&#xa3;" horiz-adv-x="1079" d="M-12 47q154 33 219 112q66 80 84 232q9 79 10 133h-225l6 94h227q6 116 19 205q28 205 160 335q131 130 331 130q125 0 197 -48q71 -47 71 -128q0 -61 -33 -95q-34 -36 -93 -36q-67 0 -102 57q-34 56 -7 133q-38 33 -90 33q-145 0 -184 -305q-2 -19 -8 -69t-9 -81 q-3 -30 -7.5 -74.5t-6.5 -56.5h293l6 -94h-314q-5 -40 -16 -92q-30 -135 -92 -215v-10q17 -6 66 -20q27 -8 85 -22q27 -7 75 -15q52 -9 75 -9q94 0 139 45q38 43 82 133l51 -18q0 -162 -73 -256t-215 -94q-63 0 -123 25q-61 25 -89 47q-39 30 -79 68q-51 48 -53 50 q-139 -157 -363 -190z" />
<glyph unicode="&#xa4;" horiz-adv-x="890" d="M68 1032l82 82l118 -119q80 52 178 52t183 -54l112 113l80 -80l-114 -115q47 -80 47 -176q0 -93 -49 -176l126 -127l-81 -82l-125 125q-78 -51 -179 -51q-95 0 -178 49l-114 -115l-80 80l114 115q-51 80 -51 182t49 178zM246 735q0 -85 55 -144q56 -61 145 -61 q88 0 144 61q55 59 55 144t-54 145t-145 60q-90 0 -145 -60q-55 -59 -55 -145z" />
<glyph unicode="&#xa5;" horiz-adv-x="1253" d="M96 1280h570l-7 -82l-71 -12q-92 -17 0 -215l125 -307h12l215 315q74 108 80 151q6 46 -55 58l-45 10l-7 82h426l-6 -82l-39 -12q-60 -16 -109 -56q-50 -40 -126 -149l-252 -356h303l8 -95h-354l-21 -161h367l8 -95h-383l-16 -122q-6 -42 41 -50l129 -22l6 -80h-623l7 80 l133 22q47 8 53 50l16 122h-327l4 95h340l20 161h-366l6 95h331l-237 489q-27 49 -80 64l-70 20z" />
<glyph unicode="&#xa6;" horiz-adv-x="563" d="M231 -285v686h101v-686h-101zM231 629v686h101v-686h-101z" />
<glyph unicode="&#xa7;" horiz-adv-x="935" d="M80 610q1 90 59 164q57 74 144 115q-50 61 -50 129q0 116 105 202q104 85 262 85q118 0 194 -45t76 -121q0 -56 -37 -93q-38 -38 -88 -38q-62 0 -99 52t-36 134q-36 20 -80 20q-68 0 -97 -33q-30 -35 -30 -81q0 -36 33 -77q33 -40 67 -64q34 -23 105 -68q2 -1 23 -14 q46 -28 98 -66q26 -19 79 -65q45 -39 66 -81t21 -90q0 -91 -56 -163q-58 -75 -143 -115q52 -58 52 -129q0 -114 -109 -206q-107 -91 -272 -91q-119 0 -201 45t-82 125q0 53 37 90t88 37q65 0 112 -53q46 -51 44 -133q39 -21 88 -21q56 0 90 37q35 38 35 90q0 37 -39 79 t-75 66q-63 42 -116 76q-47 29 -99 65q-43 30 -81 63q-48 42 -68 82t-20 91zM244 721q0 -59 46 -105q47 -47 136 -102q6 -4 16 -11t28 -18.5t31 -20.5q53 -35 92 -65q37 -29 66 -57q76 39 76 123q0 57 -44 104q-45 48 -128 103q-187 122 -239 174q-80 -44 -80 -125z" />
<glyph unicode="&#xa8;" horiz-adv-x="819" d="M154 1241q0 61 36 101q38 42 99 42t97 -42t36 -101t-36 -100t-97 -41t-99 41q-36 39 -36 100zM594 1241q0 59 36 101t97 42t97 -42t36 -101t-36 -100t-97 -41t-97 41t-36 100z" />
<glyph unicode="&#xa9;" horiz-adv-x="1572" d="M72 637q0 298 209 509q209 210 505 210q298 0 506 -210q209 -211 209 -509q0 -297 -209 -506t-506 -209q-296 0 -505 209t-209 506zM156 637q0 -264 185 -450q186 -187 445 -187q260 0 446 187q185 186 185 450q0 265 -185 453t-446 188q-260 0 -445 -188t-185 -453z M395 635q0 174 119 287q118 112 291 112q94 0 178 -30l107 28v-282h-86l-56 174q-51 39 -151 39q-105 0 -169 -79q-65 -80 -65 -225q0 -150 70 -250t190 -100q72 0 113 29l72 182h92l-25 -260l-78 16q-81 -36 -190 -36q-202 0 -307 111t-105 284z" />
<glyph unicode="&#xaa;" horiz-adv-x="788" d="M117 791q0 105 47 223q46 115 121 190q101 103 215 103q88 0 118 -115h13l31 115l149 -9l-78 -303l-63 -288l41 -11l118 107l23 -31q-43 -72 -109 -130q-65 -58 -118 -58q-27 0 -70 34t-43 58q0 18 13 54q3 7 16 44.5t23 64.5q17 46 46 132h-14q-113 -208 -184 -298 q-69 -89 -142 -89q-69 0 -111 54t-42 153zM285 844q0 -58 21 -88q22 -31 59 -31q42 0 204 266l31 103q-105 108 -170 108q-27 0 -49 -22q-34 -34 -65 -138q-31 -103 -31 -198z" />
<glyph unicode="&#xab;" horiz-adv-x="1024" d="M37 399v115l518 303l16 -43l-333 -321l258 -306l-29 -43zM459 399v115l530 324l19 -43l-373 -342l289 -326l-29 -43z" />
<glyph unicode="&#xac;" horiz-adv-x="983" d="M72 520l6 117h833v-438h-116v321h-723z" />
<glyph unicode="&#xad;" horiz-adv-x="681" d="M68 440l6 123h538l6 -123h-550z" />
<glyph unicode="&#xae;" horiz-adv-x="1572" d="M72 641q0 296 209 507q209 210 505 210q298 0 506 -210q209 -211 209 -507q0 -298 -208 -506q-209 -209 -507 -209q-296 0 -505 209t-209 506zM156 641q0 -264 185 -450q186 -187 445 -187q262 0 447 186q184 185 184 451q0 263 -184 451t-447 188q-260 0 -445 -188 t-185 -451zM442 264l7 70l57 12q29 8 29 29v534q0 23 -29 29l-57 14l-7 70h365q145 0 216 -55q73 -56 73 -138q0 -160 -183 -211l154 -231q22 -28 59 -43l43 -10l7 -70h-230l-45 84l-141 236l-64 4v-213q0 -21 29 -29l55 -12l4 -70h-342zM696 659l72 -8q158 6 158 150 q0 75 -48 114q-47 39 -133 37l-49 -2v-291z" />
<glyph unicode="&#xaf;" horiz-adv-x="819" d="M170 1118l25 119h581l2 -119h-608z" />
<glyph unicode="&#xb0;" horiz-adv-x="839" d="M143 948q0 155 110 267t263 112q138 0 230 -82q94 -83 94 -219q0 -159 -110 -271t-267 -112q-136 0 -227 84q-93 85 -93 221zM242 952q-1 -98 63 -160q67 -64 164 -65q113 0 189 82q78 84 79 197q0 100 -64 164q-65 65 -167 65q-111 2 -188 -84q-76 -85 -76 -199z" />
<glyph unicode="&#xb1;" horiz-adv-x="983" d="M63 483l7 117h364v330h117v-330h362l7 -117h-369v-333h-117v333h-371zM66 4l6 117h839l7 -117h-852z" />
<glyph unicode="&#xb2;" horiz-adv-x="675" d="M-18 559v82q31 26 124 96q108 82 122 93q42 35 91 82q50 48 71 95q22 49 22 97q0 53 -39 83t-86 30q-97 0 -219 -84l-15 34q49 65 143 123q95 58 191 58q108 0 175 -56t67 -147q0 -59 -34 -112q-35 -54 -117 -117q-77 -59 -139 -98q-38 -24 -183 -111v-9h86q166 0 205 4 q45 5 63 23l41 57h57l-78 -223h-548z" />
<glyph unicode="&#xb3;" horiz-adv-x="675" d="M-6 668q0 35 26 61q27 27 64 27q63 0 90 -50q28 -50 23 -112l12 -2q16 -2 24 -2q71 0 111 58q41 59 41 140q0 105 -98 105q-16 0 -86 -19l-25 54q183 89 217 121q37 34 37 79q0 39 -36 63q-35 23 -85 23q-107 0 -219 -94l-14 37q73 91 166 140q97 51 192 51q86 0 152 -42 q65 -41 65 -110q0 -23 -5 -46t-19 -40q-6 -7 -15 -18.5t-11 -14.5q-9 -12 -37 -28q-6 -4 -15 -9t-14.5 -8.5t-9.5 -5.5q-16 -9 -45 -20q-12 -5 -26 -10.5t-17 -6.5q-4 -1 -19.5 -6t-27.5 -9q-30 -10 -42 -13v-13q59 19 103 19q157 0 157 -160q0 -120 -116 -199 q-118 -80 -261 -80q-76 0 -157 35q-80 35 -80 105z" />
<glyph unicode="&#xb4;" horiz-adv-x="817" d="M334 1055l244 372h260l-412 -372h-92z" />
<glyph unicode="&#xb5;" horiz-adv-x="1146" d="M18 928h383l-12 -617q0 -87 44 -125q42 -36 134 -36q99 0 181 63v594q0 16 -16 24q-17 9 -62 13l-60 4l-8 80h385v-752q0 -62 35 -74l104 -32l-6 -60l-372 -41v127h-11q-50 -67 -94 -96q-47 -31 -113 -31q-100 0 -168 115h-10l31 -569l-260 -19l27 780l2 529q0 18 -15 24 q-21 8 -71 15l-41 4z" />
<glyph unicode="&#xb6;" horiz-adv-x="1001" d="M123 866q0 414 557 414h287l-176 -1346h-132l78 574q-74 -10 -127 -10q-217 0 -352 102t-135 266z" />
<glyph unicode="&#xb7;" horiz-adv-x="475" d="M61 487q0 65 47 112q46 46 113 46q68 0 113 -46q45 -47 45 -112q0 -64 -46 -111q-47 -48 -112 -48q-66 0 -113 47t-47 112z" />
<glyph unicode="&#xb8;" horiz-adv-x="819" d="M35 -508q167 21 255 66q89 45 89 108q0 98 -158 98q-79 0 -143 -14l6 49l266 244h103l-174 -154q123 -5 190 -50q70 -47 70 -126q0 -113 -137 -190q-135 -75 -355 -86z" />
<glyph unicode="&#xb9;" horiz-adv-x="675" d="M53 559l4 70l123 14q32 1 37 29l76 522l-148 25l11 49l372 88l-98 -684q-5 -24 25 -29l88 -14l4 -70h-494z" />
<glyph unicode="&#xba;" horiz-adv-x="718" d="M125 887q0 166 104 292q105 128 258 128q127 0 196 -83t69 -220q0 -164 -104 -292t-257 -128q-124 0 -195 83t-71 220zM291 823q0 -71 25 -117q26 -47 73 -47q64 0 112 84q46 81 68 185q19 81 19 147q0 70 -26 114t-75 44q-58 0 -108 -83q-49 -81 -70 -181 q-18 -77 -18 -146z" />
<glyph unicode="&#xbb;" horiz-adv-x="1024" d="M-12 119l370 342l-286 325l26 43l439 -315v-115l-531 -323zM422 139l336 322l-258 305l30 43l426 -295v-115l-516 -303z" />
<glyph unicode="&#xbc;" d="M35 -238l1294 1518h123l-1294 -1518h-123zM94 559l4 70l123 14q32 1 37 29l76 522l-148 25l11 49l372 88l-98 -684q-5 -24 25 -29l88 -14l4 -70h-494zM754 -14l485 522l127 -37l-74 -473h133l-18 -82h-123l-35 -209h-190l35 209h-334zM850 -2h252l51 311h-14z" />
<glyph unicode="&#xbd;" d="M35 -238l1294 1518h123l-1294 -1518h-123zM94 559l4 70l123 14q32 1 37 29l76 522l-148 25l11 49l372 88l-98 -684q-5 -24 25 -29l88 -14l4 -70h-494zM729 -211q21 18 125 96q108 82 122 93q42 35 91 82q50 48 71 95t21 97q0 53 -39 83t-86 30q-97 0 -219 -84l-14 34 q50 67 142 123q95 58 192 58q108 0 175 -56q66 -56 66 -147q0 -59 -34 -112q-34 -54 -116 -116q-80 -61 -140 -99q-38 -24 -183 -111v-9h86q167 0 206 4q43 4 62 23l41 57h58l-78 -223h-549v82z" />
<glyph unicode="&#xbe;" d="M35 -238l1294 1518h123l-1294 -1518h-123zM35 668q0 35 26 61q27 27 64 27q63 0 90 -50q28 -50 23 -112l12 -2q16 -2 24 -2q71 0 111 58q41 59 41 140q0 105 -98 105q-16 0 -86 -19l-25 54q183 89 217 121q37 34 37 79q0 39 -36 63q-35 23 -85 23q-107 0 -219 -94l-14 37 q73 91 166 140q97 51 192 51q86 0 152 -42q65 -41 65 -110q0 -23 -5 -46t-19 -40q-6 -7 -15 -18.5t-11 -14.5q-9 -12 -37 -28q-6 -4 -15 -9t-14.5 -8.5t-9.5 -5.5q-16 -9 -45 -20q-12 -5 -26 -10.5t-17 -6.5q-4 -1 -19.5 -6t-27.5 -9q-30 -10 -42 -13v-13q59 19 103 19 q157 0 157 -160q0 -119 -117 -199q-118 -80 -260 -80q-76 0 -157 35q-80 35 -80 105zM754 -14l485 522l127 -37l-74 -473h133l-18 -82h-123l-35 -209h-190l35 209h-334zM850 -2h252l51 311h-14z" />
<glyph unicode="&#xbf;" horiz-adv-x="794" d="M25 340q0 76 23 129q24 55 71 90q48 36 87 53q49 22 101 37q126 40 156 66q26 22 26 57q0 66 -67 129l100 -2q49 -34 83 -89q36 -57 36 -114q0 -55 -25 -100q-24 -44 -73 -72t-90 -45t-105 -35q-141 -40 -168 -63q-18 -17 -18 -37q0 -59 87 -104t210 -45q62 0 131 12 q31 -34 31 -80q0 -67 -54 -110q-53 -42 -149 -42q-160 0 -277 108q-116 107 -116 257zM418 1171q0 61 40 102q40 42 101 42q59 0 101 -42t42 -102q0 -57 -42 -99t-101 -42t-100 42q-41 43 -41 99z" />
<glyph unicode="&#xc0;" horiz-adv-x="1269" d="M-70 0l7 84l57 18q62 17 102 63q34 40 119 220l356 786v78l273 62l221 -1125q7 -37 24 -57q16 -20 54 -27l78 -18l6 -84h-604l6 84l80 12q53 8 62 42t-9 116l-29 172h-385l-35 -94q-89 -209 23 -232l74 -16l6 -84h-486zM389 526h328l-84 527h-17zM418 1769h260l143 -372 h-94z" />
<glyph unicode="&#xc1;" horiz-adv-x="1269" d="M-70 0l7 84l57 18q62 17 102 63q34 40 119 220l356 786v78l273 62l221 -1125q7 -37 24 -57q16 -20 54 -27l78 -18l6 -84h-604l6 84l80 12q53 8 62 42t-9 116l-29 172h-385l-35 -94q-89 -209 23 -232l74 -16l6 -84h-486zM389 526h328l-84 527h-17zM610 1397l244 372h260 l-412 -372h-92z" />
<glyph unicode="&#xc2;" horiz-adv-x="1269" d="M-70 0l7 84l57 18q62 17 102 63q34 40 119 220l356 786v78l273 62l221 -1125q7 -37 24 -57q16 -20 54 -27l78 -18l6 -84h-604l6 84l80 12q53 8 62 42t-9 116l-29 172h-385l-35 -94q-89 -209 23 -232l74 -16l6 -84h-486zM389 526h328l-84 527h-17zM406 1397l233 372h242 l135 -372h-94l-177 245h-4l-241 -245h-94z" />
<glyph unicode="&#xc3;" horiz-adv-x="1269" d="M-70 0l7 84l57 18q62 17 102 63q34 40 119 220l356 786v78l273 62l221 -1125q7 -37 24 -57q16 -20 54 -27l78 -18l6 -84h-604l6 84l80 12q53 8 62 42t-9 116l-29 172h-385l-35 -94q-89 -209 23 -232l74 -16l6 -84h-486zM371 1432q63 276 245 276q68 0 165 -72 q96 -71 130 -71q31 0 57 27q23 25 60 98h86q-66 -277 -248 -277q-67 0 -167 73t-132 73q-30 0 -51 -27q-17 -22 -57 -100h-88zM389 526h328l-84 527h-17z" />
<glyph unicode="&#xc4;" horiz-adv-x="1269" d="M-70 0l7 84l57 18q62 17 102 63q34 40 119 220l356 786v78l273 62l221 -1125q7 -37 24 -57q16 -20 54 -27l78 -18l6 -84h-604l6 84l80 12q53 8 62 42t-9 116l-29 172h-385l-35 -94q-89 -209 23 -232l74 -16l6 -84h-486zM379 1583q0 60 37 101q38 42 98 42q61 0 97 -42 t36 -101t-36 -100t-97 -41q-60 0 -98 41q-37 40 -37 100zM389 526h328l-84 527h-17zM819 1583q0 59 36 101t97 42q62 0 98 -42q35 -41 35 -101q0 -61 -35 -100q-36 -41 -98 -41q-61 0 -97 41t-36 100z" />
<glyph unicode="&#xc5;" horiz-adv-x="1269" d="M-70 0l7 84l57 18q65 16 100 62q37 48 121 221l395 875q-69 60 -69 157q5 87 58 146t144 59t146 -59t55 -146q0 -117 -86 -170l207 -1061q12 -69 78 -84l78 -18l6 -84h-604l6 84l80 12q53 8 62 42t-9 116l-29 172h-385l-35 -94q-89 -209 23 -232l74 -16l6 -84h-486z M389 520h326l-78 533h-21zM612 1417q0 -57 36 -97t95 -40q60 0 96 40q35 39 35 97q0 60 -35 99q-36 40 -96 40q-59 0 -95 -40t-36 -99z" />
<glyph unicode="&#xc6;" horiz-adv-x="1792" d="M-125 0l6 84l58 18q62 18 108 65q42 43 143 198l449 706q58 92 -35 109l-96 20l-2 80h1284l-55 -422h-142l-22 170q-6 44 -19 74q-12 27 -31 46q-19 20 -69 27q-45 7 -106 10q-57 3 -164 3h-64l-69 -496h22q89 0 133 13q41 12 62 53l69 139h105l-113 -496h-104l2 131 q2 39 -32 54q-32 14 -142 14h-15l-67 -508h71q184 0 256 11q78 12 120 42t77 107l70 151h147l-94 -403h-1071l12 80l105 22q47 11 53 50l41 303h-387l-64 -103q-86 -125 -86 -190q0 -51 62 -62l71 -16l6 -84h-483zM428 549h340l86 645h-14z" />
<glyph unicode="&#xc7;" horiz-adv-x="1331" d="M100 545q0 148 63 292q64 146 171 253q219 219 518 219q176 0 309 -52l176 48l-61 -457h-141l-48 295q-90 65 -215 65q-197 0 -334 -200q-139 -202 -139 -490q0 -248 127 -371q79 -79 211 -79q103 0 197 49l143 305h156l-96 -422l-123 25q-139 -52 -289 -58l-88 -78 q123 -5 190 -50q70 -47 70 -126q0 -114 -136 -190q-135 -75 -355 -86l-13 55q167 21 255 66q89 45 89 108q0 98 -157 98q-80 0 -144 -14l6 49l187 170q-263 21 -395 173q-134 154 -134 403z" />
<glyph unicode="&#xc8;" horiz-adv-x="1284" d="M14 0l9 82l100 22q47 11 53 50l133 972q6 39 -41 50l-94 22l-4 82h1108l-55 -422h-142l-22 170q-6 44 -19 74q-12 27 -31 46q-19 20 -69 27q-45 7 -106 10q-57 3 -164 3h-80l-70 -496h39q89 0 133 13q41 12 62 53l69 139h105l-113 -496h-104l2 131q2 39 -32 54 q-32 14 -142 14h-31l-68 -508h88q184 0 256 11q78 12 120 42t77 107l70 151h147l-94 -403h-1090zM457 1769h260l143 -372h-94z" />
<glyph unicode="&#xc9;" horiz-adv-x="1284" d="M14 0l9 82l100 22q47 11 53 50l133 972q6 39 -41 50l-94 22l-4 82h1108l-55 -422h-142l-22 170q-6 44 -19 74q-12 27 -31 46q-19 20 -69 27q-45 7 -106 10q-57 3 -164 3h-80l-70 -496h39q89 0 133 13q41 12 62 53l69 139h105l-113 -496h-104l2 131q2 39 -32 54 q-32 14 -142 14h-31l-68 -508h88q184 0 256 11q78 12 120 42t77 107l70 151h147l-94 -403h-1090zM618 1397l244 372h260l-411 -372h-93z" />
<glyph unicode="&#xca;" horiz-adv-x="1284" d="M14 0l9 82l100 22q47 11 53 50l133 972q6 39 -41 50l-94 22l-4 82h1108l-55 -422h-142l-22 170q-6 44 -19 74q-12 27 -31 46q-19 20 -69 27q-45 7 -106 10q-57 3 -164 3h-80l-70 -496h39q89 0 133 13q41 12 62 53l69 139h105l-113 -496h-104l2 131q2 39 -32 54 q-32 14 -142 14h-31l-68 -508h88q184 0 256 11q78 12 120 42t77 107l70 151h147l-94 -403h-1090zM424 1397l233 372h242l135 -372h-94l-176 245h-4l-242 -245h-94z" />
<glyph unicode="&#xcb;" horiz-adv-x="1284" d="M14 0l9 82l100 22q47 11 53 50l133 972q6 39 -41 50l-94 22l-4 82h1108l-55 -422h-142l-22 170q-6 44 -19 74q-12 27 -31 46q-19 20 -69 27q-45 7 -106 10q-57 3 -164 3h-80l-70 -496h39q89 0 133 13q41 12 62 53l69 139h105l-113 -496h-104l2 131q2 39 -32 54 q-32 14 -142 14h-31l-68 -508h88q184 0 256 11q78 12 120 42t77 107l70 151h147l-94 -403h-1090zM408 1583q0 61 36 101q38 42 99 42t97 -42t36 -101t-36 -100t-97 -41t-99 41q-36 39 -36 100zM848 1583q0 59 36 101t97 42t97 -42t36 -101t-36 -100t-97 -41t-97 41t-36 100z " />
<glyph unicode="&#xcc;" horiz-adv-x="763" d="M18 0l7 82l120 22q48 11 54 50l133 972q6 42 -41 50l-115 22l-6 82h614l-6 -82l-123 -22q-47 -11 -53 -50l-131 -972q-6 -38 41 -50l115 -22l8 -82h-617zM166 1769h260l143 -372h-94z" />
<glyph unicode="&#xcd;" horiz-adv-x="763" d="M18 0l7 82l120 22q48 11 54 50l133 972q6 42 -41 50l-115 22l-6 82h614l-6 -82l-123 -22q-47 -11 -53 -50l-131 -972q-6 -38 41 -50l115 -22l8 -82h-617zM440 1397l244 372h260l-412 -372h-92z" />
<glyph unicode="&#xce;" horiz-adv-x="763" d="M18 0l7 82l120 22q48 11 54 50l133 972q6 42 -41 50l-115 22l-6 82h614l-6 -82l-123 -22q-47 -11 -53 -50l-131 -972q-6 -38 41 -50l115 -22l8 -82h-617zM180 1397l234 372h241l136 -372h-95l-176 245h-4l-242 -245h-94z" />
<glyph unicode="&#xcf;" horiz-adv-x="763" d="M18 0l7 82l120 22q48 11 54 50l133 972q6 42 -41 50l-115 22l-6 82h614l-6 -82l-123 -22q-47 -11 -53 -50l-131 -972q-6 -38 41 -50l115 -22l8 -82h-617zM150 1583q0 61 36 101q38 42 99 42t97 -42t36 -101t-36 -100t-97 -41t-99 41q-36 39 -36 100zM590 1583 q0 59 36 101t97 42t97 -42t36 -101t-36 -100t-97 -41t-97 41t-36 100z" />
<glyph unicode="&#xd0;" horiz-adv-x="1404" d="M14 0l9 82l100 22q47 11 53 50l60 446h-146l6 94h152l59 432q6 39 -41 50l-92 22l-6 82l545 2q305 0 476 -156t171 -411q0 -289 -209 -498q-98 -98 -259 -158q-158 -59 -351 -59h-527zM444 123l138 -31q210 10 347 174q136 163 136 451q0 219 -96 344t-299 125h-82 l-66 -492h226l6 -94h-246l-16 -121q-20 -158 -31 -237z" />
<glyph unicode="&#xd1;" d="M-8 0l6 82l98 20q51 10 78 87q25 71 59 321l76 549q6 53 -3 80t-46 37l-88 22l-4 82h428l487 -952h17l59 442q35 259 32 327q-3 70 -50 81l-111 20l-6 82h494l-7 -82l-98 -20q-52 -11 -79 -87t-60 -321l-109 -786h-198l-537 1042h-14l-70 -516q-35 -257 -31 -325 q5 -73 54 -83l106 -20l6 -82h-489zM459 1432q63 276 246 276q67 0 164 -72q96 -71 130 -71q31 0 57 27q23 25 60 98h86q-66 -277 -248 -277q-67 0 -167 73t-132 73q-30 0 -51 -27q-17 -22 -57 -100h-88z" />
<glyph unicode="&#xd2;" d="M98 563q0 305 195 516q211 228 512 228q261 0 431 -167q169 -166 169 -427q0 -319 -227 -549q-189 -195 -478 -195q-262 0 -432 167t-170 427zM391 500q0 -241 109 -348q80 -80 205 -80q110 0 191 75q83 77 128 191q47 118 67 227q21 113 21 209q0 242 -106 354 q-84 78 -207 78q-110 0 -192 -76q-85 -78 -127 -191q-44 -115 -66 -228q-23 -115 -23 -211zM506 1769h260l143 -372h-94z" />
<glyph unicode="&#xd3;" d="M98 563q0 305 195 516q211 228 512 228q261 0 431 -167q169 -166 169 -427q0 -319 -227 -549q-189 -195 -478 -195q-262 0 -432 167t-170 427zM391 500q0 -241 109 -348q80 -80 205 -80q110 0 191 75q83 77 128 191q47 118 67 227q21 113 21 209q0 242 -106 354 q-84 78 -207 78q-110 0 -192 -76q-85 -78 -127 -191q-44 -115 -66 -228q-23 -115 -23 -211zM719 1397l244 372h260l-412 -372h-92z" />
<glyph unicode="&#xd4;" d="M98 563q0 305 195 516q211 228 512 228q261 0 431 -167q169 -166 169 -427q0 -319 -227 -549q-189 -195 -478 -195q-262 0 -432 167t-170 427zM391 500q0 -241 109 -348q80 -80 205 -80q110 0 191 75q83 77 128 191q47 118 67 227q21 113 21 209q0 242 -106 354 q-84 78 -207 78q-110 0 -192 -76q-85 -78 -127 -191q-44 -115 -66 -228q-23 -115 -23 -211zM543 1397l233 372h242l135 -372h-94l-176 245h-4l-242 -245h-94z" />
<glyph unicode="&#xd5;" d="M98 563q0 305 195 516q211 228 512 228q261 0 431 -167q169 -166 169 -427q0 -319 -227 -549q-189 -195 -478 -195q-262 0 -432 167t-170 427zM391 500q0 -241 109 -348q80 -80 205 -80q110 0 191 75q83 77 128 191q47 118 67 227q21 113 21 209q0 242 -106 354 q-84 78 -207 78q-110 0 -192 -76q-85 -78 -127 -191q-44 -115 -66 -228q-23 -115 -23 -211zM477 1432q63 276 246 276q67 0 165 -72q96 -71 130 -71q30 0 56 27t61 98h86q-66 -277 -248 -277q-67 0 -167 73t-132 73q-30 0 -51 -27q-20 -26 -58 -100h-88z" />
<glyph unicode="&#xd6;" d="M98 563q0 305 195 516q211 228 512 228q261 0 431 -167q169 -166 169 -427q0 -319 -227 -549q-189 -195 -478 -195q-262 0 -432 167t-170 427zM391 500q0 -241 109 -348q80 -80 205 -80q110 0 191 75q83 77 128 191q47 118 67 227q21 113 21 209q0 242 -106 354 q-84 78 -207 78q-110 0 -192 -76q-85 -78 -127 -191q-44 -115 -66 -228q-23 -115 -23 -211zM496 1583q0 61 36 101q38 42 99 42t97 -42t36 -101t-36 -100t-97 -41t-99 41q-36 39 -36 100zM936 1583q0 59 36 101t97 42t97 -42t36 -101t-36 -100t-97 -41t-97 41t-36 100z" />
<glyph unicode="&#xd7;" horiz-adv-x="983" d="M68 139l342 342l-342 342l82 82l342 -342l342 342l81 -82l-342 -342l342 -342l-81 -82l-342 340l-342 -340z" />
<glyph unicode="&#xd8;" d="M113 563q0 307 192 516q211 228 512 228q137 0 258 -52l90 154h97q-113 -191 -113 -192q127 -76 199 -208q71 -129 69 -296q0 -319 -227 -549q-189 -195 -477 -195q-147 0 -258 51l-101 -172h-94l121 209q-127 78 -199 210q-71 129 -69 296zM399 500q0 -181 70 -291 l539 928q-68 75 -197 75q-110 0 -193 -76q-84 -76 -129 -194q-44 -115 -67 -230q-23 -117 -23 -212zM522 139q88 -73 197 -73q88 0 160 51q71 50 116 130q47 83 77 177q32 100 45 186q13 85 13 164q0 178 -69 291z" />
<glyph unicode="&#xd9;" horiz-adv-x="1449" d="M152 1280h573l-6 -82l-103 -22q-47 -12 -53 -50l-88 -641q-10 -84 -10 -123q0 -127 81 -199q82 -73 216 -73q147 0 235 85q89 85 117 282l45 313q35 259 31 326q-4 72 -53 82l-107 20l-6 82h492l-7 -82l-98 -20q-51 -11 -78 -86q-26 -74 -61 -322l-49 -348 q-34 -231 -179 -348q-144 -117 -360 -117q-221 0 -354 106t-133 310q0 61 6 112l88 641q6 39 -41 50l-92 22zM561 1769h260l144 -372h-95z" />
<glyph unicode="&#xda;" horiz-adv-x="1449" d="M152 1280h573l-6 -82l-103 -22q-47 -12 -53 -50l-88 -641q-10 -84 -10 -123q0 -127 81 -199q82 -73 216 -73q147 0 235 85q89 85 117 282l45 313q35 259 31 326q-4 72 -53 82l-107 20l-6 82h492l-7 -82l-98 -20q-51 -11 -78 -86q-26 -74 -61 -322l-49 -348 q-34 -231 -179 -348q-144 -117 -360 -117q-221 0 -354 106t-133 310q0 61 6 112l88 641q6 39 -41 50l-92 22zM784 1397l244 372h260l-411 -372h-93z" />
<glyph unicode="&#xdb;" horiz-adv-x="1449" d="M152 1280h573l-6 -82l-103 -22q-47 -12 -53 -50l-88 -641q-10 -84 -10 -123q0 -127 81 -199q82 -73 216 -73q147 0 235 85q89 85 117 282l45 313q35 259 31 326q-4 72 -53 82l-107 20l-6 82h492l-7 -82l-98 -20q-51 -11 -78 -86q-26 -74 -61 -322l-49 -348 q-34 -231 -179 -348q-144 -117 -360 -117q-221 0 -354 106t-133 310q0 61 6 112l88 641q6 39 -41 50l-92 22zM565 1397l234 372h241l136 -372h-95l-176 245h-4l-242 -245h-94z" />
<glyph unicode="&#xdc;" horiz-adv-x="1449" d="M152 1280h573l-6 -82l-103 -22q-47 -12 -53 -50l-88 -641q-10 -84 -10 -123q0 -127 81 -199q82 -73 216 -73q147 0 235 85q89 85 117 282l45 313q35 259 31 326q-4 72 -53 82l-107 20l-6 82h492l-7 -82l-98 -20q-51 -11 -78 -86q-26 -74 -61 -322l-49 -348 q-34 -231 -179 -348q-144 -117 -360 -117q-221 0 -354 106t-133 310q0 61 6 112l88 641q6 39 -41 50l-92 22zM489 1583q0 60 37 101q38 42 99 42t97 -42t36 -101t-36 -100t-97 -41t-99 41q-37 40 -37 100zM930 1583q0 59 36 101t97 42t97 -42t36 -101t-36 -100t-97 -41 t-97 41t-36 100z" />
<glyph unicode="&#xdd;" horiz-adv-x="1222" d="M59 1280h588l-6 -84l-82 -12q-52 -7 -54 -56q-1 -46 42 -145l145 -356h17l235 354q67 97 68 142q1 23 -15 38t-47 21l-73 14l-7 84h478l-7 -84l-49 -14q-61 -16 -108 -56q-50 -42 -131 -159l-295 -428l-49 -385q-6 -42 41 -50l120 -22l-2 -82h-628l12 82l131 22 q45 6 53 50l49 372l-249 543q-27 51 -50 74t-59 33l-61 20zM670 1397l243 372h261l-412 -372h-92z" />
<glyph unicode="&#xde;" horiz-adv-x="1204" d="M14 0l9 82l100 22q47 11 53 50l133 972q6 39 -41 50l-92 22l-6 82h573l-6 -82l-102 -22q-47 -12 -53 -50l-13 -96h111q219 0 351 -96t132 -264q0 -191 -161 -302q-162 -112 -400 -112q-46 0 -137 8l-16 -110q-6 -44 40 -50l127 -22l5 -82h-607zM477 354q49 -12 98 -12 q140 0 225 85t85 232q0 124 -77 203q-76 78 -192 78h-59z" />
<glyph unicode="&#xdf;" horiz-adv-x="1165" d="M-350 -342q0 56 34 91q34 36 85 36q63 0 103 -49t46 -121l111 35q34 86 80 344l118 794l-172 13l6 71l195 62q52 240 181 364q127 123 315 123q168 0 260 -84t92 -204q0 -116 -80 -185q-80 -70 -221 -92q125 -82 204 -201q78 -116 78 -262q0 -171 -119 -297 q-120 -127 -286 -127q-101 0 -174 56q-72 55 -72 141q0 66 42 110q42 43 102 43q65 0 98 -45q32 -44 19 -101q-13 -56 -64 -89q18 -18 63 -18q74 0 128 63q55 64 55 168q0 136 -78 277t-228 243l9 70q138 4 220 74q81 69 81 188q0 76 -40 125t-108 49q-98 0 -153 -94 q-56 -95 -99 -311l-143 -725q-89 -449 -229 -592q-105 -105 -259 -105q-84 0 -142 45t-58 117z" />
<glyph unicode="&#xe0;" horiz-adv-x="1081" d="M45 246q0 147 70 307q69 157 176 264q141 141 284 141q136 0 179 -157h16l55 157h211l-123 -370l-108 -459l55 -18l152 104l35 -43q-48 -80 -131 -143q-82 -62 -156 -62q-42 0 -114 29q-71 29 -71 55q0 19 18 74q22 69 52 154q38 110 45 131h-20q-158 -264 -207 -324 q-91 -117 -187 -117q-98 0 -165 73q-66 72 -66 204zM272 311q0 -74 29 -118q28 -43 76 -43q61 0 151 129q53 76 150 233l47 162q-37 61 -103 109t-120 48q-36 0 -68 -32q-62 -61 -111 -213q-51 -156 -51 -275zM354 1427h260l144 -372h-94z" />
<glyph unicode="&#xe1;" horiz-adv-x="1081" d="M45 246q0 147 70 307q69 157 176 264q141 141 284 141q136 0 179 -157h16l55 157h211l-123 -370l-108 -459l55 -18l152 104l35 -43q-48 -80 -131 -143q-82 -62 -156 -62q-42 0 -114 29q-71 29 -71 55q0 19 18 74q22 69 52 154q38 110 45 131h-20q-158 -264 -207 -324 q-91 -117 -187 -117q-98 0 -165 73q-66 72 -66 204zM272 311q0 -74 29 -118q28 -43 76 -43q61 0 151 129q53 76 150 233l47 162q-37 61 -103 109t-120 48q-36 0 -68 -32q-62 -61 -111 -213q-51 -156 -51 -275zM516 1055l244 372h260l-412 -372h-92z" />
<glyph unicode="&#xe2;" horiz-adv-x="1081" d="M45 246q0 147 70 307q69 157 176 264q141 141 284 141q136 0 179 -157h16l55 157h211l-123 -370l-108 -459l55 -18l152 104l35 -43q-48 -80 -131 -143q-82 -62 -156 -62q-42 0 -114 29q-71 29 -71 55q0 19 18 74q22 69 52 154q38 110 45 131h-20q-158 -264 -207 -324 q-91 -117 -187 -117q-98 0 -165 73q-66 72 -66 204zM272 311q0 -74 29 -118q28 -43 76 -43q61 0 151 129q53 76 150 233l47 162q-37 61 -103 109t-120 48q-36 0 -68 -32q-62 -61 -111 -213q-51 -156 -51 -275zM336 1055l233 372h242l135 -372h-94l-176 245h-4l-242 -245h-94 z" />
<glyph unicode="&#xe3;" horiz-adv-x="1081" d="M45 246q0 147 70 307q69 157 176 264q141 141 284 141q136 0 179 -157h16l55 157h211l-123 -370l-108 -459l55 -18l152 104l35 -43q-48 -80 -131 -143q-82 -62 -156 -62q-42 0 -114 29q-71 29 -71 55q0 19 18 74q22 69 52 154q38 110 45 131h-20q-158 -264 -207 -324 q-91 -117 -187 -117q-98 0 -165 73q-66 72 -66 204zM272 311q0 -74 29 -118q28 -43 76 -43q61 0 151 129q53 76 150 233l47 162q-37 61 -103 109t-120 48q-36 0 -68 -32q-62 -61 -111 -213q-51 -156 -51 -275zM281 1090q63 276 245 276q68 0 165 -72q96 -71 130 -71 q31 0 57 27q23 25 60 98h86q-66 -277 -248 -277q-67 0 -167 73t-132 73q-30 0 -51 -27q-17 -22 -57 -100h-88z" />
<glyph unicode="&#xe4;" horiz-adv-x="1081" d="M45 246q0 147 70 307q69 157 176 264q141 141 284 141q136 0 179 -157h16l55 157h211l-123 -370l-108 -459l55 -18l152 104l35 -43q-48 -80 -131 -143q-82 -62 -156 -62q-42 0 -114 29q-71 29 -71 55q0 19 18 74q22 69 52 154q38 110 45 131h-20q-158 -264 -207 -324 q-91 -117 -187 -117q-98 0 -165 73q-66 72 -66 204zM272 311q0 -74 29 -118q28 -43 76 -43q61 0 151 129q53 76 150 233l47 162q-37 61 -103 109t-120 48q-36 0 -68 -32q-62 -61 -111 -213q-51 -156 -51 -275zM305 1241q0 60 37 101q37 42 98 42q62 0 98 -42q35 -41 35 -101 q0 -61 -35 -100q-36 -41 -98 -41q-60 0 -98 41q-37 40 -37 100zM745 1241q0 59 36 101t98 42q61 0 97 -42t36 -101t-36 -100t-97 -41q-62 0 -98 41t-36 100z" />
<glyph unicode="&#xe5;" horiz-adv-x="1081" d="M45 246q0 147 70 307q69 157 176 264q141 141 284 141q136 0 179 -157h16l55 157h211l-123 -370l-108 -459l55 -18l152 104l35 -43q-48 -80 -131 -143q-82 -62 -156 -62q-42 0 -114 29q-71 29 -71 55q0 19 18 74q22 69 52 154q38 110 45 131h-20q-158 -264 -207 -324 q-91 -117 -187 -117q-98 0 -165 73q-66 72 -66 204zM272 311q0 -74 29 -118q28 -43 76 -43q61 0 151 129q53 76 150 233l47 162q-37 61 -103 109t-120 48q-36 0 -68 -32q-62 -61 -111 -213q-51 -156 -51 -275zM477 1255q1 85 58 146q55 59 145 59t145 -59q56 -61 56 -146 q0 -84 -56 -145q-55 -59 -145 -59q-93 0 -149 59q-56 58 -54 145zM549 1255q0 -57 36 -97t95 -40t95 40t36 97q0 59 -36 99q-36 41 -95 41t-95 -41q-36 -40 -36 -99z" />
<glyph unicode="&#xe6;" horiz-adv-x="1415" d="M45 266q0 149 65 297t171 254q141 141 284 141q80 0 129 -64q50 -65 66 -169q170 236 389 236q115 0 184 -58q68 -57 68 -147q0 -21 -5 -44q-4 -19 -22 -42q-10 -13 -32 -37q-15 -17 -48 -39q-42 -28 -59 -39q-21 -13 -78 -43q-20 -11 -51.5 -27t-37.5 -19q-9 -5 -45 -23 t-62 -32q-14 -7 -57.5 -30t-63.5 -33v-26q0 -87 50 -145q49 -56 128 -56q61 0 262 135l33 -43q-89 -113 -179 -178q-92 -66 -206 -66q-147 0 -232 94q-86 95 -90 240v14q-100 -168 -180 -257q-82 -91 -158 -91q-100 0 -162 81q-61 80 -61 216zM272 332q0 -76 26 -126t65 -50 q28 0 57 22t64 72q38 54 59 90q8 13 66 115q42 73 63 108q33 64 47 84q-37 76 -106 130t-124 54q-35 0 -67 -32q-63 -63 -106 -202q-44 -143 -44 -265zM836 420h8q198 110 278 179q76 66 76 146q0 37 -54 67t-97 30q-39 0 -62 -23q-40 -40 -87 -155q-45 -110 -62 -244z" />
<glyph unicode="&#xe7;" horiz-adv-x="872" d="M57 313q0 237 166 442q167 206 389 206q109 0 183 -59q73 -58 73 -146q0 -64 -39 -107t-90 -43q-58 0 -85 32t-27 81q0 41 24 82q-20 15 -72 29q-51 14 -90 14q-13 0 -38 -25q-55 -53 -108 -198q-54 -147 -54 -281q0 -98 50 -159q50 -60 130 -60q62 0 260 135l33 -43 q-159 -211 -328 -240l-96 -84q123 -5 190 -50q70 -47 70 -126q0 -114 -136 -190q-135 -75 -356 -86l-12 55q166 21 255 66t89 108q0 98 -157 98q-80 0 -144 -14l6 49l189 172q-127 15 -201 110t-74 232z" />
<glyph unicode="&#xe8;" horiz-adv-x="864" d="M57 313q0 238 163 443t378 205q118 0 185 -58t67 -147q0 -21 -5 -44q-4 -19 -22 -42q-17 -21 -31 -37q-13 -15 -49 -39q-42 -28 -59 -39q-21 -13 -78 -43q-20 -11 -51.5 -27t-37.5 -19q-9 -5 -45 -23t-62 -32q-14 -7 -57.5 -30t-63.5 -33v-26q0 -88 51 -145 q50 -56 129 -56q62 0 260 135l33 -43q-187 -244 -385 -244q-149 0 -235 98q-85 97 -85 246zM279 1427h260l143 -372h-94zM287 420h6q198 109 280 179q76 66 76 146q0 37 -55 67q-56 30 -96 30q-41 0 -64 -23q-41 -41 -86 -155q-44 -112 -61 -244z" />
<glyph unicode="&#xe9;" horiz-adv-x="864" d="M57 313q0 238 163 443t378 205q118 0 185 -58t67 -147q0 -21 -5 -44q-4 -19 -22 -42q-17 -21 -31 -37q-13 -15 -49 -39q-42 -28 -59 -39q-21 -13 -78 -43q-20 -11 -51.5 -27t-37.5 -19q-9 -5 -45 -23t-62 -32q-14 -7 -57.5 -30t-63.5 -33v-26q0 -88 51 -145 q50 -56 129 -56q62 0 260 135l33 -43q-187 -244 -385 -244q-149 0 -235 98q-85 97 -85 246zM287 420h6q198 109 280 179q76 66 76 146q0 37 -55 67q-56 30 -96 30q-41 0 -64 -23q-41 -41 -86 -155q-44 -112 -61 -244zM451 1055l243 372h260l-411 -372h-92z" />
<glyph unicode="&#xea;" horiz-adv-x="864" d="M57 313q0 238 163 443t378 205q118 0 185 -58t67 -147q0 -21 -5 -44q-4 -19 -22 -42q-17 -21 -31 -37q-13 -15 -49 -39q-42 -28 -59 -39q-21 -13 -78 -43q-20 -11 -51.5 -27t-37.5 -19q-9 -5 -45 -23t-62 -32q-14 -7 -57.5 -30t-63.5 -33v-26q0 -88 51 -145 q50 -56 129 -56q62 0 260 135l33 -43q-187 -244 -385 -244q-149 0 -235 98q-85 97 -85 246zM244 1055l233 372h242l135 -372h-94l-176 245h-4l-242 -245h-94zM287 420h6q198 109 280 179q76 66 76 146q0 37 -55 67q-56 30 -96 30q-41 0 -64 -23q-41 -41 -86 -155 q-44 -112 -61 -244z" />
<glyph unicode="&#xeb;" horiz-adv-x="864" d="M57 313q0 238 163 443t378 205q118 0 185 -58t67 -147q0 -21 -5 -44q-4 -19 -22 -42q-17 -21 -31 -37q-13 -15 -49 -39q-42 -28 -59 -39q-21 -13 -78 -43q-20 -11 -51.5 -27t-37.5 -19q-9 -5 -45 -23t-62 -32q-14 -7 -57.5 -30t-63.5 -33v-26q0 -88 51 -145 q50 -56 129 -56q62 0 260 135l33 -43q-187 -244 -385 -244q-149 0 -235 98q-85 97 -85 246zM227 1241q0 60 37 101q38 42 98 42q62 0 98 -42t36 -101t-36 -100t-98 -41q-60 0 -98 41q-37 40 -37 100zM287 420h6q198 109 280 179q76 66 76 146q0 37 -55 67q-56 30 -96 30 q-41 0 -64 -23q-41 -41 -86 -155q-44 -112 -61 -244zM668 1241q0 60 35 101q36 42 98 42q61 0 97 -42t36 -101t-36 -100t-97 -41q-62 0 -98 41q-35 39 -35 100z" />
<glyph unicode="&#xec;" horiz-adv-x="573" d="M29 705q44 97 118 177q73 79 148 79q27 0 77 -15t90 -36t36 -36l-205 -745l55 -18l152 104l35 -43q-48 -81 -129 -143q-80 -62 -156 -62q-42 0 -115 33q-37 17 -53.5 30t-13.5 23l196 742l-61 12l-133 -148zM70 1427h260l143 -372h-94z" />
<glyph unicode="&#xed;" horiz-adv-x="573" d="M29 705q44 97 118 177q73 79 148 79q27 0 77 -15t90 -36t36 -36l-205 -745l55 -18l152 104l35 -43q-48 -81 -129 -143q-80 -62 -156 -62q-42 0 -115 33q-37 17 -53.5 30t-13.5 23l196 742l-61 12l-133 -148zM221 1055l244 372h260l-412 -372h-92z" />
<glyph unicode="&#xee;" horiz-adv-x="573" d="M29 705q44 97 118 177q73 79 148 79q27 0 77 -15t90 -36t36 -36l-205 -745l55 -18l152 104l35 -43q-48 -81 -129 -143q-80 -62 -156 -62q-42 0 -115 33q-37 17 -53.5 30t-13.5 23l196 742l-61 12l-133 -148zM57 1055l234 372h241l136 -372h-95l-176 245h-4l-241 -245h-95 z" />
<glyph unicode="&#xef;" horiz-adv-x="573" d="M29 705q44 97 118 177q73 79 148 79q27 0 77 -15t90 -36t36 -36l-205 -745l55 -18l152 104l35 -43q-48 -81 -129 -143q-80 -62 -156 -62q-42 0 -115 33q-37 17 -53.5 30t-13.5 23l196 742l-61 12l-133 -148zM41 1241q0 60 37 101q38 42 98 42q61 0 97 -42t36 -101 t-36 -100t-97 -41q-60 0 -98 41q-37 40 -37 100zM481 1241q0 59 36 101t97 42q62 0 98 -42t36 -101t-36 -100t-98 -41q-61 0 -97 41t-36 100z" />
<glyph unicode="&#xf0;" horiz-adv-x="985" d="M63 385q0 223 141 399q142 177 335 177q120 0 178 -93q-23 164 -123 275l-313 -80l22 98l215 53q-69 56 -184 101l49 80q162 -49 285 -144l276 70l-22 -96l-170 -45q195 -195 200 -486q0 -297 -155 -510q-156 -215 -371 -215q-172 0 -267 115q-96 116 -96 301zM287 297 q0 -97 37 -164t100 -67q85 0 151 114q67 116 97 254q24 118 24 207q0 96 -36 159q-35 62 -101 62q-82 0 -149 -112q-69 -115 -97 -246q-26 -113 -26 -207z" />
<glyph unicode="&#xf1;" horiz-adv-x="1126" d="M25 705q44 95 119 177q72 79 147 79q47 0 124 -24t77 -50q0 -73 -113 -463h22q167 365 248 446q91 91 197 91q77 0 129 -47q51 -46 51 -117q0 -98 -94 -387l-92 -281l55 -18l152 104l34 -43q-48 -81 -129 -143q-80 -62 -155 -62q-44 0 -113 30q-70 30 -70 56 q0 40 115 387q68 219 68 258q0 31 -29 52q-27 20 -66 20q-49 0 -117 -107q-72 -112 -188 -358l-67 -309l-248 -2l76 307l100 487l-57 15l-135 -144zM279 1090q63 276 245 276q68 0 165 -72q96 -71 130 -71q31 0 57 27q23 25 60 98h86q-66 -277 -248 -277q-67 0 -167 73 t-132 73q-30 0 -51 -27q-17 -22 -57 -100h-88z" />
<glyph unicode="&#xf2;" horiz-adv-x="985" d="M63 385q0 223 146 399q147 177 350 177q171 0 266 -115t95 -303q0 -223 -144 -399q-144 -175 -350 -175q-172 0 -267 115q-96 116 -96 301zM287 297q0 -97 37 -164t100 -67q85 0 151 114q67 116 97 254q24 118 24 207q0 96 -36 159q-35 62 -101 62q-82 0 -149 -112 q-69 -115 -97 -246q-26 -113 -26 -207zM287 1427h260l143 -372h-94z" />
<glyph unicode="&#xf3;" horiz-adv-x="985" d="M63 385q0 223 146 399q147 177 350 177q171 0 266 -115t95 -303q0 -223 -144 -399q-144 -175 -350 -175q-172 0 -267 115q-96 116 -96 301zM287 297q0 -97 37 -164t100 -67q85 0 151 114q67 116 97 254q24 118 24 207q0 96 -36 159q-35 62 -101 62q-82 0 -149 -112 q-69 -115 -97 -246q-26 -113 -26 -207zM489 1055l244 372h260l-411 -372h-93z" />
<glyph unicode="&#xf4;" horiz-adv-x="985" d="M63 385q0 223 146 399q147 177 350 177q171 0 266 -115t95 -303q0 -223 -144 -399q-144 -175 -350 -175q-172 0 -267 115q-96 116 -96 301zM285 1055l233 372h242l135 -372h-94l-176 245h-4l-242 -245h-94zM287 297q0 -97 37 -164t100 -67q85 0 151 114q67 116 97 254 q24 118 24 207q0 96 -36 159q-35 62 -101 62q-82 0 -149 -112q-69 -115 -97 -246q-26 -113 -26 -207z" />
<glyph unicode="&#xf5;" horiz-adv-x="985" d="M63 385q0 223 146 399q147 177 350 177q171 0 266 -115t95 -303q0 -223 -144 -399q-144 -175 -350 -175q-172 0 -267 115q-96 116 -96 301zM254 1090q63 276 246 276q68 0 165 -72q96 -71 130 -71q31 0 56 27q23 25 60 98h86q-66 -277 -247 -277q-67 0 -167 73t-132 73 q-31 0 -52 -27q-17 -22 -57 -100h-88zM287 297q0 -97 37 -164t100 -67q85 0 151 114q67 116 97 254q24 118 24 207q0 96 -36 159q-35 62 -101 62q-82 0 -149 -112q-69 -115 -97 -246q-26 -113 -26 -207z" />
<glyph unicode="&#xf6;" horiz-adv-x="985" d="M63 385q0 223 146 399q147 177 350 177q171 0 266 -115t95 -303q0 -223 -144 -399q-144 -175 -350 -175q-172 0 -267 115q-96 116 -96 301zM279 1241q0 61 36 101q37 42 99 42q61 0 97 -42t36 -101t-36 -100t-97 -41t-99 41q-36 39 -36 100zM287 297q0 -97 37 -164 t100 -67q85 0 151 114q67 116 97 254q24 118 24 207q0 96 -36 159q-35 62 -101 62q-82 0 -149 -112q-69 -115 -97 -246q-26 -113 -26 -207zM719 1241q0 59 36 101t97 42t97 -42t36 -101t-36 -100t-97 -41t-97 41t-36 100z" />
<glyph unicode="&#xf7;" horiz-adv-x="983" d="M80 422l6 117h817l6 -117h-829zM391 195q0 42 31 73t76 31q43 0 74 -31q30 -30 30 -73t-30 -75t-74 -32q-46 0 -76 32q-31 33 -31 75zM391 768q0 44 30 75t75 31t75 -31q31 -33 31 -75t-31 -75q-30 -31 -75 -31t-75 31t-30 75z" />
<glyph unicode="&#xf8;" horiz-adv-x="985" d="M27 -264q3 5 28 51q6 11 58 99q35 59 63 110l27 45q-140 114 -140 344q0 223 146 399q147 177 350 177q84 0 156 -33l170 297h90l-195 -336q140 -108 140 -346q0 -223 -144 -399q-144 -175 -350 -175q-92 0 -158 33l-153 -266h-88zM283 297q0 -47 10 -96l360 620 q-41 47 -94 47q-84 0 -152 -113q-70 -116 -100 -251q-24 -105 -24 -207zM330 111q39 -50 94 -50q86 0 155 116q68 114 97 255q24 106 24 209q0 48 -10 92q-358 -622 -360 -622z" />
<glyph unicode="&#xf9;" horiz-adv-x="1126" d="M51 705q44 96 120 177q75 79 148 79q41 0 116 -39t75 -66q0 -43 -109 -367q-65 -211 -65 -247q0 -31 29 -58q27 -26 63 -26q49 0 118 106q66 102 193 359l72 313h248l-86 -307q-95 -476 -105 -504l56 -21l145 105l37 -41q-50 -84 -128 -142q-80 -59 -155 -59 q-43 0 -112 30q-70 30 -70 56q0 81 117 453h-23q-173 -366 -254 -447q-90 -90 -196 -90q-77 0 -129 50t-52 122q0 94 93 379q53 160 88 275l-60 12l-131 -148zM336 1427h260l143 -372h-94z" />
<glyph unicode="&#xfa;" horiz-adv-x="1126" d="M51 705q44 96 120 177q75 79 148 79q41 0 116 -39t75 -66q0 -43 -109 -367q-65 -211 -65 -247q0 -31 29 -58q27 -26 63 -26q49 0 118 106q66 102 193 359l72 313h248l-86 -307q-95 -476 -105 -504l56 -21l145 105l37 -41q-50 -84 -128 -142q-80 -59 -155 -59 q-43 0 -112 30q-70 30 -70 56q0 81 117 453h-23q-173 -366 -254 -447q-90 -90 -196 -90q-77 0 -129 50t-52 122q0 94 93 379q53 160 88 275l-60 12l-131 -148zM528 1055l244 372h260l-411 -372h-93z" />
<glyph unicode="&#xfb;" horiz-adv-x="1126" d="M51 705q44 96 120 177q75 79 148 79q41 0 116 -39t75 -66q0 -43 -109 -367q-65 -211 -65 -247q0 -31 29 -58q27 -26 63 -26q49 0 118 106q66 102 193 359l72 313h248l-86 -307q-95 -476 -105 -504l56 -21l145 105l37 -41q-50 -84 -128 -142q-80 -59 -155 -59 q-43 0 -112 30q-70 30 -70 56q0 81 117 453h-23q-173 -366 -254 -447q-90 -90 -196 -90q-77 0 -129 50t-52 122q0 94 93 379q53 160 88 275l-60 12l-131 -148zM344 1055l234 372h241l135 -372h-94l-176 245h-4l-242 -245h-94z" />
<glyph unicode="&#xfc;" horiz-adv-x="1126" d="M51 705q44 96 120 177q75 79 148 79q41 0 116 -39t75 -66q0 -43 -109 -367q-65 -211 -65 -247q0 -31 29 -58q27 -26 63 -26q49 0 118 106q66 102 193 359l72 313h248l-86 -307q-95 -476 -105 -504l56 -21l145 105l37 -41q-50 -84 -128 -142q-80 -59 -155 -59 q-43 0 -112 30q-70 30 -70 56q0 81 117 453h-23q-173 -366 -254 -447q-90 -90 -196 -90q-77 0 -129 50t-52 122q0 94 93 379q53 160 88 275l-60 12l-131 -148zM328 1241q0 60 37 101q37 42 98 42t97 -42t36 -101t-36 -100t-97 -41q-60 0 -98 41q-37 40 -37 100zM768 1241 q0 59 36 101t97 42t97 -42t36 -101t-36 -100t-97 -41t-97 41t-36 100z" />
<glyph unicode="&#xfd;" horiz-adv-x="974" d="M-166 -346q0 53 36 89t83 36q64 0 104 -46t39 -118l37 -2l258 342l-139 41l-23 799l-59 12l-131 -148l-41 46q43 95 119 177q73 79 147 79q43 0 121 -29q77 -29 78 -55l-14 -777h26l320 553v25q-115 45 -115 133q0 65 40 108q41 44 101 44q69 0 116 -45q46 -45 46 -121 q0 -145 -260 -482l-186 -252l-115 -229q-90 -178 -181 -262q-94 -86 -206 -86q-80 0 -141 47q-60 47 -60 121zM483 1055l244 372h260l-412 -372h-92z" />
<glyph unicode="&#xfe;" horiz-adv-x="1038" d="M-197 -504l7 80l96 23q41 11 51 49l322 1493q12 53 -25 69l-117 56l13 57l417 104l-116 -469l-103 -419h21q114 230 199 325q86 97 188 97q96 0 160 -82q65 -83 65 -215q0 -150 -63 -300t-168 -255q-140 -140 -283 -140q-120 0 -188 107h-13l-86 -428q-6 -37 43 -49 l133 -23l9 -80h-562zM297 215q43 -59 107 -104t108 -45q34 0 66 32q69 69 122 224q54 157 54 276q0 78 -27 130t-72 52q-51 0 -115 -85t-192 -300z" />
<glyph unicode="&#xff;" horiz-adv-x="974" d="M-166 -346q0 53 36 89t83 36q64 0 104 -46t39 -118l37 -2l258 342l-139 41l-23 799l-59 12l-131 -148l-41 46q43 95 119 177q73 79 147 79q43 0 121 -29q77 -29 78 -55l-14 -777h26l320 553v25q-115 45 -115 133q0 65 40 108q41 44 101 44q69 0 116 -45q46 -45 46 -121 q0 -145 -260 -482l-186 -252l-115 -229q-90 -178 -181 -262q-94 -86 -206 -86q-80 0 -141 47q-60 47 -60 121zM262 1241q0 60 37 101q38 42 98 42q62 0 98 -42q35 -41 35 -101q0 -61 -35 -100q-36 -41 -98 -41q-60 0 -98 41q-37 40 -37 100zM702 1241q0 59 36 101t98 42 q61 0 97 -42t36 -101t-36 -100t-97 -41q-62 0 -98 41t-36 100z" />
<glyph unicode="&#x152;" horiz-adv-x="1982" d="M98 565q0 290 211 498q97 97 258 158q156 59 351 59h1062l-65 -422h-131l-23 170q-6 47 -18 74q-11 25 -32 46q-19 20 -69 27q-45 7 -106 10q-57 3 -164 3h-80l-69 -496h39q86 0 136 16q46 15 70 58l58 131h104l-112 -496h-105l2 131q2 39 -32 54q-32 14 -142 14h-31 l-67 -508h88q185 0 256 11q78 12 120 42q41 29 76 107l70 151h148l-95 -403h-1061q-306 -2 -476 154q-171 156 -171 411zM393 563q0 -220 101 -345q100 -124 294 -124h82l146 1063l-139 31q-211 -10 -348 -174q-136 -163 -136 -451z" />
<glyph unicode="&#x153;" horiz-adv-x="1466" d="M63 385q0 223 144 399q145 177 352 177q214 0 291 -187q142 187 350 187q118 0 185 -58t67 -147q0 -21 -5 -44q-4 -19 -22 -42q-17 -21 -31 -37q-15 -17 -48 -39t-60 -39q-21 -13 -78 -43q-20 -11 -51.5 -27t-37.5 -19q-9 -5 -45 -23t-62 -32q-14 -7 -57.5 -30t-63.5 -33 v-26q0 -88 51 -145q50 -56 129 -56q62 0 260 135l33 -43q-187 -244 -385 -244q-181 0 -248 150q-129 -150 -305 -150q-172 0 -267 115q-96 116 -96 301zM287 297q0 -97 37 -164t100 -67q85 0 151 114q67 116 97 254q24 118 24 207q0 96 -36 159q-35 62 -101 62 q-82 0 -149 -112q-69 -115 -97 -246q-26 -113 -26 -207zM889 420h6q204 112 281 178q75 65 75 147q0 37 -55 67q-56 30 -96 30q-41 0 -64 -23q-41 -41 -86 -155q-44 -112 -61 -244z" />
<glyph unicode="&#x178;" horiz-adv-x="1222" d="M59 1280h588l-6 -84l-82 -12q-52 -7 -54 -56q-1 -46 42 -145l145 -356h17l235 354q67 97 68 142q1 23 -15 38t-47 21l-73 14l-7 84h478l-7 -84l-49 -14q-61 -16 -108 -56q-50 -42 -131 -159l-295 -428l-49 -385q-6 -42 41 -50l120 -22l-2 -82h-628l12 82l131 22 q45 6 53 50l49 372l-249 543q-27 51 -50 74t-59 33l-61 20zM416 1583q0 60 37 101q38 42 98 42q61 0 97 -42t36 -101t-36 -100t-97 -41q-60 0 -98 41q-37 40 -37 100zM856 1583q0 59 36 101t97 42t97 -42t36 -101t-36 -100t-97 -41t-97 41t-36 100z" />
<glyph unicode="&#x2c6;" horiz-adv-x="819" d="M160 1055l233 372h242l135 -372h-94l-176 245h-4l-242 -245h-94z" />
<glyph unicode="&#x2dc;" horiz-adv-x="819" d="M115 1090q63 276 245 276q68 0 165 -72q96 -71 130 -71q31 0 57 27q23 25 60 98h86q-66 -277 -248 -277q-67 0 -167 73t-132 73q-30 0 -51 -27q-17 -22 -57 -100h-88z" />
<glyph unicode="&#x2000;" horiz-adv-x="884" />
<glyph unicode="&#x2001;" horiz-adv-x="1769" />
<glyph unicode="&#x2002;" horiz-adv-x="884" />
<glyph unicode="&#x2003;" horiz-adv-x="1769" />
<glyph unicode="&#x2004;" horiz-adv-x="589" />
<glyph unicode="&#x2005;" horiz-adv-x="442" />
<glyph unicode="&#x2006;" horiz-adv-x="294" />
<glyph unicode="&#x2007;" horiz-adv-x="294" />
<glyph unicode="&#x2008;" horiz-adv-x="221" />
<glyph unicode="&#x2009;" horiz-adv-x="353" />
<glyph unicode="&#x200a;" horiz-adv-x="98" />
<glyph unicode="&#x2010;" horiz-adv-x="681" d="M68 440l6 123h538l6 -123h-550z" />
<glyph unicode="&#x2011;" horiz-adv-x="681" d="M68 440l6 123h538l6 -123h-550z" />
<glyph unicode="&#x2012;" horiz-adv-x="681" d="M68 440l6 123h538l6 -123h-550z" />
<glyph unicode="&#x2013;" horiz-adv-x="962" d="M63 440l7 123h831l6 -123h-844z" />
<glyph unicode="&#x2014;" horiz-adv-x="1925" d="M63 440l7 123h1794l6 -123h-1807z" />
<glyph unicode="&#x2018;" horiz-adv-x="495" d="M104 909q0 127 121 247t314 204l41 -49q-106 -58 -178 -137q-72 -80 -72 -156q0 -33 13 -60t32 -48q13 -14 37 -34q25 -21 30 -24l13 -8q-6 -51 -53 -90q-46 -39 -109 -39q-83 0 -136 57q-53 58 -53 137z" />
<glyph unicode="&#x2019;" horiz-adv-x="495" d="M88 766q97 54 163 128q64 71 64 144q0 35 -14 63q-15 30 -35 50q-21 21 -42 36q-23 17 -36 23l-14 9q0 50 47 91q46 40 111 40q81 0 137 -61q55 -59 55 -144q0 -121 -108 -232q-106 -109 -277 -196z" />
<glyph unicode="&#x201a;" horiz-adv-x="495" d="M-78 -301q97 54 163 128q65 73 65 144q0 33 -15 63t-35 50q-21 21 -42 36q-26 18 -35 23l-15 9q0 50 47 91q46 40 111 40q81 0 137 -61q55 -59 55 -144q0 -121 -108 -232q-106 -109 -277 -196z" />
<glyph unicode="&#x201c;" horiz-adv-x="937" d="M104 920q0 119 109 230q106 108 279 198l49 -50q-97 -56 -162 -130q-64 -73 -64 -144q0 -32 15 -62q16 -32 35 -51q14 -14 42 -34q26 -18 35 -23q15 -8 15 -10q0 -48 -48 -89q-47 -40 -110 -40q-84 0 -139 60q-56 61 -56 145zM561 920q0 227 385 428l51 -50 q-95 -55 -161 -130q-64 -73 -64 -144q0 -34 14 -62q16 -32 35 -51q16 -16 41 -34q26 -18 35 -23q14 -7 14 -10q0 -48 -47 -89q-46 -40 -108 -40q-84 0 -140 60q-55 59 -55 145z" />
<glyph unicode="&#x201d;" horiz-adv-x="937" d="M96 766q95 52 161 127q65 74 65 145q0 33 -15 63t-35 50q-24 24 -41 36q-28 20 -34 23l-15 9q0 50 47 91q46 40 109 40q80 0 138 -61q56 -59 56 -144q0 -121 -108 -232q-106 -109 -279 -196zM553 766q96 56 161 128q64 71 64 144q0 35 -14 63q-15 30 -35 50 q-21 21 -42 36q-23 17 -36 23l-14 9q0 50 47 91q46 40 111 40q81 0 137 -61q55 -59 55 -144q0 -121 -108 -232q-106 -109 -277 -196z" />
<glyph unicode="&#x201e;" horiz-adv-x="937" d="M-70 -301q95 52 161 127q65 74 65 145q0 33 -15 63q-16 32 -34 50q-23 24 -41 36q-26 18 -35 23l-15 9q0 50 47 91q46 40 109 40q80 0 138 -61q57 -60 57 -144q0 -120 -109 -232q-107 -110 -278 -196zM387 -301q96 56 161 128q64 71 64 144q0 35 -14 63t-36 50 q-21 21 -42 36q-26 18 -35 23l-14 9q0 50 47 91q46 40 111 40q81 0 137 -61q55 -59 55 -144q0 -121 -108 -232q-106 -109 -277 -196z" />
<glyph unicode="&#x2022;" horiz-adv-x="931" d="M72 475q0 46 43 147q44 103 73 132t134 72q102 42 145 42q44 0 146 -42t132 -72q32 -32 73 -132q42 -102 42 -147q0 -43 -41 -146q-40 -100 -74 -134q-31 -31 -133 -73t-147 -42q-44 0 -146 42q-101 42 -131 73q-29 32 -73 135q-43 101 -43 145z" />
<glyph unicode="&#x2026;" horiz-adv-x="1425" d="M37 127q0 66 46 112t114 46q67 0 112 -46q45 -47 45 -112t-46 -112q-46 -48 -111 -48q-67 0 -114 47q-46 46 -46 113zM512 127q0 66 46 112t114 46q67 0 112 -46q45 -47 45 -112t-46 -112q-47 -48 -111 -48q-67 0 -114 47q-46 46 -46 113zM987 127q0 66 46 112t114 46 t113 -46q45 -47 45 -112q0 -63 -47 -112q-46 -48 -111 -48q-67 0 -114 47q-46 46 -46 113z" />
<glyph unicode="&#x202f;" horiz-adv-x="353" />
<glyph unicode="&#x2039;" horiz-adv-x="614" d="M47 399v115l533 324l18 -43l-371 -342l285 -326l-27 -43z" />
<glyph unicode="&#x203a;" horiz-adv-x="614" d="M33 119l338 334l-254 333l26 43l439 -315l-13 -123l-518 -315z" />
<glyph unicode="&#x205f;" horiz-adv-x="442" />
<glyph unicode="&#x20ac;" horiz-adv-x="1062" d="M20 442l7 97h123v12q5 91 14 145h-111l6 97h127q66 221 224 359q157 138 368 138q144 0 227 -51q84 -52 85 -127q0 -58 -33 -95q-33 -38 -86 -38q-63 0 -100 54t-33 130q-45 33 -111 33q-116 0 -204 -109q-86 -107 -124 -294h414l6 -97h-436q-8 -96 -8 -135v-22h405 l6 -97h-403q21 -154 98 -237q78 -84 211 -84q134 0 275 117l28 -41q-60 -101 -165 -164q-107 -64 -224 -64q-196 0 -313 132q-116 131 -139 341h-134z" />
<glyph unicode="&#x2122;" horiz-adv-x="1918" d="M109 983l16 297h706v-297h-83l-11 39q-33 121 -63 157q-29 35 -123 35h-2v-593q0 -23 24 -29l80 -12l4 -62h-385l4 62l80 12q27 6 27 29v593h-2q-80 0 -114 -38q-33 -37 -68 -154l-13 -39h-77zM907 518l4 62l62 10q25 5 34 39q8 32 13 168l12 379q0 26 -24 30l-72 13 l-4 61h348l113 -557h20l160 557h344l-4 -61l-68 -13q-28 -6 -28 -30l8 -461q1 -70 11 -94q9 -23 30 -27l61 -14l4 -62h-370l2 62l67 14q17 5 22 26t3 95l-10 475h-21l-199 -647h-139l-153 653h-21l-12 -399q-4 -131 -1 -168q3 -33 23 -39l66 -10l4 -62h-285z" />
<glyph unicode="&#x25fc;" horiz-adv-x="962" d="M0 0v963h963v-963h-963z" />
</font>
</defs>
</svg>
