<?xml version="1.0" standalone="no"?>
<!DOCTYPE svg PUBLIC "-//W3C//DTD SVG 1.1//EN" "http://www.w3.org/Graphics/SVG/1.1/DTD/svg11.dtd" >
<svg xmlns="http://www.w3.org/2000/svg" xmlns:xlink="http://www.w3.org/1999/xlink" version="1.1">
<metadata></metadata>
<defs>
<font id="freighttextfreighttextproBkIt" horiz-adv-x="966" >
<font-face units-per-em="2048" ascent="1489" descent="-559" />
<missing-glyph horiz-adv-x="466" />
<glyph unicode="&#xfb01;" horiz-adv-x="991" d="M-305 -385q0 46 25 74t67 28q48 0 77 -36q30 -37 36 -95l120 64q36 84 91 381l137 788l-185 8l7 58l192 43q45 259 168 377q51 51 130 84q77 32 163 32q81 0 134 -41q52 -40 52 -96q0 -47 -26 -77q-27 -31 -68 -31q-48 0 -80 38t-43 101l-203 -37q-64 -115 -98 -360h283 q44 28 78 28t86 -36q53 -36 47 -58l-211 -764l47 -16l184 141l33 -37q-43 -71 -126 -139t-138 -68q-30 0 -80 38t-45 56l201 756l-15 6h-360l-117 -645q-82 -462 -201 -590q-88 -94 -217 -94q-62 0 -103 34q-42 35 -42 85z" />
<glyph unicode="&#xfb02;" horiz-adv-x="1013" d="M-305 -385q0 46 25 74t67 28q48 0 77 -36q30 -37 36 -95l125 64q47 93 92 381l125 788l-179 8l7 58l192 43q45 259 168 377q51 51 130 84q77 32 163 32q65 0 115 -28l157 34l-297 -1333l58 -18l176 137l31 -37q-43 -71 -126 -139t-139 -68q-30 0 -80 38t-45 56l162 762 h-360l-117 -645q-82 -462 -201 -590q-88 -94 -217 -94q-62 0 -103 34q-42 35 -42 85zM391 918h363l65 305q-39 -10 -68 16t-40 80l-215 -35q-68 -118 -105 -366z" />
<glyph unicode="&#xfb03;" horiz-adv-x="1492" d="M-305 -385q0 46 25 74t67 28q48 0 77 -36q30 -37 36 -95l120 64q36 84 91 381l137 788l-185 8l7 58l192 43q45 247 162 364q106 111 256 111q79 0 128 -40q50 -41 50 -93q0 -45 -25 -74q-26 -31 -65 -31q-95 0 -119 133l-166 -36q-64 -142 -92 -344h371q45 263 170 387 q51 51 130 84q77 32 163 32q81 0 134 -41q52 -40 52 -96q0 -46 -27 -77t-67 -31q-48 0 -80 38t-43 101l-203 -37q-68 -124 -98 -360h283q44 28 77 28t86 -36t47 -58l-210 -764l47 -16l184 141l33 -37q-43 -71 -126 -139t-138 -68q-30 0 -80 38t-45 56l200 756l-14 6h-360 l-109 -589q-90 -473 -201 -590q-97 -97 -198 -97q-61 0 -105 35q-43 34 -43 86q0 44 27 72q27 29 65 29q49 0 79 -37q30 -38 36 -94l107 65q46 102 92 381l118 739h-370l-117 -645q-82 -462 -201 -590q-88 -94 -217 -94q-62 0 -103 34q-42 35 -42 85z" />
<glyph unicode="&#xfb04;" horiz-adv-x="1515" d="M-305 -385q0 46 25 74t67 28q48 0 77 -36q30 -37 36 -95l120 64q36 84 91 381l137 788l-185 8l7 58l192 43q45 247 162 364q106 111 256 111q79 0 128 -40q50 -41 50 -93q0 -45 -25 -74q-26 -31 -65 -31q-95 0 -119 133l-166 -36q-64 -142 -92 -344h371q45 263 170 387 q51 51 130 84q77 32 163 32q65 0 114 -28l158 34l-297 -1333l57 -18l175 137l32 -37q-43 -71 -126 -139t-138 -68q-30 0 -80 38t-45 56l162 762h-360l-109 -589q-85 -465 -201 -590q-97 -97 -198 -97q-61 0 -105 35q-43 34 -43 86q0 44 27 72q27 29 65 29q49 0 79 -37 q30 -38 36 -94l107 65q46 102 92 381l118 739h-370l-117 -645q-82 -462 -201 -590q-88 -94 -217 -94q-62 0 -103 34q-42 35 -42 85zM893 918h362l66 305q-40 -11 -70 15q-32 27 -39 81l-215 -35q-74 -126 -104 -366z" />
<glyph horiz-adv-x="0" />
<glyph unicode="&#xd;" horiz-adv-x="681" />
<glyph unicode=" "  horiz-adv-x="466" />
<glyph unicode="&#x09;" horiz-adv-x="466" />
<glyph unicode="&#xa0;" horiz-adv-x="466" />
<glyph unicode="!" horiz-adv-x="575" d="M125 86q0 45 34 79t85 34q49 0 82 -34q32 -33 32 -79q0 -49 -32 -82q-33 -35 -82 -35q-51 0 -86 35t-33 82zM256 406l33 831q5 74 78 74h30q53 0 74.5 -20.5t11.5 -61.5l-184 -826q-2 -13 -23 -11q-20 1 -20 14z" />
<glyph unicode="&#x22;" horiz-adv-x="727" d="M80 825l233 500h2l152 -53l-320 -447h-67zM399 825l236 500h2l151 -53l-319 -447h-70z" />
<glyph unicode="#" horiz-adv-x="1148" d="M4 371v71h283l104 389h-264v72h283l108 389h74l-107 -389h359l104 389h74l-104 -389h266v-72h-287l-104 -389h268v-71h-287l-102 -383h-74l102 383h-358l-102 -383h-74l102 383h-264zM360 442h359l104 389h-356z" />
<glyph unicode="$" horiz-adv-x="1019" d="M41 25l20 362h80l52 -283q58 -30 126 -41l146 537q-147 82 -222 165t-75 212q0 149 132 241q131 91 302 91q31 0 53 -2l58 204h73q-55 -206 -57 -206q84 -11 141 -25l109 27l-53 -394h-84l-21 256q-43 24 -116 41l-132 -481q78 -44 122 -74q51 -35 96 -77q54 -51 77 -106 q25 -59 25 -126q0 -172 -138 -274q-139 -103 -341 -103h-45l-84 -309h-74l84 313q-122 10 -254 52zM322 1034q-2 -84 45 -144t143 -122q1 6 5 20t7.5 28t7.5 28t9.5 35t14.5 53t16 58q33 121 44 165l19 66q-33 4 -62 4q-97 0 -174 -50q-75 -49 -75 -141zM393 55q22 -2 51 -2 q130 0 212 62q81 62 81 172q1 85 -51 147q-51 60 -158 127z" />
<glyph unicode="%" horiz-adv-x="1527" d="M92 -31l1294 1340h117l-1294 -1340h-117zM113 946q0 157 109 267q110 112 263 112q139 0 231 -82q93 -83 93 -219q0 -159 -110 -271t-267 -112q-136 0 -227 84q-92 84 -92 221zM203 950q0 -103 68 -167t169 -64q116 0 196 84q79 83 79 201q0 103 -67 172q-66 67 -171 67 q-115 0 -194 -88q-80 -89 -80 -205zM801 254q0 161 107 271q109 112 266 112q136 0 227 -82q92 -83 92 -219q0 -158 -111 -270q-111 -113 -266 -113q-139 0 -227 82t-88 219zM891 262q0 -102 66 -167q65 -64 167 -64q114 0 197 87q82 86 82 206q0 99 -69 165t-169 66 q-115 0 -194 -88q-80 -89 -80 -205z" />
<glyph unicode="&#x26;" horiz-adv-x="1265" d="M12 268q0 164 108 266q106 100 265 138v2q-141 152 -141 293q0 144 111 243t268 99q135 0 227 -74t92 -191q0 -247 -385 -352v-2l272 -297h2l252 236v4q-41 7 -68 39q-26 31 -26 65q0 43 32 70q31 27 79 27q51 0 84 -37t33 -84q0 -139 -228 -285l-119 -78l306 -332 l-166 -49l-252 289h-2q-123 -146 -230 -218q-108 -73 -237 -73q-119 0 -198 88t-79 213zM162 307q0 -95 52 -154q53 -61 124 -61q140 0 381 207l-299 338q-258 -135 -258 -330zM393 1010q0 -87 30 -144q32 -60 95 -135q140 68 207 136q68 70 68 165q0 90 -50 148 q-49 57 -135 57q-95 0 -155 -66t-60 -161z" />
<glyph unicode="'" horiz-adv-x="405" d="M78 825l235 500h2l152 -53l-320 -447h-69z" />
<glyph unicode="(" horiz-adv-x="808" d="M190 428q0 172 54 340q52 163 137 281q81 113 174 198q88 81 178 125q49 -65 49 -69q-183 -96 -336 -335q-153 -238 -153 -540q0 -156 47 -306q46 -148 122 -257q79 -114 156 -188q79 -76 164 -121l-49 -72q-90 44 -178 125q-93 85 -174 198q-85 118 -137 281 q-54 168 -54 340z" />
<glyph unicode=")" horiz-adv-x="808" d="M27 -446q182 95 335 334q154 240 154 540t-154 540t-335 335l51 69q91 -45 177 -125q93 -87 173 -198q85 -118 137 -281q53 -165 53 -340t-53 -340q-52 -163 -137 -281q-80 -111 -173 -198q-86 -80 -177 -125q-51 66 -51 70z" />
<glyph unicode="*" horiz-adv-x="710" d="M129 793l70 116l178 49l2 35l-174 54l-64 110l27 37l129 -25l100 -155l35 10l6 190l86 93l45 -15l11 -127l-125 -151l20 -27l184 62l111 -56l-2 -45l-115 -55l-180 63l-20 -26l108 -152l-22 -127l-43 -10l-82 94l12 189l-31 8l-112 -150l-127 -26z" />
<glyph unicode="+" horiz-adv-x="983" d="M66 430l6 100h368v379h105v-379h366l7 -100h-373v-381h-105v381h-374z" />
<glyph unicode="," horiz-adv-x="462" d="M-55 -307q202 122 209 266q2 31 -12 58q-15 31 -32 46q-20 18 -39 33q-22 17 -34 23l-14 6q2 44 39 74t92 30q70 0 119 -54q50 -55 49 -132q-6 -196 -334 -387z" />
<glyph unicode="-" horiz-adv-x="671" d="M51 428l6 104h525l6 -104h-537z" />
<glyph unicode="." horiz-adv-x="464" d="M61 96q0 51 36 87t91 36q56 0 92 -37q35 -36 33 -86q0 -53 -35 -89q-36 -38 -90 -38t-92 38q-37 37 -35 89z" />
<glyph unicode="/" horiz-adv-x="571" d="M18 -432l439 1790h92l-438 -1790h-93z" />
<glyph unicode="0" horiz-adv-x="1034" d="M82 410q0 229 132 404t337 175q172 0 280 -118q109 -120 109 -318q0 -150 -56 -281q-57 -133 -166 -218t-245 -85q-172 0 -282 119q-109 118 -109 322zM203 410q0 -146 78 -240t198 -94q113 0 194 81q80 80 113 185t33 211q0 143 -78 235q-79 93 -196 93q-112 0 -195 -80 q-80 -77 -114 -183q-33 -102 -33 -208z" />
<glyph unicode="1" horiz-adv-x="749" d="M57 0l9 70l161 20q36 1 41 37l99 727l-232 29l15 59l376 35l-114 -850q-5 -36 32 -37l160 -20l4 -70h-551z" />
<glyph unicode="2" horiz-adv-x="917" d="M20 0l5 113q72 50 130 91q26 18 68.5 48t58.5 41q19 14 107 80q61 47 96 81q53 53 70 73q35 42 50 78q16 40 16 77q0 85 -61 135q-59 49 -150 49q-144 0 -287 -127l-19 47q74 85 184 142t214 57q123 0 204 -65q82 -66 82 -181q0 -65 -31 -127q-31 -63 -78 -114t-126 -111 q-73 -55 -149 -103q-138 -87 -173 -108q-55 -33 -67 -41l-2 -10h59q190 0 281 8q83 7 125 30q37 20 67 75l49 100h84l-98 -338h-709z" />
<glyph unicode="3" horiz-adv-x="849" d="M-68 -279q0 40 31 71q30 30 72 30q55 0 96 -44t47 -102q32 -8 68 -8q128 0 226 102q97 101 97 234q0 108 -66 176t-181 68q-88 0 -166 -33l-19 49q24 15 68 40q57 32 82 49q5 3 31.5 20.5t46.5 30.5q47 32 79 62q32 31 62 63q32 34 47 73q14 35 14 76q0 91 -55 140 q-56 50 -143 50q-132 0 -295 -125l-21 48q205 196 410 196q122 0 207 -67q86 -68 86 -187q0 -203 -381 -395v-4q30 6 71 6q123 0 207 -78t84 -201q0 -127 -87 -239t-216 -174q-130 -62 -256 -62q-36 0 -72 7q-41 8 -79 22q-41 15 -68 42t-27 64z" />
<glyph unicode="4" horiz-adv-x="956" d="M-25 80l2 74l777 841h59l-108 -825h231l-27 -90h-217l-59 -457h-146l60 457h-572zM100 170h459l86 588h-8z" />
<glyph unicode="5" horiz-adv-x="874" d="M-72 -276q1 40 33 72q30 30 72 30q56 0 97 -44q39 -42 44 -104q29 -8 64 -8q130 0 224 82q95 83 99 203q1 78 -36 148q-37 71 -108 126q-73 57 -147 98q-75 41 -166 76l218 560h520l-25 -154h-469l-108 -289q476 -183 469 -487q-8 -197 -164 -322q-157 -125 -367 -125 q-86 0 -170 35q-82 34 -80 103z" />
<glyph unicode="6" horiz-adv-x="1036" d="M84 449q0 218 145 415q146 199 375 323q226 123 481 150l27 -55q-316 -66 -545 -242q-226 -174 -329 -434l20 -2q73 102 172 161q100 60 195 60q135 0 226 -99q91 -98 91 -269q0 -194 -144 -341t-321 -147q-170 0 -281 135q-112 136 -112 345zM233 385q0 -141 68 -245 q67 -103 182 -103q122 0 214 119q91 118 91 286q0 132 -67 215q-67 84 -154 84q-180 0 -313 -217q-21 -90 -21 -139z" />
<glyph unicode="7" horiz-adv-x="915" d="M23 -379l749 1188v10h-283q-159 0 -198 -9t-60 -50q-65 -112 -67 -123h-68l86 326h725v-89l-780 -1253h-104z" />
<glyph unicode="8" horiz-adv-x="997" d="M86 313q8 232 317 334v4q-206 121 -198 307q5 155 120 249q117 95 283 91q142 -5 240 -94t92 -227q-8 -219 -276 -318v-4q241 -136 233 -333q-6 -174 -129 -265q-124 -92 -309 -88q-156 5 -268 101q-111 96 -105 243zM238 313q-6 -123 64 -199q71 -78 200 -79 q110 -4 178 56t74 171q2 62 -22 113q-24 52 -77 99q-49 43 -94 75q-38 27 -110 69q-207 -123 -213 -305zM350 1020q-6 -99 67 -178q74 -80 199 -152q168 100 175 283q4 107 -53 186t-163 80q-101 2 -160 -59q-61 -62 -65 -160z" />
<glyph unicode="9" horiz-adv-x="1036" d="M-80 -326q318 66 544 241t331 435l-21 2q-73 -102 -173 -161q-102 -60 -193 -60q-136 0 -227 99q-91 98 -91 270q0 195 143 341t320 146q171 0 283 -135q112 -134 112 -344q0 -219 -145 -416t-375 -322q-228 -124 -483 -151zM244 514q0 -131 66 -215t153 -84 q180 0 313 217q21 90 21 139q0 140 -67 245q-66 104 -183 104q-120 0 -212 -119q-91 -118 -91 -287z" />
<glyph unicode=":" horiz-adv-x="462" d="M61 96q0 51 36 87t91 36q56 0 92 -37q35 -36 33 -86q0 -53 -35 -89q-36 -38 -90 -38t-92 38q-37 37 -35 89zM145 731q0 51 37 87q38 36 90 36q56 0 92 -36q35 -35 35 -87q-1 -50 -38 -88q-36 -37 -89 -37q-55 0 -91 37t-36 88z" />
<glyph unicode=";" horiz-adv-x="462" d="M-55 -307q202 122 209 266q2 31 -12 58q-15 31 -32 46q-20 18 -39 33q-22 17 -34 23l-14 6q2 44 39 74t92 30q70 0 119 -54q50 -55 49 -132q-6 -196 -334 -387zM145 731q0 51 36 87t91 36q56 0 92 -37q35 -36 33 -86q0 -51 -36 -88t-89 -37q-55 0 -91 37t-36 88z" />
<glyph unicode="&#x3c;" horiz-adv-x="983" d="M59 457v49l820 385l24 -92l-667 -312v-10l667 -313l-24 -92z" />
<glyph unicode="=" horiz-adv-x="983" d="M86 250l6 100h799l6 -100h-811zM86 707h811l-6 -101h-799z" />
<glyph unicode="&#x3e;" horiz-adv-x="983" d="M80 164l668 313v10l-668 312l24 92l820 -385v-49l-820 -385z" />
<glyph unicode="?" horiz-adv-x="727" d="M123 86q0 45 34 79t85 34q52 0 83 -33q31 -32 31 -80t-31 -82q-32 -35 -83 -35q-50 0 -85 35q-34 34 -34 82zM166 590q0 106 68 158q70 53 192 92q72 24 102 36q35 14 64 39q33 29 33 64q0 69 -96 124q-95 54 -232 54q-43 0 -96 -8q-11 16 -11 45q0 52 39 82 q40 31 111 31q152 0 260 -100t109 -226q0 -125 -66 -183q-67 -60 -184 -98q-131 -46 -164 -77q-35 -38 -35 -91q0 -70 82 -161l-63 4q-113 113 -113 215z" />
<glyph unicode="@" horiz-adv-x="1708" d="M111 537q8 214 120 392t298 280q187 102 399 98q318 -7 532 -209t199 -504q-11 -225 -141 -372q-130 -146 -312 -146q-134 0 -177 51q-44 52 -28 106l72 314h-26q-228 -441 -371 -441q-81 0 -145 64q-62 62 -62 135q0 121 73 293q72 169 165 262q94 94 200 94 q72 0 126 -45q56 -47 79 -116h23l51 137h96l-117 -334l-45 -365q-6 -35 22 -60q27 -24 89 -24q143 0 239 128t107 319q15 273 -176 453q-191 181 -477 188q-290 6 -504 -201q-215 -208 -227 -495q-15 -312 177 -517q192 -206 480 -206q117 0 252 41l20 -68 q-143 -47 -278 -47q-322 0 -536 226t-197 569zM608 334q0 -66 36 -100q34 -33 77 -33q41 0 134 132q92 131 187 304q29 53 29 82q-27 52 -85 99q-58 48 -120 48q-56 0 -88 -32q-55 -54 -113 -224q-57 -168 -57 -276z" />
<glyph unicode="A" horiz-adv-x="1181" d="M-66 0l7 70l96 20q34 11 51 31q20 23 41 67l451 1012v60l190 47l211 -1166q5 -20 8 -24q7 -11 15 -17q12 -9 28 -10l117 -20l6 -70h-512l6 70l121 16q34 7 34 39q0 6 -1 14l-53 324h-402l-98 -234q-22 -55 -22 -89q0 -42 34 -50l111 -20l6 -70h-445zM383 547h352l-94 583 h-10z" />
<glyph unicode="B" horiz-adv-x="1169" d="M27 0l6 70l127 20q35 6 41 37l137 1026q5 29 -33 37l-119 20l-6 70h498q210 0 319 -80t109 -215q0 -121 -92 -207t-238 -119l6 -8q140 -27 219 -106q80 -80 80 -185q0 -133 -96 -229q-134 -131 -426 -131h-532zM369 102q8 0 76 -13t77 -13h76q126 0 212 75q85 75 85 195 q0 125 -94 200t-236 75h-129zM446 694h138q151 0 249 68q97 67 97 190q0 124 -88 188t-236 64h-90z" />
<glyph unicode="C" horiz-adv-x="1255" d="M102 532q0 158 60 307t168 257q213 213 501 213q153 0 277 -39l145 33l-55 -416h-84l-20 272q-126 70 -269 70q-225 0 -384 -204q-158 -203 -158 -501q0 -240 137 -377q98 -98 264 -98q122 0 246 62l121 274h96l-98 -387l-95 20q-154 -49 -280 -49q-274 0 -423 151 t-149 412z" />
<glyph unicode="D" horiz-adv-x="1331" d="M27 0l6 70l127 20q35 6 41 37l137 1026q5 29 -33 37l-119 20l-6 70h490q275 0 441 -154q165 -153 165 -409q0 -298 -201 -496q-101 -104 -260 -163q-156 -58 -344 -58h-444zM369 104l149 -28q253 11 413 180q161 170 161 467q0 223 -120 352t-343 129h-115z" />
<glyph unicode="E" horiz-adv-x="1175" d="M27 0l6 70l127 20q35 6 41 37l137 1026q6 30 -31 37l-119 20l-6 70h983l-49 -371h-88l-18 207q-6 51 -39 66q-51 22 -385 22h-70l-70 -514h70q131 0 164 6q32 6 47 33l66 137h69l-100 -426h-68l8 131q2 20 -9 27q-14 9 -55 13q-48 5 -136 5h-66l-71 -540h47q232 0 317 7 q94 8 124 22q32 15 50 59l82 198h98l-86 -362h-970z" />
<glyph unicode="F" horiz-adv-x="1128" d="M27 0l6 70l127 20q35 6 41 37l137 1026q6 30 -31 37l-119 20l-6 70h967l-49 -371h-90l-19 207q-4 34 -12 49q-7 14 -56 25q-48 10 -120 12q-96 2 -236 2h-51l-72 -526h82q130 0 165 6q33 6 48 33l66 137h69l-100 -426h-67l8 131q2 20 -10 27q-14 9 -57 13q-48 5 -136 5 h-78l-63 -477q-6 -30 30 -37l134 -20l6 -70h-514z" />
<glyph unicode="G" horiz-adv-x="1341" d="M102 532q0 158 60 307t168 257q213 213 501 213q147 0 271 -39l145 33l-55 -416h-84l-21 272q-126 70 -262 70q-224 0 -383 -203q-159 -202 -159 -502q0 -237 137 -374q96 -101 266 -101q117 0 219 45l47 342q6 35 -32 39l-134 21l-6 67h502l-6 -67l-117 -21 q-37 -7 -43 -39l-45 -311l115 -21l4 -55q-288 -80 -518 -80q-272 0 -421 153q-149 154 -149 410z" />
<glyph unicode="H" horiz-adv-x="1468" d="M31 0l6 70l125 20q36 6 41 37l137 1026q6 30 -31 37l-119 20l-6 70h500l-6 -70l-127 -20q-35 -6 -41 -37l-59 -455h620l62 455q1 17 -4 26q-4 6 -27 11l-121 20l-6 70h502l-9 -70l-125 -20q-34 -6 -40 -37l-138 -1026q-6 -30 31 -37l119 -20l6 -70h-500l6 70l127 20 q35 6 41 37l66 487h-623l-65 -487q-2 -29 33 -37l118 -20l6 -70h-499z" />
<glyph unicode="I" horiz-adv-x="716" d="M37 0l6 70l141 20q35 6 41 37l137 1026q6 31 -30 37l-135 20l-7 70h529l-6 -70l-142 -20q-35 -6 -41 -37l-135 -1026q-6 -31 31 -37l135 -20l6 -70h-530z" />
<glyph unicode="J" horiz-adv-x="798" d="M-20 168q28 25 69 25q118 -4 139 -156h2q88 17 134 105q47 89 77 325l93 686q5 31 -31 37l-154 20l-6 70h547l-6 -70l-139 -20q-36 -6 -41 -37l-89 -666q-34 -257 -143 -388q-108 -130 -274 -130q-91 0 -150 37q-57 36 -57 94q0 42 29 68z" />
<glyph unicode="K" horiz-adv-x="1294" d="M27 0l6 70l127 20q35 6 41 37l137 1026q6 30 -31 37l-119 20l-6 70h500l-8 -70l-125 -20q-35 -6 -41 -37l-72 -543l461 418q12 10 30 27q12 11 26 25q3 3 10.5 10t11.5 11l4.5 4.5l4 4t3.5 3t3.5 3.5t2.5 3q10 13 13 17q2 3 5 8t4 6q3 4 3 11q0 22 -41 37l-84 14l-6 70 h485l-6 -68l-61 -8q-80 -12 -193 -106l-401 -359l344 -594q18 -26 30 -37q16 -14 24 -17q7 -2 32 -9l73 -14l7 -70h-441l6 70l82 18q27 6 6 39l-284 516l-172 -147l-47 -369q-6 -30 30 -37l121 -20l6 -70h-501z" />
<glyph unicode="L" horiz-adv-x="1124" d="M27 0l6 70l127 20q35 6 41 37l135 1026q6 31 -31 37l-123 20l-6 70h522l-6 -70l-145 -20q-35 -5 -41 -37l-141 -1077h41q210 0 288 7q86 8 115 22q30 15 47 59l96 244h97l-99 -408h-923z" />
<glyph unicode="M" horiz-adv-x="1617" d="M-23 0l7 70l139 22q17 1 30 16q10 11 27 76q15 56 37 193l129 780q6 29 -27 35l-139 18l-6 70h418l166 -1020h10l496 1020h393l-6 -70l-142 -20q-36 -6 -41 -37l-77 -782q-13 -120 -14 -177v-15q0 -50 6 -66q8 -20 24 -21l123 -22l6 -70h-522l6 70l135 22q24 5 38 58 q13 52 30 221l80 774h-11l-542 -1104h-119l-187 1118h-10l-129 -782l-24 -157q-9 -63 -9 -83q0 -32 4 -37q5 -6 17 -8l133 -22l6 -70h-455z" />
<glyph unicode="N" horiz-adv-x="1433" d="M16 0l7 70l124 16q45 7 63 55q16 42 44 236l90 676q4 30 4 52q0 27 -6 42q-11 30 -45 37l-113 26l-6 70h363l534 -1028h8l88 651q22 174 22 236q0 23 -3 30q-11 19 -43 25l-121 16l-6 70h477l-6 -70l-125 -16q-30 -6 -45 -24q-14 -17 -29 -76q-13 -50 -32 -191l-123 -919 h-103l-590 1126h-8l-94 -733q-13 -95 -19 -157q-3 -32 -3 -56q0 -14 1 -26q3 -34 13 -41q8 -6 35 -11l118 -16l7 -70h-478z" />
<glyph unicode="O" horiz-adv-x="1409" d="M102 567q0 292 177 508q197 234 497 234q254 0 417 -172t163 -428q0 -154 -54 -295q-54 -142 -155 -244q-191 -201 -465 -201q-256 0 -418 171t-162 427zM287 547q0 -254 133 -387q109 -109 280 -109q115 0 211 67q95 67 149 171q55 107 83 219t28 225q0 254 -131 385 q-106 111 -282 111q-115 0 -211 -67q-95 -67 -149 -171q-55 -107 -83 -219t-28 -225z" />
<glyph unicode="P" horiz-adv-x="1124" d="M27 0l6 70l127 20q35 6 41 37l137 1026q6 30 -31 37l-119 20l-6 70h475q209 0 336 -96t127 -256q0 -189 -151 -298q-152 -110 -365 -110q-84 0 -178 15l-55 -408q-6 -36 30 -37l162 -20l6 -70h-542zM436 612q88 -18 162 -18q151 0 246 89q94 88 94 245q0 132 -85 205 t-226 73q-95 0 -111 -2z" />
<glyph unicode="Q" horiz-adv-x="1413" d="M102 567q0 292 177 508q197 234 497 234q254 0 417 -172t163 -428q0 -154 -54 -295q-54 -142 -155 -244q-173 -185 -428 -201q79 -163 212 -225q109 -51 284 -51q34 0 71 2l2 -66q-94 -22 -227 -22q-220 0 -335 79q-116 80 -222 308q-184 52 -293 207q-109 154 -109 366z M287 547q0 -254 133 -387q109 -109 280 -109q115 0 211 67q95 67 149 171q55 107 83 219t28 225q0 254 -131 385q-106 111 -282 111q-115 0 -211 -67q-95 -67 -149 -171q-55 -107 -83 -219t-28 -225z" />
<glyph unicode="R" horiz-adv-x="1212" d="M29 0l6 70l125 20q35 6 41 37l135 1026q6 30 -31 37l-121 20l-6 70h529q202 0 309 -85q108 -85 108 -218q0 -148 -98 -249t-268 -146l223 -412q17 -35 36 -56q20 -21 24 -23q3 -1 26 -7l78 -14l6 -70h-283l-67 141l-207 422l-164 6l-59 -442q-6 -31 30 -37l134 -20l6 -70 h-512zM442 657l176 -26q147 18 232 99q86 81 86 214q0 124 -83 193q-80 67 -224 67h-8l-109 -2z" />
<glyph unicode="S" horiz-adv-x="1011" d="M41 25l20 362h80l52 -283q99 -51 251 -51q130 0 212 62q81 62 81 172q0 53 -18 97q-17 42 -63 83q-40 36 -83 64q-51 33 -110 69q-107 65 -157 102q-53 40 -96 113q-42 72 -42 162q0 149 132 241q131 91 302 91q135 0 268 -29l109 27l-53 -394h-84l-21 256 q-107 56 -250 56q-97 0 -174 -50q-75 -49 -75 -141v-6q0 -99 64 -163q65 -65 212 -150q67 -40 113 -71q43 -30 90 -75t69 -100q23 -57 23 -123q0 -172 -138 -274q-139 -103 -341 -103q-199 0 -373 56z" />
<glyph unicode="T" horiz-adv-x="1257" d="M102 887l86 393h1096l-51 -393h-84l-19 215q-5 44 -20 61q-17 18 -82 30q-60 11 -209 11h-14l-141 -1077q-6 -31 30 -37l152 -20l6 -70h-567l8 70l160 20q33 2 41 37l141 1077h-14q-210 0 -259 -14q-52 -15 -79 -74l-84 -229h-97z" />
<glyph unicode="U" horiz-adv-x="1458" d="M164 1280h502l-7 -70l-127 -20q-35 -6 -40 -37l-89 -651q-10 -69 -10 -113q0 -159 91 -238t251 -79q326 0 377 354l64 477q7 49 20 157q4 31 4 55q0 16 -2 28q-4 33 -13 40q-7 6 -34 11l-121 16l-6 70h477l-6 -70l-125 -16q-30 -6 -45 -24q-14 -17 -29 -75 q-13 -50 -32 -192l-68 -495q-30 -216 -170 -328q-140 -111 -350 -111q-204 0 -331 100q-126 99 -126 287q0 45 10 136l93 661q5 29 -33 37l-119 20z" />
<glyph unicode="V" horiz-adv-x="1189" d="M70 1280h512l-7 -70l-122 -16q-34 -5 -34 -35q0 -8 3 -18l170 -977h8l418 950q8 19 8 33q0 32 -41 43l-108 20l-7 70h447l-6 -70l-99 -20q-36 -11 -53 -31q-18 -22 -39 -67l-504 -1094h-153l-219 1141q-6 45 -51 51l-117 20z" />
<glyph unicode="W" horiz-adv-x="1757" d="M59 1280h512l-6 -70l-123 -16q-31 -6 -31 -38q0 -7 1 -15l131 -983l8 -2l364 852l-20 131q-6 43 -53 51l-117 20l-6 70h508l-6 -70l-123 -16q-34 -7 -34 -39q0 -6 1 -14l145 -981l7 -2l376 956q10 19 2 44t-36 32l-109 20l-6 70h446l-6 -70l-98 -20q-66 -23 -96 -98 l-445 -1094h-164l-129 848h-8l-371 -848h-163l-177 1141q-6 45 -51 51l-116 20z" />
<glyph unicode="X" horiz-adv-x="1273" d="M-39 0l6 70l80 14q86 18 154 104l385 459l-250 445q-26 47 -45 68q-18 20 -51 30l-95 20l-4 70h502l-8 -70l-105 -12q-38 -4 -38 -37q0 -28 28 -78l172 -333h10l291 364q20 25 20 43q0 27 -48 37l-99 16l-6 70h469l-6 -70l-80 -14q-80 -17 -153 -104l-345 -412l277 -492 q26 -47 45 -68q18 -19 49 -30l94 -20l7 -70h-504l8 70l102 12q41 5 41 36q0 28 -28 79l-201 381h-6l-332 -412q-19 -24 -19 -41q0 -27 48 -37l98 -18l6 -70h-469z" />
<glyph unicode="Y" horiz-adv-x="1210" d="M76 1280h499l-8 -70l-102 -12q-25 -2 -34 -16q-9 -15 -3 -39q5 -21 25 -64l209 -450h8l331 485q14 24 14 41q0 30 -42 39l-107 16l-6 70h467l-6 -70l-82 -14q-47 -11 -79 -32t-66 -72l-381 -543l-56 -422q-6 -31 31 -37l152 -20l6 -70h-567l6 70l161 20q33 2 41 37 l54 420l-269 545q-22 46 -43 67t-55 31l-92 20z" />
<glyph unicode="Z" horiz-adv-x="1116" d="M-2 0l8 70l955 1126v8h-224q-189 0 -266 -11q-86 -12 -111 -32q-27 -21 -51 -74l-65 -186h-84l49 379h962l-10 -72l-950 -1126l-2 -8l205 2q200 1 292 12q91 10 120 28q31 19 53 64l77 203h97l-95 -383h-960z" />
<glyph unicode="[" horiz-adv-x="753" d="M195 -451v1784h516v-86h-416v-1612h416v-86h-516z" />
<glyph unicode="\" horiz-adv-x="571" d="M20 1358h93l438 -1790h-92z" />
<glyph unicode="]" horiz-adv-x="753" d="M43 -365h416v1612h-416v86h516v-1784h-516v86z" />
<glyph unicode="^" horiz-adv-x="819" d="M188 1040l226 377h182l125 -377h-43l-182 271h-4l-259 -271h-45z" />
<glyph unicode="_" horiz-adv-x="962" d="M-78 -106l6 104h983l7 -104h-996z" />
<glyph unicode="`" horiz-adv-x="819" d="M238 1417h192l141 -377h-45z" />
<glyph unicode="a" d="M45 233q0 155 66 322t161 262q131 131 254 131q107 0 168 -155h15l41 153h127l-101 -364l-108 -488l61 -18l162 137l35 -37q-39 -72 -118 -139q-80 -68 -134 -68q-35 0 -92 23q-56 23 -56 43q0 35 117 401h-18q-121 -221 -215 -346q-91 -121 -179 -121q-83 0 -135 73 q-51 72 -51 191zM186 270q0 -180 101 -180q52 0 129 103q74 99 235 372l29 119q-45 65 -110 117q-67 53 -128 53q-41 0 -82 -41q-56 -57 -115 -235q-59 -180 -59 -308z" />
<glyph unicode="b" horiz-adv-x="915" d="M86 102l223 1106q6 35 -14 41l-141 45l6 52l334 81l-113 -477l-121 -485h19q117 223 215 354q96 129 180 129q81 0 130 -85q50 -86 50 -204q0 -161 -56 -311q-58 -155 -149 -246q-137 -137 -291 -137q-81 0 -179 55q-99 55 -93 82zM211 164q49 -49 119 -88 q67 -37 116 -37q48 0 93 49q66 66 118 231q54 171 54 304q0 85 -26 143q-26 57 -73 59q-49 0 -128 -109q-73 -100 -234 -384z" />
<glyph unicode="c" horiz-adv-x="763" d="M61 287q0 244 148 452q147 207 338 207q89 0 155 -45t66 -113q0 -44 -27 -76t-67 -32q-80 0 -80 76q0 35 14 55q-11 17 -65 36t-101 19q-20 0 -61 -41q-60 -59 -118 -217q-58 -156 -58 -297q0 -110 53 -172q52 -61 131 -61q73 0 246 131l29 -37q-174 -203 -330 -203 q-117 0 -195 91q-78 92 -78 227z" />
<glyph unicode="d" d="M45 233q0 155 66 322t161 262q131 131 254 131q107 0 168 -155h15l82 415q6 35 -15 41l-141 45l8 52l332 81l-203 -862l-104 -471l61 -18l162 137l35 -37q-39 -72 -118 -139q-80 -68 -134 -68q-35 0 -92 23q-56 23 -56 43q0 35 117 401h-18q-121 -221 -215 -346 q-91 -121 -179 -121q-83 0 -135 73q-51 72 -51 191zM186 270q0 -180 101 -180q52 0 129 103q74 99 235 372l29 119q-45 65 -110 117q-67 53 -128 53q-41 0 -82 -41q-56 -57 -115 -235q-59 -180 -59 -308z" />
<glyph unicode="e" horiz-adv-x="751" d="M61 287q0 247 147 453t329 206q94 0 155 -53q60 -53 60 -129q0 -89 -88 -152q-91 -65 -390 -221q-22 -11 -67 -35q-2 -20 -2 -45q0 -110 53 -172q52 -61 131 -61q73 0 246 131l29 -37q-174 -203 -330 -203q-117 0 -195 91q-78 92 -78 227zM209 418l4 -2q248 133 324 199 q79 69 79 147q0 36 -54 66t-97 30q-55 0 -94 -39q-42 -44 -89 -154q-45 -106 -73 -247z" />
<glyph unicode="f" horiz-adv-x="552" d="M-305 -385q0 46 25 74t67 28q48 0 77 -36q30 -37 36 -95l120 64q36 84 91 381l137 788l-185 8l7 58l194 43q49 257 162 370q106 111 254 111q79 0 128 -40q50 -41 50 -93q0 -45 -25 -74q-26 -31 -65 -31q-95 0 -119 134l-166 -37q-62 -136 -92 -350h244l8 -93h-268 l-117 -645q-82 -462 -201 -590q-88 -94 -217 -94q-62 0 -103 34q-42 35 -42 85z" />
<glyph unicode="g" horiz-adv-x="872" d="M-121 -254q0 84 83 150q79 63 188 102v10q-99 52 -99 137q0 115 185 177v10q-125 90 -125 248q0 156 118 261t281 105q96 0 235 -37h207l-39 -135l-239 47v-16q88 -100 88 -201q0 -133 -110 -232q-111 -100 -232 -100q-66 0 -135 27q-47 -12 -76 -44t-29 -62 q0 -42 36 -66q34 -23 138 -61l95 -33q146 -49 225 -107q78 -57 78 -151q0 -112 -138 -197q-137 -84 -364 -84q-153 0 -262 68t-109 184zM6 -231q0 -84 95 -141q93 -56 239 -56q119 0 205 47t86 117q0 53 -53 89q-51 35 -160 75q-3 1 -36.5 12t-63.5 21q-74 25 -115 42 q-197 -95 -197 -206zM246 543q1 -120 57 -176q35 -35 76 -35q84 0 158 74q102 102 102 290q0 65 -62 117q-64 53 -126 53q-53 0 -99 -41q-49 -49 -79 -127q-27 -69 -27 -145v-10z" />
<glyph unicode="h" horiz-adv-x="1005" d="M45 0l72 301l186 907q6 35 -14 41l-142 45l7 52l333 81l-114 -479l-137 -590h18q186 396 303 519q67 69 141 69q58 0 106 -42t48 -101q0 -78 -86 -371l-100 -338l59 -18l164 137l33 -37q-39 -72 -118 -139q-80 -68 -134 -68q-35 0 -89 23q-53 23 -53 43q0 37 107 393 q82 261 82 303q0 35 -31 63q-30 27 -68 27q-85 0 -376 -579l-45 -252z" />
<glyph unicode="i" horiz-adv-x="522" d="M41 707q37 78 116 160q76 79 130 79q21 0 59 -9q36 -9 66 -26q28 -16 24 -30l-217 -787l62 -18l163 137l35 -37q-40 -71 -120 -139t-134 -68q-35 0 -89 24q-27 12 -39.5 22.5t-10.5 19.5l209 788l-62 11l-157 -164zM346 1233q0 54 32 94q32 39 73 39q46 0 73 -30t27 -74 q0 -55 -31 -95q-30 -39 -71 -39q-48 0 -75 30q-28 31 -28 75z" />
<glyph unicode="j" horiz-adv-x="499" d="M-272 -426v5q0 40 27 64q30 27 71 27q82 0 119 -100l41 8q58 105 137 479l168 766l-62 11l-157 -164l-35 37q37 78 116 160q76 79 130 79q21 0 59 -9q36 -9 66 -26q28 -16 24 -30l-174 -752q-53 -232 -105 -374q-53 -143 -124 -214q-78 -78 -168 -78q-51 0 -93 31 q-40 30 -40 80zM340 1233q0 54 31 94q30 39 71 39q47 0 74 -30t27 -74q0 -55 -31 -95q-30 -39 -72 -39q-46 0 -73 29t-27 76z" />
<glyph unicode="k" horiz-adv-x="884" d="M41 0l76 301l186 907q6 35 -14 41l-142 45l7 52l333 81l-114 -479l-107 -442h13l405 221l16 29q-82 18 -82 94q0 42 34 72t77 30q47 0 80 -34q33 -35 33 -76q0 -80 -48 -130q-51 -52 -163 -104l-174 -80l149 -438h45l146 146l34 -37q-40 -82 -112 -155q-73 -75 -129 -75 q-19 0 -60 22q-38 21 -43 36l-141 454l-80 -37l-76 -454z" />
<glyph unicode="l" horiz-adv-x="501" d="M55 35l250 1173q6 35 -14 41l-141 45l8 52l327 81l-297 -1333l62 -18l164 137l35 -37q-39 -72 -118 -139q-80 -68 -134 -68q-21 0 -56 12q-38 13 -61 26q-27 15 -25 28z" />
<glyph unicode="m" horiz-adv-x="1523" d="M35 707q37 78 116 160q76 79 130 79q38 0 92 -22q55 -22 55 -43q0 -19 -129 -523h20q191 405 299 519q68 69 142 69q55 0 94 -42t39 -107q0 -61 -113 -439h19q186 396 303 519q68 69 141 69q61 0 107 -42q47 -42 47 -101q0 -88 -88 -371q-8 -27 -101 -338l62 -18l162 137 l34 -37q-40 -73 -117 -139q-80 -68 -135 -68q-35 0 -89 23q-52 22 -52 43q0 37 107 393q82 261 82 303q0 35 -31 63q-30 27 -68 27q-91 0 -377 -579l-57 -252l-151 10l120 428q5 24 26 89q8 27 28 91q10 33 18 71t8 52q0 36 -30 63t-68 27q-86 0 -373 -579l-47 -252l-149 10 l69 301l111 522l-62 11l-159 -164z" />
<glyph unicode="n" horiz-adv-x="1042" d="M35 707q37 78 116 160q76 79 130 79q35 0 91 -22t56 -43q0 -19 -129 -523h20q191 402 302 519q67 69 141 69q60 0 106 -42q47 -42 47 -101q0 -90 -86 -371q-86 -287 -102 -338l61 -18l164 137l35 -37q-38 -70 -119 -139q-80 -68 -135 -68q-33 0 -87 23q-52 22 -52 43 q0 41 106 393q80 272 80 303q0 36 -30 63t-68 27q-88 0 -375 -579l-47 -252l-149 10l69 301l109 514l-60 12l-161 -157z" />
<glyph unicode="o" horiz-adv-x="894" d="M68 362q0 135 57 269q56 131 164 224q106 91 231 91q150 0 226 -110q77 -112 77 -283q0 -212 -133 -397q-134 -187 -319 -187q-151 0 -227 111q-76 110 -76 282zM207 317q0 -113 42 -199q42 -85 126 -85q70 0 131 67q59 64 95 145q31 69 54 154q27 113 27 211 q0 114 -42 193q-42 80 -126 80q-93 0 -169 -115q-74 -112 -109 -242q-29 -110 -29 -209z" />
<glyph unicode="p" horiz-adv-x="972" d="M-156 -504l4 70l129 20q37 1 43 37l271 1196l-64 15l-157 -164l-35 37q37 78 116 160q76 79 130 79q38 0 94 -22q57 -23 57 -43q0 -29 -117 -416h19q117 223 215 354q96 129 180 129q81 0 130 -85q50 -86 50 -204q0 -154 -62 -309q-64 -159 -157 -254 q-129 -129 -270 -129q-98 0 -174 76h-4l-82 -420q-6 -36 28 -37l152 -20l6 -70h-502zM268 178q130 -139 217 -139q44 0 93 49q68 68 128 235t60 300q0 85 -26 143t-72 59q-49 0 -128 -109q-77 -106 -235 -384z" />
<glyph unicode="q" horiz-adv-x="901" d="M45 233q0 155 66 322t161 262q131 131 254 131q107 0 168 -155h15l39 147l126 -4l-98 -354l-207 -959q-6 -31 29 -37l133 -20l4 -70h-491l4 70l135 20q35 2 43 37l113 463q93 317 104 350h-18q-121 -221 -215 -346q-91 -121 -179 -121q-83 0 -135 73q-51 72 -51 191z M186 270q0 -180 101 -180q52 0 129 103q74 99 235 372l29 119q-45 65 -110 117q-67 53 -128 53q-41 0 -82 -41q-56 -57 -115 -235q-59 -180 -59 -308z" />
<glyph unicode="r" horiz-adv-x="804" d="M35 707q37 78 116 160q76 79 130 79q38 0 92 -22q55 -22 55 -43q0 -55 -131 -523h27q43 119 115 265q74 152 120 208q59 73 88 93q32 22 84 22q53 0 88 -36q35 -37 35 -87t-28 -84q-26 -32 -68 -32q-45 0 -69 30q-15 18 -15 46q0 17 6 38l-35 13q-43 -40 -160 -250 q-115 -208 -178 -342l-47 -252l-149 10l69 301l109 522l-62 11l-157 -164z" />
<glyph unicode="s" horiz-adv-x="696" d="M-8 119q0 42 26 68q28 28 70 28q32 0 53 -24t21 -56q0 -21 -12 -45q93 -41 192 -47q43 17 76 61q37 47 37 92q0 33 -24 73q-26 43 -53 70q-11 11 -81 77q-176 167 -176 275v7q8 116 107 182t212 66q244 0 244 -145q0 -44 -27 -71q-28 -28 -67 -28q-32 0 -53 24t-21 56 q0 24 10 47q-99 42 -172 43q-40 -12 -73 -55q-34 -44 -35 -86v-6q0 -35 22 -73q23 -40 47 -64q2 -2 86 -84q57 -55 82 -83q32 -35 64 -91q31 -55 31 -99v-10q-7 -110 -109 -181q-101 -71 -215 -71q-262 0 -262 150z" />
<glyph unicode="t" horiz-adv-x="604" d="M80 827l6 60l31 10q14 5 59 18q13 4 36 11t32 10l26 8l49 254h132l-56 -280h252l6 -93h-276l-154 -731l62 -18l164 137l34 -37q-41 -73 -119 -139q-80 -68 -135 -68q-36 0 -90 20t-49 38l160 792z" />
<glyph unicode="u" horiz-adv-x="1042" d="M59 707q37 76 118 160q76 79 130 79q36 0 89 -22q55 -23 55 -43q0 -38 -107 -394q-82 -261 -82 -301q0 -34 31 -63t67 -29q85 0 377 580l49 252l150 -11l-72 -301q-98 -484 -110 -520l61 -18l162 137l35 -37q-39 -72 -118 -139q-80 -68 -134 -68q-36 0 -90 23t-54 43 q0 29 127 522h-18q-190 -395 -303 -518q-68 -70 -148 -70q-57 0 -102 42t-45 102q0 77 86 370l100 340l-61 11l-158 -164z" />
<glyph unicode="v" horiz-adv-x="874" d="M-4 702q39 80 116 163q75 81 128 81q36 0 92 -24q55 -24 55 -48l-10 -776h14l246 396q94 145 94 227q-2 41 -34 69q-31 26 -87 37q24 121 129 121q57 0 95 -37q36 -34 36 -99v-7v-5q0 -70 -53 -164q-59 -105 -184 -284l-238 -352l-147 -31v848l-60 12l-157 -163z" />
<glyph unicode="w" horiz-adv-x="1359" d="M-4 702q39 80 116 163q75 81 128 81q36 0 92 -24q55 -24 55 -48l-2 -776h10l330 672l-4 170l61 -12l74 -15l25 -815h12l217 396q88 154 88 222q0 87 -119 111q24 121 129 121q57 0 94 -37t37 -104q0 -40 -11 -77q-12 -42 -50 -107q-21 -36 -67 -113q-25 -42 -101 -158 l-221 -352l-148 -31l-10 658h-6l-324 -627l-147 -31l-6 848l-60 12l-157 -163z" />
<glyph unicode="x" horiz-adv-x="960" d="M6 169q27 34 68 34q44 0 67 -30q20 -26 20 -68q0 -7 -1 -15l57 -6l213 367l-143 380h-47l-117 -147l-31 37q122 227 207 227q21 0 66 -21q44 -21 49 -36l104 -359h4q119 254 181 333q63 81 131 81q66 0 109 -33q44 -33 44 -82q-1 -48 -30 -85q-26 -33 -68 -33 q-46 0 -67 28q-16 23 -16 58q0 10 1 22l-59 6l-203 -348l145 -395h47l117 149l31 -36q-125 -228 -209 -228q-19 0 -65 22q-43 21 -48 36l-106 362h-8q-133 -268 -193 -346q-57 -74 -125 -74q-65 0 -109 33q-42 32 -42 80q0 54 26 87z" />
<glyph unicode="y" horiz-adv-x="878" d="M-227 -393q0 42 30 72t68 30q47 0 83 -37q32 -34 32 -78v-10l55 -4l281 404l-80 22l6 811l-60 12l-157 -163l-35 36q39 80 116 163q75 81 128 81q36 0 92 -24q55 -24 55 -48l-16 -776h20l354 592l7 33q-103 38 -103 113q0 46 30 80t75 34q58 0 92 -36q35 -37 35 -95 q0 -101 -185 -364l-237 -355l-121 -215q-114 -219 -206 -314t-200 -95q-64 0 -111 37q-48 37 -48 94z" />
<glyph unicode="z" horiz-adv-x="808" d="M-14 66q0 90 131 176l506 448q-56 21 -194 100q-133 76 -155 84l-38 -38q38 -50 38 -88q0 -36 -22 -58t-59 -22q-44 0 -67 23q-24 24 -24 59q0 72 69 132q68 60 179 64q62 0 111 -18q48 -17 85 -59q37 -41 49 -59q15 -21 38 -65q5 -6 6 -10l18 2l58 209q54 -2 86 -28 q33 -27 33 -64q0 -83 -138 -174l-495 -436q73 -30 207 -117q136 -89 159 -96l43 43q-51 52 -51 96q0 30 25 53t65 23t61 -23t21 -59q0 -72 -61 -132q-62 -61 -166 -71q-116 0 -199 71q-82 70 -121 165l-18 -2l-60 -226q-51 1 -87 31q-33 27 -33 66z" />
<glyph unicode="{" horiz-adv-x="681" d="M57 442l23 56q268 7 268 159q0 66 -60 186q-61 122 -61 212q0 136 101 216q100 79 288 91v-68q-117 -11 -184 -64q-67 -54 -67 -128q0 -66 60 -187t60 -213q0 -96 -86 -171q-84 -73 -176 -78v-25q90 -6 176 -80t86 -170q0 -90 -60 -209q-60 -118 -60 -184q0 -74 67 -131 q68 -58 184 -68v-63q-184 7 -287 89q-102 81 -102 218q0 88 61 210q60 120 60 185q0 148 -268 160z" />
<glyph unicode="|" horiz-adv-x="569" d="M240 -381v1790h90v-1790h-90z" />
<glyph unicode="}" horiz-adv-x="681" d="M51 -414q117 10 185 68q67 57 67 131q0 65 -60 184q-61 120 -61 209q0 96 86 170t176 80v25q-92 5 -176 78q-86 75 -86 171q0 89 61 213q60 121 60 187q0 74 -67 128q-67 53 -185 64v68q189 -12 289 -91t100 -216q0 -92 -60 -212q-61 -122 -61 -186q0 -151 269 -159 l22 -56l-22 -57q-269 -12 -269 -160q0 -63 61 -185q60 -120 60 -210q0 -138 -101 -218q-103 -82 -288 -89v63z" />
<glyph unicode="~" horiz-adv-x="774" d="M39 367q35 119 89 173t134 54q70 0 162 -75t123 -75q32 0 60 28t67 108h55q-38 -119 -90 -173q-53 -55 -135 -55q-44 0 -87 24q-45 25 -74 51q-35 32 -63 51q-35 24 -59 24q-33 0 -61 -28t-68 -107h-53z" />
<glyph unicode="&#xa1;" horiz-adv-x="575" d="M152 49l184 825q2 13 21 13q20 0 20 -13l-33 -833q-4 -72 -76 -72h-30q-57 0 -77 22q-19 21 -9 58zM274 1192q0 48 33 82q33 35 84 35q49 0 83 -34t34 -83q1 -45 -33 -79t-84 -34q-51 0 -84 34q-33 35 -33 79z" />
<glyph unicode="&#xa2;" horiz-adv-x="755" d="M61 287q0 246 139 451q138 204 328 208h7l98 357h72l-101 -365q74 -17 116 -59q44 -44 44 -99q0 -44 -29 -75t-69 -31q-41 0 -68 27t-33 63l-188 -686q61 -6 254 131l33 -37q-169 -194 -320 -201l-82 -311h-72l84 313q-92 18 -153 106q-60 87 -60 208zM205 311 q0 -178 106 -223l205 752q-30 18 -86 18q-22 0 -55 -33q-59 -59 -115 -220q-55 -159 -55 -294z" />
<glyph unicode="&#xa3;" horiz-adv-x="946" d="M-57 23q161 38 230 120q70 83 91 234q12 89 17 153h-209l6 80h209q12 178 18 240q27 201 145 319q119 119 293 119q101 0 165 -42q65 -42 65 -107q0 -44 -28 -77q-27 -32 -73 -32q-56 0 -84 45q-29 46 -8 107q-39 32 -104 32q-87 2 -140.5 -76t-72.5 -237 q-12 -99 -23 -291h322l6 -80h-336q-6 -71 -18 -133q-27 -142 -90 -225v-8q2 0 11.5 -3.5t30.5 -11.5t42 -15q83 -29 130 -41q52 -13 99 -13q72 0 111 39q29 29 90 137l41 -14q-15 -126 -81 -208q-66 -83 -188 -83q-67 0 -140 35q-74 36 -100 57q-52 43 -85 72 q-129 -136 -330 -166z" />
<glyph unicode="&#xa4;" horiz-adv-x="886" d="M74 1032l69 70l119 -119q80 53 178 53q106 0 183 -55l112 113l68 -68l-115 -115q49 -77 49 -176q0 -97 -51 -176l127 -127l-70 -70l-125 125q-80 -53 -178 -53q-100 0 -178 51l-115 -114l-67 67l115 115q-54 80 -54 182q0 105 52 178zM229 735q0 -87 59 -151t152 -64 q94 0 152 64q57 63 57 151q0 90 -57 153q-56 62 -152 62q-94 0 -152 -62q-59 -64 -59 -153z" />
<glyph unicode="&#xa5;" horiz-adv-x="1253" d="M115 1280h485l-6 -70l-105 -12q-36 -4 -35 -40q2 -37 40 -118l188 -389h6l303 436q63 98 -4 113l-76 10l-6 70h414l-6 -70l-62 -10q-90 -24 -151 -110l-334 -463h324l8 -82h-377l-23 -174h392l8 -82h-410l-22 -162q-6 -31 30 -37l160 -20l6 -70h-565l6 70l164 20 q33 2 41 37l22 162h-356l4 82h361l24 174h-389l6 82h357l-256 512q-21 41 -76 57l-84 14z" />
<glyph unicode="&#xa6;" horiz-adv-x="569" d="M240 -285v686h90v-686h-90zM240 629v686h90v-686h-90z" />
<glyph unicode="&#xa7;" horiz-adv-x="880" d="M88 657q0 87 62 160q63 73 149 107q-29 58 -29 112q0 105 90 186t224 81q78 0 154 -39q77 -39 77 -109q0 -40 -29 -71q-28 -29 -67 -29q-51 0 -81 42q-30 41 -34 113q-40 19 -72 19q-66 0 -104 -41q-37 -40 -37 -96q0 -52 35 -102q37 -53 69 -78q64 -50 109 -81 q68 -51 85 -65q34 -28 67 -61q40 -40 57 -82q16 -39 16 -91q0 -87 -60 -161q-61 -75 -148 -109q28 -56 28 -112q0 -103 -92 -190q-91 -87 -233 -87q-78 0 -155 39t-77 108q0 43 29 72t69 29q102 0 113 -154q37 -20 90 -20q60 0 98 44q37 43 37 105q0 51 -34 100 q-33 48 -70 78q-36 30 -107 80q-60 41 -115 88q-37 31 -77 94q-37 58 -37 121zM207 725q0 -59 41 -112q38 -49 125 -113q1 -1 14.5 -11.5t25.5 -18.5q19 -13 43 -32q2 -1 15.5 -11t22.5 -18q32 -26 40 -34t32 -34q17 -18 30 -38q115 56 115 160q0 67 -42 116 q-42 50 -116 107l-28 20q-7 5 -27 20q-22 17 -25 19q-7 6 -17 13l-10 8q-2 2 -9.5 8t-13.5 10q-15 12 -23 20q-11 11 -20 19l-21 21q-7 7 -16 19q-3 3 -8.5 10.5t-8.5 11.5q-48 -23 -84 -69q-35 -44 -35 -91z" />
<glyph unicode="&#xa8;" horiz-adv-x="819" d="M188 1223q0 48 32 85q31 35 81 35q53 0 82 -35q31 -37 31 -85t-31 -85q-30 -36 -82 -36t-82 36q-31 37 -31 85zM598 1223q0 48 32 85q31 35 81 35t81 -35t31 -85q0 -49 -30 -85t-82 -36t-82 36q-31 37 -31 85z" />
<glyph unicode="&#xa9;" horiz-adv-x="1503" d="M82 639q0 277 196 475q195 197 474 197t474 -197q195 -196 195 -475t-195 -474q-196 -196 -474 -196t-474 196t-196 474zM156 639q0 -249 175 -425q175 -177 421 -177q244 0 420 177q176 178 176 425t-176 426q-175 178 -420 178q-246 0 -421 -178t-175 -426zM389 627 q0 171 108 282t275 111q88 0 166 -23l92 23v-260h-53l-43 151q-61 43 -172 43t-184 -82q-74 -83 -74 -215q0 -151 77 -243t212 -92q81 0 129 32l63 162h55l-26 -242l-58 13q-84 -29 -180 -29q-180 0 -283 102q-104 102 -104 267z" />
<glyph unicode="&#xaa;" horiz-adv-x="706" d="M111 803q0 101 47 224t114 190q92 92 187 92q74 0 121 -115h12l26 115h87l-64 -269l-78 -354l39 -10l139 121l19 -27q-38 -59 -105 -118q-65 -58 -106 -58q-22 0 -51 26t-29 44t11 52q2 6 9 28t15 46.5t16 50.5q28 87 51 165h-10q-209 -412 -313 -412q-66 0 -102 58 q-35 57 -35 151zM215 823q0 -62 23 -99q22 -36 55 -36q53 0 242 340l20 76q-26 44 -72 85q-44 40 -92 40q-28 0 -57 -29q-44 -44 -81 -160q-38 -119 -38 -217z" />
<glyph unicode="&#xab;" horiz-adv-x="997" d="M51 414l2 82l492 301l14 -43l-344 -303l266 -291l-26 -39zM436 414l2 82l492 321l14 -43l-364 -323l280 -312l-24 -39z" />
<glyph unicode="&#xac;" horiz-adv-x="983" d="M72 528l6 101h833v-430h-104v329h-735z" />
<glyph unicode="&#xad;" horiz-adv-x="671" d="M51 428l6 104h525l6 -104h-537z" />
<glyph unicode="&#xae;" horiz-adv-x="1503" d="M82 639q0 277 196 475q195 197 474 197t474 -197q195 -196 195 -475t-195 -474q-196 -196 -474 -196t-474 196t-196 474zM156 639q0 -249 175 -425q175 -177 421 -177q244 0 420 177q176 178 176 425t-176 426q-175 178 -420 178q-246 0 -421 -178t-175 -426zM440 281 l6 59l76 12q21 2 21 23v538q0 21 -21 23l-76 12l-6 60h324q130 0 199 -55q67 -54 67 -132q0 -156 -178 -211l145 -221q29 -35 52 -41l69 -8l6 -59h-190l-45 81l-141 224l-97 4v-215q0 -21 21 -23l88 -12l4 -59h-324zM651 655l94 -10q166 15 166 158q0 149 -198 141l-62 -2 v-287z" />
<glyph unicode="&#xaf;" horiz-adv-x="819" d="M231 1104l15 84h491v-84h-506z" />
<glyph unicode="&#xb0;" horiz-adv-x="841" d="M150 948q0 157 109 267q110 112 263 112q139 0 231 -82q93 -83 93 -219q0 -159 -110 -271t-267 -112q-135 0 -227 84t-92 221zM242 952q-2 -104 66 -166q70 -64 169 -65q115 -2 194 82t81 203q2 105 -66 171t-172 66q-115 2 -192 -86q-79 -89 -80 -205z" />
<glyph unicode="&#xb1;" horiz-adv-x="983" d="M66 29l6 100h839l7 -100h-852zM66 471l6 100h368v338h105v-338h366l7 -100h-373v-305h-105v305h-374z" />
<glyph unicode="&#xb2;" horiz-adv-x="675" d="M8 559l4 70q18 14 144 109q75 56 138 108q30 25 97 88q56 53 77 96q21 44 21 88q0 66 -47 105q-46 39 -114 39q-103 0 -226 -93l-12 29q147 152 305 152q92 0 159 -55t67 -138q0 -37 -15 -75q-15 -39 -46 -75q-35 -42 -62 -70q-32 -34 -86 -73q-4 -3 -93 -67 q-46 -33 -103 -72q-44 -30 -99 -70q-1 -6 0 -6h106q180 0 227 10q49 10 76 50l35 59h57l-69 -209h-541z" />
<glyph unicode="&#xb3;" horiz-adv-x="675" d="M16 633q0 27 21 46q20 19 49 19q47 0 74 -33q28 -34 28 -77q38 -6 52 -6q94 0 151 60q59 62 60 140q0 60 -40 97q-39 36 -106 36q-49 0 -123 -24l-14 35q196 91 242 129q57 51 59 104q0 50 -39 77q-40 28 -88 28q-105 0 -223 -80l-10 33q136 133 305 133q78 0 142 -41 q62 -40 62 -109q0 -40 -21 -74t-46 -56q-23 -20 -73 -45t-70 -33q-15 -6 -72 -25v-2q35 8 74 8q78 0 128 -45t50 -123q0 -117 -118 -196t-257 -79q-66 0 -132 26q-65 26 -65 77z" />
<glyph unicode="&#xb4;" horiz-adv-x="819" d="M369 1040l243 377h193l-389 -377h-47z" />
<glyph unicode="&#xb5;" horiz-adv-x="1077" d="M20 913h306l-9 -622q-6 -197 191 -197q115 0 244 111v602q0 26 -56 31l-102 8l-6 67h311v-786q0 -33 19 -39l147 -33l-6 -49l-307 -37v156h-11q-42 -53 -68 -79q-27 -27 -75 -52t-100 -25q-131 0 -191 119h-6l16 -573l-180 -19l29 731l4 580q0 9 -1 12t-3 7q-1 2 -8 4 l-13 3q-2 1 -8.5 1.5t-9.5 0.5q-16 2 -23 3l-77 8z" />
<glyph unicode="&#xb6;" horiz-adv-x="1011" d="M141 872q0 207 140 308q139 100 356 100h311l-176 -1346h-96l80 617q-110 -23 -168 -23q-196 0 -322 94q-125 93 -125 250z" />
<glyph unicode="&#xb7;" horiz-adv-x="462" d="M61 465q0 51 36 87t91 36q56 0 92 -37q35 -36 33 -86q0 -52 -35 -88q-36 -37 -90 -37q-55 0 -92 37t-35 88z" />
<glyph unicode="&#xb8;" horiz-adv-x="819" d="M68 -502q344 47 344 195q0 96 -160 96q-57 0 -121 -10l4 35l242 225h84l-174 -160q111 5 177 -39t66 -121q0 -108 -122 -179q-123 -72 -332 -87z" />
<glyph unicode="&#xb9;" horiz-adv-x="675" d="M76 559l2 51l149 15q33 4 37 28l86 592l-182 21l8 39l309 43l-100 -695q-4 -26 27 -28l127 -15l4 -51h-467z" />
<glyph unicode="&#xba;" horiz-adv-x="653" d="M123 881q0 154 95 291t235 137q110 0 167 -81q56 -80 56 -208q0 -155 -95 -291q-95 -135 -237 -135q-110 0 -166 80q-55 79 -55 207zM227 848q0 -84 30 -142q30 -59 91 -59q72 0 126 85q56 88 79 181q18 78 18 150q0 81 -30 137q-30 55 -92 55q-68 0 -122 -83 q-54 -82 -81 -177q-19 -78 -19 -147z" />
<glyph unicode="&#xbb;" horiz-adv-x="997" d="M20 137l363 324l-279 311l23 39l399 -315l-2 -82l-491 -320zM403 158l347 303l-269 291l27 39l405 -295l-2 -82l-493 -299z" />
<glyph unicode="&#xbc;" horiz-adv-x="1464" d="M41 -238l1300 1518h105l-1303 -1518h-102zM117 559l2 51l149 15q33 4 37 28l86 592l-182 21l8 39l309 43l-100 -695q-4 -26 27 -28l127 -15l4 -51h-467zM756 -14l479 512l78 -11l-72 -489h143l-18 -64h-133l-35 -227h-115l33 227h-360v52zM831 -2h293l54 358h-11z" />
<glyph unicode="&#xbd;" horiz-adv-x="1464" d="M41 -238l1300 1518h105l-1303 -1518h-102zM117 559l2 51l149 15q33 4 37 28l86 592l-182 21l8 39l309 43l-100 -695q-4 -26 27 -28l127 -15l4 -51h-467zM756 -293l4 70q31 25 143 109q75 56 138 108q38 31 98 88q55 52 76 96q22 46 22 88q0 66 -47 105t-115 39 q-102 0 -225 -93l-12 29q147 152 305 152q92 0 159 -55q66 -54 66 -138q0 -40 -14 -75q-15 -39 -46 -75q-27 -33 -63 -70q-32 -34 -86 -73q-78 -57 -92 -67q-46 -33 -103 -72q-60 -41 -100 -70q-2 -6 0 -6h107q179 0 226 10q50 11 77 50l35 59h57l-70 -209h-540z" />
<glyph unicode="&#xbe;" horiz-adv-x="1464" d="M41 -238l1300 1518h105l-1303 -1518h-102zM57 633q0 27 21 46q20 19 49 19q47 0 74 -33q28 -34 28 -77q37 -6 52 -6q94 0 151 60q59 62 60 140q0 60 -40 97q-39 36 -106 36q-50 0 -123 -24l-14 35q196 91 242 129q57 51 59 104q0 50 -39 77q-40 28 -88 28 q-105 0 -223 -80l-10 33q136 133 305 133q78 0 142 -41q62 -40 62 -109q0 -40 -21 -74t-46 -56q-23 -20 -73 -45t-70 -33q-15 -6 -72 -25v-2q35 8 74 8q79 0 128 -45q50 -45 50 -123q0 -117 -118 -196t-257 -79q-66 0 -132 26q-65 26 -65 77zM756 -14l479 512l78 -11 l-72 -489h143l-18 -64h-133l-35 -227h-115l33 227h-360v52zM831 -2h293l54 358h-11z" />
<glyph unicode="&#xbf;" horiz-adv-x="727" d="M49 305q0 124 66 184t182 97q58 19 77 27t58 30q37 21 50 47q14 28 14 64q0 73 -82 161l63 -4q115 -115 115 -215q0 -101 -70 -156q-68 -53 -190 -91q-72 -23 -104 -36q-33 -13 -65 -42t-32 -64q0 -70 95 -123t233 -53q59 0 96 6q12 -18 12 -45q0 -52 -40 -82 q-41 -30 -111 -30q-154 0 -260 99q-107 99 -107 226zM399 1200q0 48 33 82q33 35 82 35q51 0 86 -35t33 -82q0 -45 -34 -79t-85 -34q-49 0 -82 34q-33 35 -33 79z" />
<glyph unicode="&#xc0;" horiz-adv-x="1181" d="M-66 0l7 70l96 20q34 11 51 31q20 23 41 67l451 1012v60l190 47l211 -1166q5 -20 8 -24q7 -11 15 -17q12 -9 28 -10l117 -20l6 -70h-512l6 70l121 16q41 8 33 53l-53 324h-402l-98 -234q-49 -124 12 -139l111 -20l6 -70h-445zM383 547h352l-94 583h-10zM420 1769h192 l142 -376h-45z" />
<glyph unicode="&#xc1;" horiz-adv-x="1181" d="M-66 0l7 70l96 20q34 11 51 31q20 23 41 67l451 1012v60l190 47l211 -1166q5 -20 8 -24q7 -11 15 -17q12 -9 28 -10l117 -20l6 -70h-512l6 70l121 16q41 8 33 53l-53 324h-402l-98 -234q-49 -124 12 -139l111 -20l6 -70h-445zM383 547h352l-94 583h-10zM610 1393l244 376 h193l-390 -376h-47z" />
<glyph unicode="&#xc2;" horiz-adv-x="1181" d="M-66 0l7 70l96 20q34 11 51 31q20 23 41 67l451 1012v60l190 47l211 -1166q5 -20 8 -24q7 -11 15 -17q12 -9 28 -10l117 -20l6 -70h-512l6 70l121 16q41 8 33 53l-53 324h-402l-98 -234q-49 -124 12 -139l111 -20l6 -70h-445zM383 547h352l-94 583h-10zM414 1393l225 376 h182l125 -376h-43l-182 270h-4l-258 -270h-45z" />
<glyph unicode="&#xc3;" horiz-adv-x="1181" d="M-66 0l7 70l96 20q34 11 51 31q20 23 41 67l451 1012v60l190 47l211 -1166q5 -20 8 -24q7 -11 15 -17q12 -9 28 -10l117 -20l6 -70h-512l6 70l121 16q41 8 33 53l-53 324h-402l-98 -234q-49 -124 12 -139l111 -20l6 -70h-445zM373 1432q72 239 225 239q69 0 161 -74 q91 -73 122 -73q33 0 60 27q29 29 69 106h55q-77 -240 -227 -240q-69 0 -161 74t-122 74q-33 0 -61 -28t-68 -105h-53zM383 547h352l-94 583h-10z" />
<glyph unicode="&#xc4;" horiz-adv-x="1181" d="M-66 0l7 70l96 20q34 11 51 31q20 23 41 67l451 1012v60l190 47l211 -1166q5 -20 8 -24q7 -11 15 -17q12 -9 28 -10l117 -20l6 -70h-512l6 70l121 16q41 8 33 53l-53 324h-402l-98 -234q-49 -124 12 -139l111 -20l6 -70h-445zM369 1575q0 50 31 85q32 36 81 36 q52 0 82 -36q31 -37 31 -85t-31 -85q-30 -36 -82 -36t-82 36t-30 85zM383 547h352l-94 583h-10zM778 1575q0 48 32 85q32 36 81 36t81 -36q32 -37 32 -85t-31 -85q-30 -36 -82 -36t-82 36q-31 37 -31 85z" />
<glyph unicode="&#xc5;" horiz-adv-x="1181" d="M-66 0l7 70l96 20q34 11 51 31q20 23 41 67l473 1063q-84 51 -84 160q2 79 51 131q50 53 131 53q83 0 134 -53q51 -52 49 -131q0 -123 -101 -168l199 -1102q6 -45 51 -51l117 -20l6 -70h-512l6 70l121 16q41 8 33 53l-53 324h-402l-98 -234q-49 -124 12 -139l111 -20 l6 -70h-445zM383 547h352l-94 583h-10zM580 1411q0 -57 33 -93q35 -38 89 -38q56 0 89 38q32 36 32 93q0 55 -33 91q-35 38 -90 38t-88 -38q-32 -36 -32 -91z" />
<glyph unicode="&#xc6;" horiz-adv-x="1642" d="M-117 0l6 70l97 20q59 18 110 100l613 963q19 29 -25 37l-125 20l-4 70h1085l-49 -371h-90l-18 207q-4 29 -13 47q-7 14 -55 26q-44 11 -121 13q-98 2 -233 2h-47l-72 -514h47q131 0 165 6q33 6 48 33l64 137h71l-100 -426h-70l9 131q2 20 -10 27q-14 9 -55 13 q-48 5 -136 5h-43l-70 -540h25q144 0 256 2q86 2 138 13q55 12 69 26q12 12 28 47l80 198h98l-86 -362h-938l9 70l129 20q35 6 41 37l45 336h-385l-99 -156q-94 -155 -94 -180q-2 -30 35 -37l109 -20l6 -70h-445zM424 547h342l90 657h-18z" />
<glyph unicode="&#xc7;" horiz-adv-x="1255" d="M102 532q0 158 60 307t168 257q213 213 501 213q153 0 277 -39l145 33l-55 -416h-84l-20 272q-126 70 -269 70q-225 0 -384 -204q-158 -203 -158 -501q0 -240 137 -377q98 -98 264 -98q122 0 246 62l121 274h96l-98 -387l-95 20q-154 -49 -280 -49h-15l-98 -90 q111 5 177 -39q67 -44 67 -121q0 -107 -123 -179t-332 -87l-8 45q344 47 344 195q0 96 -160 96q-56 0 -120 -10l4 35l172 159q-232 27 -356 173t-124 386z" />
<glyph unicode="&#xc8;" horiz-adv-x="1175" d="M27 0l6 70l127 20q35 6 41 37l137 1026q6 30 -31 37l-119 20l-6 70h983l-49 -371h-88l-18 207q-6 51 -39 66q-51 22 -385 22h-70l-70 -514h70q131 0 164 6q32 6 47 33l66 137h69l-100 -426h-68l8 131q2 20 -9 27q-14 9 -55 13q-48 5 -136 5h-66l-71 -540h47q232 0 317 7 q94 8 124 22q32 15 50 59l82 198h98l-86 -362h-970zM444 1769h193l141 -376h-45z" />
<glyph unicode="&#xc9;" horiz-adv-x="1175" d="M27 0l6 70l127 20q35 6 41 37l137 1026q6 30 -31 37l-119 20l-6 70h983l-49 -371h-88l-18 207q-6 51 -39 66q-51 22 -385 22h-70l-70 -514h70q131 0 164 6q32 6 47 33l66 137h69l-100 -426h-68l8 131q2 20 -9 27q-14 9 -55 13q-48 5 -136 5h-66l-71 -540h47q232 0 317 7 q94 8 124 22q32 15 50 59l82 198h98l-86 -362h-970zM547 1393l244 376h192l-389 -376h-47z" />
<glyph unicode="&#xca;" horiz-adv-x="1175" d="M27 0l6 70l127 20q35 6 41 37l137 1026q6 30 -31 37l-119 20l-6 70h983l-49 -371h-88l-18 207q-6 51 -39 66q-51 22 -385 22h-70l-70 -514h70q131 0 164 6q32 6 47 33l66 137h69l-100 -426h-68l8 131q2 20 -9 27q-14 9 -55 13q-48 5 -136 5h-66l-71 -540h47q232 0 317 7 q94 8 124 22q32 15 50 59l82 198h98l-86 -362h-970zM426 1393l225 376h183l124 -376h-43l-182 270h-4l-258 -270h-45z" />
<glyph unicode="&#xcb;" horiz-adv-x="1175" d="M27 0l6 70l127 20q35 6 41 37l137 1026q6 30 -31 37l-119 20l-6 70h983l-49 -371h-88l-18 207q-6 51 -39 66q-51 22 -385 22h-70l-70 -514h70q131 0 164 6q32 6 47 33l66 137h69l-100 -426h-68l8 131q2 20 -9 27q-14 9 -55 13q-48 5 -136 5h-66l-71 -540h47q232 0 317 7 q94 8 124 22q32 15 50 59l82 198h98l-86 -362h-970zM393 1575q0 48 32 85q31 36 81 36q52 0 82 -36t30 -85t-30 -85t-82 -36t-82 36q-31 37 -31 85zM803 1575q0 48 32 85q31 36 80 36t81 -36q32 -37 32 -85t-31 -85q-30 -36 -82 -36q-51 0 -81 36q-31 37 -31 85z" />
<glyph unicode="&#xcc;" horiz-adv-x="716" d="M37 0l6 70l141 20q35 6 41 37l137 1026q6 31 -30 37l-135 20l-7 70h529l-6 -70l-142 -20q-35 -6 -41 -37l-135 -1026q-6 -31 31 -37l135 -20l6 -70h-530zM168 1769h192l142 -376h-45z" />
<glyph unicode="&#xcd;" horiz-adv-x="716" d="M37 0l6 70l141 20q35 6 41 37l137 1026q6 31 -30 37l-135 20l-7 70h529l-6 -70l-142 -20q-35 -6 -41 -37l-135 -1026q-6 -31 31 -37l135 -20l6 -70h-530zM434 1393l244 376h192l-389 -376h-47z" />
<glyph unicode="&#xce;" horiz-adv-x="716" d="M37 0l6 70l141 20q35 6 41 37l137 1026q6 31 -30 37l-135 20l-7 70h529l-6 -70l-142 -20q-35 -6 -41 -37l-135 -1026q-6 -31 31 -37l135 -20l6 -70h-530zM201 1393l225 376h182l125 -376h-43l-182 270h-4l-258 -270h-45z" />
<glyph unicode="&#xcf;" horiz-adv-x="716" d="M37 0l6 70l141 20q35 6 41 37l137 1026q6 31 -30 37l-135 20l-7 70h529l-6 -70l-142 -20q-35 -6 -41 -37l-135 -1026q-6 -31 31 -37l135 -20l6 -70h-530zM162 1575q0 48 32 85q32 36 80 36q52 0 82 -36q31 -37 31 -85t-31 -85q-30 -36 -82 -36q-51 0 -81 36 q-31 37 -31 85zM571 1575q0 48 32 85q31 36 81 36t81 -36q32 -37 32 -85t-31 -85q-30 -36 -82 -36t-82 36q-31 37 -31 85z" />
<glyph unicode="&#xd0;" horiz-adv-x="1331" d="M27 0l6 70l127 20q35 6 41 37l65 487h-176l6 80h180l62 459q5 29 -33 37l-119 20l-6 70h490q275 0 441 -154q165 -153 165 -409q0 -298 -201 -496q-101 -104 -260 -163q-156 -58 -344 -58h-444zM369 104l149 -28q253 11 413 180q161 170 161 467q0 223 -120 352t-343 129 h-115l-68 -510h238l6 -80h-254z" />
<glyph unicode="&#xd1;" horiz-adv-x="1433" d="M16 0l7 70l124 16q45 7 63 55q16 42 44 236l90 676q8 68 -2 94q-11 30 -45 37l-113 26l-6 70h363l534 -1028h8l88 651q30 238 19 266q-11 19 -43 25l-121 16l-6 70h477l-6 -70l-125 -16q-30 -6 -45 -24q-14 -17 -29 -76q-13 -50 -32 -191l-123 -919h-103l-590 1126h-8 l-94 -733q-13 -95 -19 -157q-5 -51 -2 -82q3 -34 13 -41q8 -6 35 -11l118 -16l7 -70h-478zM453 1432q72 239 225 239q69 0 161 -74q91 -73 122 -73q33 0 60 27q29 29 69 106h55q-77 -240 -227 -240q-69 0 -161 74t-122 74q-34 0 -62 -28q-26 -26 -67 -105h-53z" />
<glyph unicode="&#xd2;" horiz-adv-x="1409" d="M102 567q0 292 177 508q197 234 497 234q254 0 417 -172t163 -428q0 -154 -54 -295q-54 -142 -155 -244q-191 -201 -465 -201q-256 0 -418 171t-162 427zM287 547q0 -254 133 -387q109 -109 280 -109q115 0 211 67q95 67 149 171q55 107 83 219t28 225q0 254 -131 385 q-106 111 -282 111q-115 0 -211 -67q-95 -67 -149 -171q-55 -107 -83 -219t-28 -225zM514 1769h193l141 -376h-45z" />
<glyph unicode="&#xd3;" horiz-adv-x="1409" d="M102 567q0 292 177 508q197 234 497 234q254 0 417 -172t163 -428q0 -154 -54 -295q-54 -142 -155 -244q-191 -201 -465 -201q-256 0 -418 171t-162 427zM287 547q0 -254 133 -387q109 -109 280 -109q115 0 211 67q95 67 149 171q55 107 83 219t28 225q0 254 -131 385 q-106 111 -282 111q-115 0 -211 -67q-95 -67 -149 -171q-55 -107 -83 -219t-28 -225zM729 1393l244 376h192l-389 -376h-47z" />
<glyph unicode="&#xd4;" horiz-adv-x="1409" d="M102 567q0 292 177 508q197 234 497 234q254 0 417 -172t163 -428q0 -154 -54 -295q-54 -142 -155 -244q-191 -201 -465 -201q-256 0 -418 171t-162 427zM287 547q0 -254 133 -387q109 -109 280 -109q115 0 211 67q95 67 149 171q55 107 83 219t28 225q0 254 -131 385 q-106 111 -282 111q-115 0 -211 -67q-95 -67 -149 -171q-55 -107 -83 -219t-28 -225zM555 1393l225 376h183l124 -376h-43l-182 270h-4l-258 -270h-45z" />
<glyph unicode="&#xd5;" horiz-adv-x="1409" d="M102 567q0 292 177 508q197 234 497 234q254 0 417 -172t163 -428q0 -154 -54 -295q-54 -142 -155 -244q-191 -201 -465 -201q-256 0 -418 171t-162 427zM287 547q0 -254 133 -387q109 -109 280 -109q115 0 211 67q95 67 149 171q55 107 83 219t28 225q0 254 -131 385 q-106 111 -282 111q-115 0 -211 -67q-95 -67 -149 -171q-55 -107 -83 -219t-28 -225zM498 1432q72 239 225 239q69 0 161 -74q91 -73 122 -73q33 0 60 27q29 29 69 106h55q-76 -240 -227 -240q-69 0 -161 74t-122 74q-34 0 -62 -28q-26 -26 -67 -105h-53z" />
<glyph unicode="&#xd6;" horiz-adv-x="1409" d="M102 567q0 292 177 508q197 234 497 234q254 0 417 -172t163 -428q0 -154 -54 -295q-54 -142 -155 -244q-191 -201 -465 -201q-256 0 -418 171t-162 427zM287 547q0 -254 133 -387q109 -109 280 -109q115 0 211 67q95 67 149 171q55 107 83 219t28 225q0 254 -131 385 q-106 111 -282 111q-115 0 -211 -67q-95 -67 -149 -171q-55 -107 -83 -219t-28 -225zM483 1575q0 48 32 85q31 36 81 36q52 0 82 -36q31 -37 31 -85t-31 -85q-30 -36 -82 -36t-82 36q-31 37 -31 85zM893 1575q0 48 32 85q31 36 81 36q48 0 80 -36q32 -37 32 -85t-31 -85 q-30 -36 -81 -36q-52 0 -82 36q-31 37 -31 85z" />
<glyph unicode="&#xd7;" horiz-adv-x="983" d="M74 133l346 348l-346 346l69 70l349 -346l348 346l69 -70l-346 -346l346 -348l-69 -72l-348 349l-349 -349z" />
<glyph unicode="&#xd8;" horiz-adv-x="1409" d="M102 567q0 292 177 508q197 234 497 234q160 0 281 -72l108 172h90q-133 -211 -133 -213q110 -79 172 -207q62 -129 62 -280q0 -154 -54 -295q-54 -142 -155 -244q-191 -201 -465 -201q-157 0 -279 68l-30 -47l-58 -94l-30 -48h-88l141 228q-109 81 -173 210 q-63 128 -63 281zM287 547q0 -235 114 -369l603 971q-100 80 -246 80q-115 0 -211 -67q-95 -67 -149 -171q-55 -107 -83 -219t-28 -225zM459 127q94 -76 241 -76q115 0 211 67q95 67 149 171q55 107 83 219t28 225q0 236 -110 365z" />
<glyph unicode="&#xd9;" horiz-adv-x="1458" d="M164 1280h502l-7 -70l-127 -20q-35 -6 -40 -37l-89 -651q-10 -69 -10 -113q0 -159 91 -238t251 -79q326 0 377 354l64 477q7 49 20 157q6 52 2 83q-4 33 -13 40q-7 6 -34 11l-121 16l-6 70h477l-6 -70l-125 -16q-30 -6 -45 -24q-14 -17 -29 -75q-13 -50 -32 -192 l-68 -495q-30 -216 -170 -328q-140 -111 -350 -111q-204 0 -331 100q-126 99 -126 287q0 45 10 136l93 661q5 29 -33 37l-119 20zM567 1769h193l141 -376h-45z" />
<glyph unicode="&#xda;" horiz-adv-x="1458" d="M164 1280h502l-7 -70l-127 -20q-35 -6 -40 -37l-89 -651q-10 -69 -10 -113q0 -159 91 -238t251 -79q326 0 377 354l64 477q7 49 20 157q6 52 2 83q-4 33 -13 40q-7 6 -34 11l-121 16l-6 70h477l-6 -70l-125 -16q-30 -6 -45 -24q-14 -17 -29 -75q-13 -50 -32 -192 l-68 -495q-30 -216 -170 -328q-140 -111 -350 -111q-204 0 -331 100q-126 99 -126 287q0 45 10 136l93 661q5 29 -33 37l-119 20zM791 1393l243 376h193l-389 -376h-47z" />
<glyph unicode="&#xdb;" horiz-adv-x="1458" d="M164 1280h502l-7 -70l-127 -20q-35 -6 -40 -37l-89 -651q-10 -69 -10 -113q0 -159 91 -238t251 -79q326 0 377 354l64 477q7 49 20 157q6 52 2 83q-4 33 -13 40q-7 6 -34 11l-121 16l-6 70h477l-6 -70l-125 -16q-30 -6 -45 -24q-14 -17 -29 -75q-13 -50 -32 -192 l-68 -495q-30 -216 -170 -328q-140 -111 -350 -111q-204 0 -331 100q-126 99 -126 287q0 45 10 136l93 661q5 29 -33 37l-119 20zM584 1393l225 376h182l125 -376h-43l-182 270h-4l-258 -270h-45z" />
<glyph unicode="&#xdc;" horiz-adv-x="1458" d="M164 1280h502l-7 -70l-127 -20q-35 -6 -40 -37l-89 -651q-10 -69 -10 -113q0 -159 91 -238t251 -79q326 0 377 354l64 477q7 49 20 157q6 52 2 83q-4 33 -13 40q-7 6 -34 11l-121 16l-6 70h477l-6 -70l-125 -16q-30 -6 -45 -24q-14 -17 -29 -75q-13 -50 -32 -192 l-68 -495q-30 -216 -170 -328q-140 -111 -350 -111q-204 0 -331 100q-126 99 -126 287q0 45 10 136l93 661q5 29 -33 37l-119 20zM508 1575q0 48 32 85q32 36 81 36q51 0 81 -36q31 -37 31 -85t-31 -85q-30 -36 -81 -36q-52 0 -82 36q-31 37 -31 85zM918 1575q0 50 31 85 q31 36 81 36t81 -36q32 -37 32 -85t-31 -85q-30 -36 -82 -36t-82 36t-30 85z" />
<glyph unicode="&#xdd;" horiz-adv-x="1210" d="M76 1280h499l-8 -70l-102 -12q-25 -2 -34 -16q-9 -15 -3 -39q5 -21 25 -64l209 -450h8l331 485q39 65 -28 80l-107 16l-6 70h467l-6 -70l-82 -14q-47 -11 -79 -32t-66 -72l-381 -543l-56 -422q-6 -31 31 -37l152 -20l6 -70h-567l6 70l161 20q33 2 41 37l54 420l-269 545 q-22 46 -43 67t-55 31l-92 20zM668 1393l243 376h193l-389 -376h-47z" />
<glyph unicode="&#xde;" horiz-adv-x="1124" d="M27 0l6 70l127 20q35 6 41 37l139 1026q6 30 -31 37l-119 20l-6 70h500l-6 -70l-127 -20q-35 -6 -41 -37l-16 -125h131q209 0 336 -96q126 -95 126 -256q0 -189 -151 -298q-152 -110 -365 -110q-83 0 -178 15l-22 -156q-6 -36 30 -37l162 -20l6 -70h-542zM403 360 q79 -20 162 -20q151 0 246 89q94 88 94 247q0 129 -86 204q-84 74 -225 74q-86 0 -111 -4z" />
<glyph unicode="&#xdf;" horiz-adv-x="1026" d="M-291 -385q0 45 26 74q25 28 66 28q48 0 77 -36q30 -37 36 -95l121 64q35 80 90 381l131 788l-178 8l6 58l192 43q51 254 153 369q102 116 265 116q134 0 217 -79t76 -191q-11 -232 -299 -289q121 -86 202 -217q82 -133 75 -283q-7 -149 -121 -269q-113 -119 -250 -114 q-102 1 -166 53q-62 50 -57 123q1 49 36 84t82 35q59 0 82 -41q23 -42 9 -90q-15 -49 -54 -72q26 -21 80 -26q87 -2 152 74q64 75 69 184q11 141 -65 282q-76 142 -234 259l9 41q301 16 317 268q4 73 -45 133t-125 61q-115 2 -177 -99q-62 -100 -101 -322l-134 -738 q-85 -466 -200 -590q-94 -94 -217 -94q-63 0 -104 34q-42 35 -42 85z" />
<glyph unicode="&#xe0;" d="M45 233q0 155 66 322t161 262q131 131 254 131q107 0 168 -155h15l41 153h127l-101 -364l-108 -488l61 -18l162 137l35 -37q-39 -72 -118 -139q-80 -68 -134 -68q-35 0 -92 23q-56 23 -56 43q0 35 117 401h-18q-121 -221 -215 -346q-91 -121 -179 -121q-83 0 -135 73 q-51 72 -51 191zM186 270q0 -180 101 -180q52 0 129 103q74 99 235 372l29 119q-45 65 -110 117q-67 53 -128 53q-41 0 -82 -41q-56 -57 -115 -235q-59 -180 -59 -308zM313 1417h193l141 -377h-45z" />
<glyph unicode="&#xe1;" d="M45 233q0 155 66 322t161 262q131 131 254 131q107 0 168 -155h15l41 153h127l-101 -364l-108 -488l61 -18l162 137l35 -37q-39 -72 -118 -139q-80 -68 -134 -68q-35 0 -92 23q-56 23 -56 43q0 35 117 401h-18q-121 -221 -215 -346q-91 -121 -179 -121q-83 0 -135 73 q-51 72 -51 191zM186 270q0 -180 101 -180q52 0 129 103q74 99 235 372l29 119q-45 65 -110 117q-67 53 -128 53q-41 0 -82 -41q-56 -57 -115 -235q-59 -180 -59 -308zM449 1040l243 377h193l-389 -377h-47z" />
<glyph unicode="&#xe2;" d="M45 233q0 155 66 322t161 262q131 131 254 131q107 0 168 -155h15l41 153h127l-101 -364l-108 -488l61 -18l162 137l35 -37q-39 -72 -118 -139q-80 -68 -134 -68q-35 0 -92 23q-56 23 -56 43q0 35 117 401h-18q-121 -221 -215 -346q-91 -121 -179 -121q-83 0 -135 73 q-51 72 -51 191zM186 270q0 -180 101 -180q52 0 129 103q74 99 235 372l29 119q-45 65 -110 117q-67 53 -128 53q-41 0 -82 -41q-56 -57 -115 -235q-59 -180 -59 -308zM285 1040l225 377h182l125 -377h-43l-182 271h-4l-258 -271h-45z" />
<glyph unicode="&#xe3;" d="M45 233q0 155 66 322t161 262q131 131 254 131q107 0 168 -155h15l41 153h127l-101 -364l-108 -488l61 -18l162 137l35 -37q-39 -72 -118 -139q-80 -68 -134 -68q-35 0 -92 23q-56 23 -56 43q0 35 117 401h-18q-121 -221 -215 -346q-91 -121 -179 -121q-83 0 -135 73 q-51 72 -51 191zM186 270q0 -180 101 -180q52 0 129 103q74 99 235 372l29 119q-45 65 -110 117q-67 53 -128 53q-41 0 -82 -41q-56 -57 -115 -235q-59 -180 -59 -308zM225 1079q72 240 226 240q68 0 160 -74t122 -74q33 0 61 28q27 27 68 106h56q-76 -240 -228 -240 q-69 0 -161 74q-91 73 -121 73q-35 0 -62 -27q-25 -25 -67 -106h-54z" />
<glyph unicode="&#xe4;" d="M45 233q0 155 66 322t161 262q131 131 254 131q107 0 168 -155h15l41 153h127l-101 -364l-108 -488l61 -18l162 137l35 -37q-39 -72 -118 -139q-80 -68 -134 -68q-35 0 -92 23q-56 23 -56 43q0 35 117 401h-18q-121 -221 -215 -346q-91 -121 -179 -121q-83 0 -135 73 q-51 72 -51 191zM186 270q0 -180 101 -180q52 0 129 103q74 99 235 372l29 119q-45 65 -110 117q-67 53 -128 53q-41 0 -82 -41q-56 -57 -115 -235q-59 -180 -59 -308zM262 1223q0 48 32 85q31 35 81 35q53 0 82 -35q30 -36 30 -85t-30 -85t-82 -36t-82 36q-31 37 -31 85z M672 1223q0 50 31 85t81 35t81 -35q32 -37 32 -85t-31 -85q-30 -36 -82 -36t-82 36t-30 85z" />
<glyph unicode="&#xe5;" d="M45 233q0 155 66 322t161 262q131 131 254 131q107 0 168 -155h15l41 153h127l-101 -364l-108 -488l61 -18l162 137l35 -37q-39 -72 -118 -139q-80 -68 -134 -68q-35 0 -92 23q-56 23 -56 43q0 35 117 401h-18q-121 -221 -215 -346q-91 -121 -179 -121q-83 0 -135 73 q-51 72 -51 191zM186 270q0 -180 101 -180q52 0 129 103q74 99 235 372l29 119q-45 65 -110 117q-67 53 -128 53q-41 0 -82 -41q-56 -57 -115 -235q-59 -180 -59 -308zM399 1239q1 77 52 131q50 53 131 53q82 0 133 -53q51 -52 49 -131q0 -78 -50 -131t-132 -53t-132 53 q-51 54 -51 131zM461 1239q0 -54 34 -91q35 -38 89 -38q55 0 88 38t33 91q0 56 -34 93q-35 38 -89 38q-55 0 -88 -38t-33 -93z" />
<glyph unicode="&#xe6;" horiz-adv-x="1239" d="M45 262q0 157 58 307q59 152 155 248q131 131 254 131q70 0 119 -67q50 -68 74 -152q145 217 319 217q93 0 154 -53q59 -52 59 -125q0 -79 -79 -139q-83 -63 -337 -197q-38 -20 -129 -67q-2 -20 -2 -54q0 -110 53 -172q52 -61 131 -61q73 0 246 131l29 -37 q-174 -203 -330 -203q-116 0 -194 91t-78 227q0 8 1 16t1 23q-89 -161 -180 -259q-90 -98 -150 -98q-84 0 -129 83q-45 82 -45 210zM186 299q0 -87 24 -144t58 -57t75 35q39 34 94 120q65 102 85 138q30 53 96 174q4 7 21 41q4 8 8 17t6.5 14.5t3.5 7.5q-39 86 -102 146 q-66 63 -131 63q-39 0 -80 -41q-55 -55 -106 -219q-52 -167 -52 -295zM694 426h4q251 135 331 201q77 63 77 135q0 36 -59 66q-60 30 -107 30q-42 0 -80 -33q-46 -46 -92 -153q-47 -109 -74 -246z" />
<glyph unicode="&#xe7;" horiz-adv-x="763" d="M55 -502q344 47 344 195q0 96 -159 96q-57 0 -121 -10l4 35q170 158 170 159q-102 17 -167 104q-65 88 -65 210q0 244 148 452q147 207 338 207q89 0 155 -45t66 -113q0 -44 -27 -76t-67 -32q-80 0 -80 76q0 35 14 55q-11 17 -65 36t-101 19q-20 0 -61 -41 q-60 -59 -118 -217q-58 -156 -58 -297q0 -110 53 -172q52 -61 131 -61q73 0 246 131l29 -37q-152 -178 -287 -199l-103 -94q112 5 178 -39t66 -121q0 -107 -123 -179t-332 -87z" />
<glyph unicode="&#xe8;" horiz-adv-x="751" d="M61 287q0 247 147 453t329 206q94 0 155 -53q60 -53 60 -129q0 -89 -88 -152q-91 -65 -390 -221q-22 -11 -67 -35q-2 -20 -2 -45q0 -110 53 -172q52 -61 131 -61q73 0 246 131l29 -37q-174 -203 -330 -203q-117 0 -195 91q-78 92 -78 227zM209 418l4 -2q248 133 324 199 q79 69 79 147q0 36 -54 66t-97 30q-55 0 -94 -39q-42 -44 -89 -154q-45 -106 -73 -247zM268 1417h193l141 -377h-45z" />
<glyph unicode="&#xe9;" horiz-adv-x="751" d="M61 287q0 247 147 453t329 206q94 0 155 -53q60 -53 60 -129q0 -89 -88 -152q-91 -65 -390 -221q-22 -11 -67 -35q-2 -20 -2 -45q0 -110 53 -172q52 -61 131 -61q73 0 246 131l29 -37q-174 -203 -330 -203q-117 0 -195 91q-78 92 -78 227zM209 418l4 -2q248 133 324 199 q79 69 79 147q0 36 -54 66t-97 30q-55 0 -94 -39q-42 -44 -89 -154q-45 -106 -73 -247zM418 1040l244 377h192l-389 -377h-47z" />
<glyph unicode="&#xea;" horiz-adv-x="751" d="M61 287q0 247 147 453t329 206q94 0 155 -53q60 -53 60 -129q0 -89 -88 -152q-91 -65 -390 -221q-22 -11 -67 -35q-2 -20 -2 -45q0 -110 53 -172q52 -61 131 -61q73 0 246 131l29 -37q-174 -203 -330 -203q-117 0 -195 91q-78 92 -78 227zM209 418l4 -2q248 133 324 199 q79 69 79 147q0 36 -54 66t-97 30q-55 0 -94 -39q-42 -44 -89 -154q-45 -106 -73 -247zM248 1040l225 377h182l125 -377h-43l-182 271h-4l-258 -271h-45z" />
<glyph unicode="&#xeb;" horiz-adv-x="751" d="M61 287q0 247 147 453t329 206q94 0 155 -53q60 -53 60 -129q0 -89 -88 -152q-91 -65 -390 -221q-22 -11 -67 -35q-2 -20 -2 -45q0 -110 53 -172q52 -61 131 -61q73 0 246 131l29 -37q-174 -203 -330 -203q-117 0 -195 91q-78 92 -78 227zM209 418l4 -2q248 133 324 199 q79 69 79 147q0 36 -54 66t-97 30q-55 0 -94 -39q-42 -44 -89 -154q-45 -106 -73 -247zM217 1223q0 48 32 85q31 35 81 35q53 0 82 -35q30 -36 30 -85t-30 -85t-82 -36t-82 36q-31 37 -31 85zM627 1223q0 50 31 85t81 35t81 -35q32 -37 32 -85t-31 -85q-30 -36 -82 -36 t-82 36t-30 85z" />
<glyph unicode="&#xec;" horiz-adv-x="522" d="M41 707q37 78 116 160q76 79 130 79q21 0 59 -9q36 -9 66 -26q28 -16 24 -30l-217 -787l62 -18l163 137l35 -37q-40 -71 -120 -139t-134 -68q-35 0 -89 24q-27 12 -39.5 22.5t-10.5 19.5l209 788l-62 11l-157 -164zM96 1417h193l141 -377h-45z" />
<glyph unicode="&#xed;" horiz-adv-x="522" d="M41 707q37 78 116 160q76 79 130 79q21 0 59 -9q36 -9 66 -26q28 -16 24 -30l-217 -787l62 -18l163 137l35 -37q-40 -71 -120 -139t-134 -68q-35 0 -89 24q-27 12 -39.5 22.5t-10.5 19.5l209 788l-62 11l-157 -164zM240 1040l243 377h193l-389 -377h-47z" />
<glyph unicode="&#xee;" horiz-adv-x="522" d="M41 707q37 78 116 160q76 79 130 79q21 0 59 -9q36 -9 66 -26q28 -16 24 -30l-217 -787l62 -18l163 137l35 -37q-40 -71 -120 -139t-134 -68q-35 0 -89 24q-27 12 -39.5 22.5t-10.5 19.5l209 788l-62 11l-157 -164zM76 1040l225 377h182l125 -377h-43l-182 271h-4 l-258 -271h-45z" />
<glyph unicode="&#xef;" horiz-adv-x="522" d="M39 1223q0 48 32 85q31 35 81 35q52 0 81 -35q31 -37 31 -85t-31 -85q-30 -36 -81 -36q-52 0 -82 36q-31 37 -31 85zM41 707q37 78 116 160q76 79 130 79q21 0 59 -9q36 -9 66 -26q28 -16 24 -30l-217 -787l62 -18l163 137l35 -37q-40 -71 -120 -139t-134 -68 q-35 0 -89 24q-27 12 -39.5 22.5t-10.5 19.5l209 788l-62 11l-157 -164zM449 1223q0 50 31 85t81 35t81 -35q32 -37 32 -85t-31 -85q-30 -36 -82 -36t-82 36t-30 85z" />
<glyph unicode="&#xf0;" horiz-adv-x="894" d="M68 362q0 137 55 269q55 133 160 224q104 91 229 91q150 0 207 -145q-21 209 -148 354l-325 -100l18 84l244 75q-82 66 -207 111l43 70q156 -51 264 -150l297 92l-18 -84l-215 -67q181 -196 186 -484q0 -276 -144 -504q-145 -229 -343 -229q-151 0 -227 111 q-76 110 -76 282zM207 317q0 -113 42 -199q42 -85 126 -85q70 0 131 67q59 64 95 145q31 69 54 154q27 113 27 211q0 114 -42 193q-42 80 -126 80q-93 0 -169 -115q-74 -112 -109 -242q-29 -110 -29 -209z" />
<glyph unicode="&#xf1;" horiz-adv-x="1042" d="M35 707q37 78 116 160q76 79 130 79q35 0 91 -22t56 -43q0 -19 -129 -523h20q191 402 302 519q67 69 141 69q60 0 106 -42q47 -42 47 -101q0 -90 -86 -371q-86 -287 -102 -338l61 -18l164 137l35 -37q-38 -70 -119 -139q-80 -68 -135 -68q-33 0 -87 23q-52 22 -52 43 q0 41 106 393q80 272 80 303q0 36 -30 63t-68 27q-88 0 -375 -579l-47 -252l-149 10l69 301l109 514l-60 12l-161 -157zM256 1079q72 240 225 240q69 0 161 -74t122 -74q32 0 60 28q29 29 69 106h55q-76 -240 -227 -240q-69 0 -161 74q-91 73 -122 73q-34 0 -61 -27 t-68 -106h-53z" />
<glyph unicode="&#xf2;" horiz-adv-x="894" d="M68 362q0 135 57 269q56 131 164 224q106 91 231 91q150 0 226 -110q77 -112 77 -283q0 -212 -133 -397q-134 -187 -319 -187q-151 0 -227 111q-76 110 -76 282zM207 317q0 -113 42 -199q42 -85 126 -85q70 0 131 67q59 64 95 145q31 69 54 154q27 113 27 211 q0 114 -42 193q-42 80 -126 80q-93 0 -169 -115q-74 -112 -109 -242q-29 -110 -29 -209zM303 1417h193l141 -377h-45z" />
<glyph unicode="&#xf3;" horiz-adv-x="894" d="M68 362q0 135 57 269q56 131 164 224q106 91 231 91q150 0 226 -110q77 -112 77 -283q0 -212 -133 -397q-134 -187 -319 -187q-151 0 -227 111q-76 110 -76 282zM207 317q0 -113 42 -199q42 -85 126 -85q70 0 131 67q59 64 95 145q31 69 54 154q27 113 27 211 q0 114 -42 193q-42 80 -126 80q-93 0 -169 -115q-74 -112 -109 -242q-29 -110 -29 -209zM455 1040l243 377h193l-389 -377h-47z" />
<glyph unicode="&#xf4;" horiz-adv-x="894" d="M68 362q0 135 57 269q56 131 164 224q106 91 231 91q150 0 226 -110q77 -112 77 -283q0 -212 -133 -397q-134 -187 -319 -187q-151 0 -227 111q-76 110 -76 282zM207 317q0 -113 42 -199q42 -85 126 -85q70 0 131 67q59 64 95 145q31 69 54 154q27 113 27 211 q0 114 -42 193q-42 80 -126 80q-93 0 -169 -115q-74 -112 -109 -242q-29 -110 -29 -209zM276 1040l226 377h182l125 -377h-43l-182 271h-4l-258 -271h-46z" />
<glyph unicode="&#xf5;" horiz-adv-x="894" d="M68 362q0 135 57 269q56 131 164 224q106 91 231 91q150 0 226 -110q77 -112 77 -283q0 -212 -133 -397q-134 -187 -319 -187q-151 0 -227 111q-76 110 -76 282zM207 317q0 -113 42 -199q42 -85 126 -85q70 0 131 67q59 64 95 145q31 69 54 154q27 113 27 211 q0 114 -42 193q-42 80 -126 80q-93 0 -169 -115q-74 -112 -109 -242q-29 -110 -29 -209zM225 1079q72 240 226 240q68 0 160 -74t122 -74q33 0 61 28q27 27 68 106h55q-77 -240 -227 -240q-69 0 -161 74q-91 73 -121 73q-35 0 -62 -27q-25 -25 -67 -106h-54z" />
<glyph unicode="&#xf6;" horiz-adv-x="894" d="M68 362q0 135 57 269q56 131 164 224q106 91 231 91q150 0 226 -110q77 -112 77 -283q0 -212 -133 -397q-134 -187 -319 -187q-151 0 -227 111q-76 110 -76 282zM207 317q0 -113 42 -199q42 -85 126 -85q70 0 131 67q59 64 95 145q31 69 54 154q27 113 27 211 q0 114 -42 193q-42 80 -126 80q-93 0 -169 -115q-74 -112 -109 -242q-29 -110 -29 -209zM260 1223q0 48 32 85q31 35 81 35q53 0 82 -35q30 -36 30 -85t-30 -85t-82 -36t-82 36q-31 37 -31 85zM670 1223q0 50 31 85t81 35t81 -35q32 -37 32 -85t-31 -85q-30 -36 -82 -36 t-82 36t-30 85z" />
<glyph unicode="&#xf7;" horiz-adv-x="983" d="M66 430l6 100h839l7 -100h-852zM389 193q0 42 31 73t76 31q43 0 74 -31q30 -30 30 -73t-30 -75t-74 -32q-46 0 -76 32q-31 33 -31 75zM389 766q0 44 30 75t75 31t75 -31q31 -33 31 -75t-31 -75q-30 -32 -75 -32t-75 32q-30 31 -30 75z" />
<glyph unicode="&#xf8;" horiz-adv-x="894" d="M-18 -229l176 290q-90 105 -90 301q0 135 57 269q56 131 164 224q106 91 231 91q93 0 156 -45l166 273h78q-191 -316 -193 -318q96 -105 96 -303q0 -212 -133 -397q-134 -187 -319 -187q-96 0 -160 47l-150 -245h-79zM207 317q0 -85 20 -145l402 649q-47 62 -115 62 q-93 0 -169 -115q-74 -112 -109 -242q-29 -110 -29 -209zM260 98q44 -65 115 -65q70 0 131 67q59 64 95 145q31 69 54 154q27 113 27 211q0 78 -21 140q-400 -652 -401 -652z" />
<glyph unicode="&#xf9;" horiz-adv-x="1042" d="M59 707q37 76 118 160q76 79 130 79q36 0 89 -22q55 -23 55 -43q0 -38 -107 -394q-82 -261 -82 -301q0 -34 31 -63t67 -29q85 0 377 580l49 252l150 -11l-72 -301q-98 -484 -110 -520l61 -18l162 137l35 -37q-39 -72 -118 -139q-80 -68 -134 -68q-36 0 -90 23t-54 43 q0 29 127 522h-18q-190 -395 -303 -518q-68 -70 -148 -70q-57 0 -102 42t-45 102q0 77 86 370l100 340l-61 11l-158 -164zM336 1417h192l142 -377h-45z" />
<glyph unicode="&#xfa;" horiz-adv-x="1042" d="M59 707q37 76 118 160q76 79 130 79q36 0 89 -22q55 -23 55 -43q0 -38 -107 -394q-82 -261 -82 -301q0 -34 31 -63t67 -29q85 0 377 580l49 252l150 -11l-72 -301q-98 -484 -110 -520l61 -18l162 137l35 -37q-39 -72 -118 -139q-80 -68 -134 -68q-36 0 -90 23t-54 43 q0 29 127 522h-18q-190 -395 -303 -518q-68 -70 -148 -70q-57 0 -102 42t-45 102q0 77 86 370l100 340l-61 11l-158 -164zM508 1040l244 377h192l-389 -377h-47z" />
<glyph unicode="&#xfb;" horiz-adv-x="1042" d="M59 707q37 76 118 160q76 79 130 79q36 0 89 -22q55 -23 55 -43q0 -38 -107 -394q-82 -261 -82 -301q0 -34 31 -63t67 -29q85 0 377 580l49 252l150 -11l-72 -301q-98 -484 -110 -520l61 -18l162 137l35 -37q-39 -72 -118 -139q-80 -68 -134 -68q-36 0 -90 23t-54 43 q0 29 127 522h-18q-190 -395 -303 -518q-68 -70 -148 -70q-57 0 -102 42t-45 102q0 77 86 370l100 340l-61 11l-158 -164zM336 1040l225 377h182l125 -377h-43l-182 271h-4l-258 -271h-45z" />
<glyph unicode="&#xfc;" horiz-adv-x="1042" d="M59 707q37 76 118 160q76 79 130 79q36 0 89 -22q55 -23 55 -43q0 -38 -107 -394q-82 -261 -82 -301q0 -34 31 -63t67 -29q85 0 377 580l49 252l150 -11l-72 -301q-98 -484 -110 -520l61 -18l162 137l35 -37q-39 -72 -118 -139q-80 -68 -134 -68q-36 0 -90 23t-54 43 q0 29 127 522h-18q-190 -395 -303 -518q-68 -70 -148 -70q-57 0 -102 42t-45 102q0 77 86 370l100 340l-61 11l-158 -164zM319 1223q0 48 32 85q31 35 81 35q53 0 82 -35q31 -37 31 -85t-31 -85q-30 -36 -82 -36t-82 36q-31 37 -31 85zM729 1223q0 48 32 85q31 35 81 35 t81 -35t31 -85q0 -49 -30 -85t-82 -36t-82 36q-31 37 -31 85z" />
<glyph unicode="&#xfd;" horiz-adv-x="878" d="M-227 -393q0 42 30 72t68 30q47 0 83 -37q36 -38 32 -88l55 -4l281 404l-80 22l6 811l-60 12l-157 -163l-35 36q39 80 116 163q75 81 128 81q36 0 92 -24q55 -24 55 -48l-16 -776h20l354 592l7 33q-103 38 -103 113q0 46 30 80t75 34q58 0 92 -36q35 -37 35 -95 q0 -101 -185 -364l-237 -355l-121 -215q-114 -219 -206 -314t-200 -95q-64 0 -111 37q-48 37 -48 94zM426 1040l244 377h192l-389 -377h-47z" />
<glyph unicode="&#xfe;" horiz-adv-x="911" d="M-217 -504l4 70l129 20q37 1 43 37l344 1585q11 35 -14 41l-142 45l7 52l333 81l-112 -477l-127 -504h16q129 248 224 375q94 125 178 127q80 0 131 -85t51 -204q0 -151 -61 -308q-60 -155 -154 -249q-139 -135 -275 -135q-98 0 -174 76h-4l-84 -420q-5 -35 29 -37 l154 -20l6 -70h-502zM211 178q124 -139 213 -139q43 0 86 43q71 71 133 240t62 301q0 85 -26 143q-26 57 -73 59q-49 0 -128 -109q-77 -107 -232 -384z" />
<glyph unicode="&#xff;" horiz-adv-x="878" d="M-227 -393q0 42 30 72t68 30q47 0 83 -37q36 -38 32 -88l55 -4l281 404l-80 22l6 811l-60 12l-157 -163l-35 36q39 80 116 163q75 81 128 81q36 0 92 -24q55 -24 55 -48l-16 -776h20l354 592l7 33q-103 38 -103 113q0 46 30 80t75 34q58 0 92 -36q35 -37 35 -95 q0 -101 -185 -364l-237 -355l-121 -215q-114 -219 -206 -314t-200 -95q-64 0 -111 37q-48 37 -48 94zM238 1223q0 50 31 85t81 35q53 0 82 -35q31 -37 31 -85t-31 -85q-30 -36 -82 -36t-82 36t-30 85zM647 1223q0 48 32 85q31 35 81 35t81 -35t31 -85q0 -49 -30 -85t-82 -36 t-82 36q-31 37 -31 85z" />
<glyph unicode="&#x152;" horiz-adv-x="1839" d="M102 563q0 295 201 496q104 105 262 163q156 58 344 58h928l-63 -371h-74l-19 207q-6 51 -39 66q-51 22 -385 22h-69l-70 -514h70q127 0 167 10q42 10 60 39l49 127h70l-100 -426h-68l8 131q2 20 -9 27q-14 9 -55 13q-48 5 -136 5h-66l-72 -540h47q233 0 318 7 q94 8 124 22q32 15 50 59l82 198h98l-86 -362h-958q-278 0 -444 154q-165 153 -165 409zM287 557q0 -223 120 -352t343 -129h116l146 1100l-150 28q-251 -10 -413 -180t-162 -467z" />
<glyph unicode="&#x153;" horiz-adv-x="1339" d="M68 362q0 214 130 399t322 185q208 0 268 -217q62 99 151 159q86 58 183 58q94 0 155 -53q60 -53 60 -125q0 -81 -75 -137q-83 -62 -344 -199q-18 -10 -42 -22q-4 -2 -17.5 -9.5t-22.5 -11.5q-24 -12 -45 -24v-54q0 -110 53 -172q52 -61 129 -61q75 0 248 131l28 -37 q-179 -203 -329 -203q-88 0 -150 48q-62 49 -86 130q-129 -178 -313 -178q-151 0 -228 110q-75 107 -75 283zM207 317q0 -113 42 -199q42 -85 126 -85q70 0 131 67q59 64 95 145q31 69 54 154q27 113 27 211q0 114 -42 193q-42 80 -126 80q-93 0 -169 -115 q-74 -112 -109 -242q-29 -110 -29 -209zM795 426h4q248 134 330 201q77 63 77 135q0 36 -59 66q-60 30 -109 30q-42 0 -80 -33q-44 -45 -90 -154q-45 -107 -73 -245z" />
<glyph unicode="&#x178;" horiz-adv-x="1210" d="M76 1280h499l-8 -70l-102 -12q-25 -2 -34 -16q-9 -15 -3 -39q5 -21 25 -64l209 -450h8l331 485q39 65 -28 80l-107 16l-6 70h467l-6 -70l-82 -14q-47 -11 -79 -32t-66 -72l-381 -543l-56 -422q-6 -31 31 -37l152 -20l6 -70h-567l6 70l161 20q33 2 41 37l54 420l-269 545 q-22 46 -43 67t-55 31l-92 20zM430 1575q0 48 32 85q32 36 81 36q52 0 82 -36t30 -85t-30 -85t-82 -36t-82 36q-31 37 -31 85zM840 1575q0 50 31 85q31 36 81 36t81 -36q32 -37 32 -85t-31 -85q-30 -36 -82 -36t-82 36t-30 85z" />
<glyph unicode="&#x2c6;" horiz-adv-x="819" d="M205 1040l225 377h182l125 -377h-43l-182 271h-4l-258 -271h-45z" />
<glyph unicode="&#x2dc;" horiz-adv-x="819" d="M145 1079q72 240 226 240q68 0 160 -74t122 -74q33 0 61 28q27 27 68 106h56q-76 -240 -228 -240q-68 0 -160 74q-91 73 -122 73q-35 0 -62 -27q-25 -25 -67 -106h-54z" />
<glyph unicode="&#x2000;" horiz-adv-x="884" />
<glyph unicode="&#x2001;" horiz-adv-x="1769" />
<glyph unicode="&#x2002;" horiz-adv-x="884" />
<glyph unicode="&#x2003;" horiz-adv-x="1769" />
<glyph unicode="&#x2004;" horiz-adv-x="589" />
<glyph unicode="&#x2005;" horiz-adv-x="442" />
<glyph unicode="&#x2006;" horiz-adv-x="294" />
<glyph unicode="&#x2007;" horiz-adv-x="294" />
<glyph unicode="&#x2008;" horiz-adv-x="221" />
<glyph unicode="&#x2009;" horiz-adv-x="353" />
<glyph unicode="&#x200a;" horiz-adv-x="98" />
<glyph unicode="&#x2010;" horiz-adv-x="671" d="M51 428l6 104h525l6 -104h-537z" />
<glyph unicode="&#x2011;" horiz-adv-x="671" d="M51 428l6 104h525l6 -104h-537z" />
<glyph unicode="&#x2012;" horiz-adv-x="671" d="M51 428l6 104h525l6 -104h-537z" />
<glyph unicode="&#x2013;" horiz-adv-x="962" d="M55 424l6 100h848l6 -100h-860z" />
<glyph unicode="&#x2014;" horiz-adv-x="1921" d="M55 424l6 100h1805l8 -100h-1819z" />
<glyph unicode="&#x2018;" horiz-adv-x="462" d="M129 954q5 125 119 236q113 110 284 184l29 -39q-97 -52 -169 -131q-72 -80 -77 -160q-1 -45 27 -82q31 -41 55 -57l29 -20q-11 -47 -47 -74q-38 -29 -90 -29q-70 0 -118 51q-46 49 -42 121z" />
<glyph unicode="&#x2019;" horiz-adv-x="462" d="M96 813q202 122 209 264q2 33 -11 60q-14 29 -33 47q-17 16 -39 31q-26 18 -34 22l-14 6q2 45 40 76q39 31 91 31q70 0 120 -55q49 -54 48 -132q-6 -203 -336 -387z" />
<glyph unicode="&#x201a;" horiz-adv-x="462" d="M-55 -307q202 122 209 264q2 30 -12 59q-15 31 -32 47q-22 20 -39 32q-22 15 -34 20l-14 8q2 46 39 76t92 30q70 0 119 -54q50 -55 49 -132q-6 -203 -336 -387z" />
<glyph unicode="&#x201c;" horiz-adv-x="868" d="M127 969q6 196 334 387l43 -37q-202 -122 -209 -266q-2 -34 11 -59q14 -29 33 -46q19 -18 39 -33q19 -14 34 -22l14 -6q-1 -43 -40 -74t-91 -31q-70 0 -120 55q-49 54 -48 132zM553 969q6 196 334 387l43 -37q-202 -122 -209 -266q-2 -34 11 -59q14 -29 33 -46 q19 -18 39 -33q19 -14 34 -22l14 -6q-1 -43 -40 -74t-91 -31q-70 0 -120 55q-49 54 -48 132z" />
<glyph unicode="&#x201d;" horiz-adv-x="868" d="M106 813q201 123 207 264q2 33 -11 60q-13 28 -32 47q-15 15 -38 31q-29 20 -33 22l-15 6q2 45 40 76q39 31 91 31q70 0 120 -55q49 -54 48 -132q-6 -203 -336 -387zM532 813q202 122 209 264q2 33 -11 60q-14 29 -33 47q-17 16 -39 31q-29 20 -33 22l-15 6q2 45 40 76 q39 31 91 31q70 0 120 -55q49 -54 48 -132q-6 -203 -336 -387z" />
<glyph unicode="&#x201e;" horiz-adv-x="868" d="M-45 -307q201 123 207 264q2 32 -11 59q-13 29 -32 47q-19 19 -38 32q-22 15 -34 20l-14 8q2 45 40 76q37 30 91 30q70 0 120 -54t48 -132q-6 -203 -336 -387zM381 -307q202 122 209 264q2 32 -11 59q-14 29 -33 47q-22 20 -39 32q-22 15 -34 20l-14 8q2 45 40 76 q37 30 91 30q70 0 120 -54t48 -132q-6 -203 -336 -387z" />
<glyph unicode="&#x2022;" horiz-adv-x="931" d="M72 475q0 46 43 147q44 103 73 132t134 72q102 42 145 42q44 0 146 -42t132 -72q32 -32 73 -132q42 -102 42 -147q0 -43 -41 -146q-40 -100 -74 -134q-31 -31 -133 -73t-147 -42q-44 0 -146 42q-101 42 -131 73q-29 32 -73 135q-43 101 -43 145z" />
<glyph unicode="&#x2026;" horiz-adv-x="1392" d="M61 96q0 51 36 87t91 36q56 0 92 -37q35 -36 33 -86q0 -53 -35 -89q-36 -38 -90 -38t-92 38q-37 37 -35 89zM524 96q0 51 37 87t92 36q53 0 89 -36t36 -87q0 -52 -36 -89q-36 -38 -91 -38q-52 0 -90 38q-37 37 -37 89zM989 96q0 51 37 87q38 36 90 36q55 0 91 -36t34 -87 q0 -52 -36 -89q-36 -38 -89 -38q-54 0 -92 38q-37 37 -35 89z" />
<glyph unicode="&#x202f;" horiz-adv-x="353" />
<glyph unicode="&#x2039;" horiz-adv-x="620" d="M63 414l3 82l491 321l14 -43l-366 -323l282 -312l-24 -39z" />
<glyph unicode="&#x203a;" horiz-adv-x="620" d="M47 137l344 318l-260 317l25 39l399 -315l-12 -86l-482 -316z" />
<glyph unicode="&#x205f;" horiz-adv-x="442" />
<glyph unicode="&#x20ac;" horiz-adv-x="1028" d="M20 434l7 80h125v16q5 102 14 160h-123l6 80h133q62 230 221 374t367 144q133 0 218 -49t85 -127q0 -46 -24 -76t-70 -30q-52 0 -82 48q-31 50 -31 111q-52 43 -151 43q-146 0 -246 -116q-101 -117 -135 -322h420l6 -80h-436q-11 -64 -11 -155v-21h416l8 -80h-418 q18 -159 104 -259q85 -99 220 -99q151 0 297 137l29 -45q-67 -90 -167 -144q-101 -55 -210 -55q-189 0 -300 132q-112 133 -134 333h-138z" />
<glyph unicode="&#x2122;" horiz-adv-x="1865" d="M102 1012l17 268h672v-268h-60l-14 71q-28 92 -61 115q-36 25 -146 25h-6v-615q0 -20 18 -22l105 -13l2 -55h-371l4 55l105 13q20 1 20 22v615h-10q-97 0 -135 -27q-37 -27 -66 -113l-18 -71h-56zM879 518l4 55l80 11q12 1 18 11q5 8 10 42q5 33 6 98l15 453q0 22 -19 24 l-86 13l-4 55h289l156 -586h18l199 586h288l-4 -55l-84 -13q-22 -1 -22 -24l12 -510q2 -86 31 -92l80 -13l4 -55h-336l4 55l78 13q14 1 17 19t3 73l-12 520h-20l-228 -655h-92l-186 659h-21l-16 -467q-2 -97 0 -121q1 -24 18 -30l82 -11l2 -55h-284z" />
<glyph unicode="&#x25fc;" horiz-adv-x="952" d="M0 0v952h952v-952h-952z" />
</font>
</defs>
</svg>
